<?xml version="1.0" encoding="utf-8"?>
<!-- Generator: Adobe Illustrator 24.1.2, SVG Export Plug-In . SVG Version: 6.00 Build 0)  -->
<svg version="1.1" id="Layer_1" xmlns="http://www.w3.org/2000/svg" xmlns:xlink="http://www.w3.org/1999/xlink" x="0px" y="0px"
	 viewBox="0 0 500 500" style="enable-background:new 0 0 500 500;" xml:space="preserve">
<style type="text/css">
	.st0{fill:#DADCDE;}
	.st1{fill:#00AD4E;}
</style>
<g>
	<path class="st0" d="M281.9,419.5h-70.7c-9.6,0-17.3-7.8-17.3-17.3v-105c0-9.6,7.8-17.3,17.3-17.3h70.7c9.6,0,17.3,7.8,17.3,17.3
		v105C299.2,411.8,291.5,419.5,281.9,419.5z"/>
	<g>
		<g>
			<polygon class="st1" points="249.4,80.5 400.9,209.5 399.9,210.6 399.9,419.5 300.6,419.5 300.6,291 198.7,291 198.7,419.5 
				99.5,419.5 99.5,210.6 98.4,209.5 			"/>
		</g>
	</g>
	<path d="M435.9,225.7L256.2,72.1c-4-3.1-9.6-3.1-13.6,0L62.9,225.7c-3.2,3.6-3.6,8.8-0.9,12.8c3.2,4.8,9.7,6.1,14.5,2.9l11-9.3
		v187.5C88,425.5,93,430,99,430h300.9c6,0,11-4.5,11.5-10.4V232l11,9.3c1.8,1.8,4.3,2.8,6.8,2.6c3.1,0.1,6-1.2,7.8-3.7
		C440.7,236,440.2,229.5,435.9,225.7z M291.2,409.1h-83.6V299.4h83.6V409.1z M390.5,409.1h-78.4V291c-0.4-6.4-5.2-11.6-11.5-12.5
		H198.2c-6.3,1-11.1,6.2-11.5,12.5v118.1h-78.4V214.2L249.4,94.1l141.1,120.2V409.1z"/>
</g>
</svg>
