<?xml version="1.0" encoding="utf-8"?>
<!-- Generator: Adobe Illustrator 24.1.2, SVG Export Plug-In . SVG Version: 6.00 Build 0)  -->
<svg version="1.1" id="Layer_1" xmlns="http://www.w3.org/2000/svg" xmlns:xlink="http://www.w3.org/1999/xlink" x="0px" y="0px"
	 viewBox="0 0 500 500" style="enable-background:new 0 0 500 500;" xml:space="preserve">
<style type="text/css">
	.st0{fill:#FFFFFF;}
	.st1{fill:#AEAFAF;}
	.st2{fill:#005128;}
	.st3{fill:#00AD4E;}
	.st4{fill:#DADCDE;}
</style>
<g>
	<path class="st0" d="M251.2,28.1C148.9,28.1,65.7,113.3,65.7,218c0,35.9,22.3,82.9,66.3,139.5c37.2,47.9,81,90.8,103.9,112.1
		c8.7,8.1,21.8,8.1,30.5,0c22.8-21.3,66.7-64.2,103.9-112.1c44-56.6,66.3-103.6,66.3-139.5C436.6,113.3,353.4,28.1,251.2,28.1z
		 M254.5,354.5c-74.7,0-135.3-62-135.3-138.5c0-76.5,60.6-138.5,135.3-138.5c74.7,0,135.3,62,135.3,138.5
		C389.7,292.5,329.2,354.5,254.5,354.5z"/>
	<g id="XMLID_424_">
		<g>
			<path class="st1" d="M250,71.6c-78,0-141.3,64.8-141.3,144.7c0,21.3,4.5,41.5,12.6,59.8l75.6,14.3c-9.7-21.3-15.6-42-15.6-60.9
				c0-64.6,30.6-121.9,77.7-157.5C256.1,71.7,253.1,71.6,250,71.6z"/>
			<path class="st2" d="M343.2,206.6c-3.9-3.2-9.4-3.1-13.2,0.1l-37.8,32.1c0,0-53.5,36.6-52,36.2c1.4-0.4,83.5,46.9,83.5,46.9
				l42.3-22.8c11.3-16.6,19.3-35.6,23-56.3L343.2,206.6z"/>
			<path class="st3" d="M292.2,238.8l73.7,60.3C340.3,336.5,298,361,250,361c-57.2,0-106.5-34.8-128.7-84.9l99.7-84.6
				c3.8-3.2,9.3-3.3,13.2-0.1L292.2,238.8z"/>
		</g>
	</g>
	<ellipse class="st4" cx="292.2" cy="154.7" rx="20.3" ry="20.8"/>
	<g>
		<path d="M390.5,72.4C352.9,34,303.1,12.9,250,12.9S147.1,34,109.5,72.4C72,110.9,51.4,162,51.4,216.3
			c0,89,121.5,212.1,173.8,260.9c6.9,6.4,15.7,9.9,24.9,9.9c9.2,0,18-3.5,24.9-9.9c52.2-48.8,173.8-171.9,173.8-260.9
			C448.6,162,428,110.9,390.5,72.4z M264.6,465.6c-8.3,7.8-20.8,7.8-29.1,0c-22.7-21.2-66.2-63.8-103.1-111.3
			c-43.6-56.1-65.7-102.5-65.7-138c0-103.5,82.3-187.8,183.4-187.8c101.1,0,183.3,84.2,183.3,187.8c0,35.5-22.1,81.9-65.7,138
			C330.7,401.9,287.2,444.5,264.6,465.6z"/>
		<path d="M282.5,350c-10.6,2.7-21.6,4.1-32.5,4.1c-52.6,0-98.2-31-120.3-76.2l45.5-38.6c2.9-2.4,3.3-6.8,0.9-9.7
			c-2.4-2.9-6.6-3.3-9.5-0.9l-42.5,36.1c-5.6-15.1-8.6-31.4-8.6-48.5c0-76,60.4-137.8,134.5-137.8c36.3,0,70.3,14.6,95.8,41
			c2.6,2.7,6.9,2.7,9.5,0.1c2.7-2.7,2.7-7.1,0.1-9.8c-28-29.1-65.5-45.1-105.4-45.1c-81.6,0-148,68-148,151.6s66.4,151.6,148,151.6
			c12.1,0,24.1-1.5,35.8-4.5c3.6-0.9,5.8-4.7,4.9-8.4C289.8,351.4,286.2,349.1,282.5,350L282.5,350z"/>
		<path d="M374.3,133.9c-2-3.2-6.2-4.1-9.3-2c-3.1,2.1-4,6.4-2,9.6c14.1,22.3,21.6,48.2,21.6,74.9c0,4.9-0.3,9.8-0.8,14.6
			l-36.3-29.7c-6.3-5.2-15.5-5.1-21.7,0.2l-33.6,28.5L238.5,186c-6.3-5.2-15.5-5.1-21.7,0.2l-28,23.8c-2.9,2.4-3.3,6.8-0.9,9.7
			s6.6,3.3,9.5,0.9l28-23.8c1.3-1.1,3.3-1.2,4.7,0l57.9,47.4c0,0,0,0,0.1,0l68.6,56.1c-12.8,17-29.3,30.8-48.2,40.1
			c-3.4,1.7-4.8,5.8-3.1,9.2c1.2,2.5,3.6,3.9,6.1,3.9c1,0,2-0.2,2.9-0.7c24.7-12.2,45.6-31.2,60.5-54.9
			c15.3-24.4,23.3-52.6,23.3-81.7C398,186.9,389.8,158.4,374.3,133.9L374.3,133.9z M364.3,289l-61.4-50.3l31.4-26.7
			c1.3-1.1,3.3-1.2,4.7,0l42.2,34.6C378,261.5,372.3,275.8,364.3,289L364.3,289z"/>
		<path d="M265.1,154.7c0,15.3,12.1,27.7,27.1,27.7c14.9,0,27.1-12.4,27.1-27.7S307.1,127,292.2,127
			C277.3,127,265.1,139.4,265.1,154.7z M305.8,154.7c0,7.7-6.1,13.9-13.6,13.9s-13.6-6.2-13.6-13.9c0-7.7,6.1-13.9,13.6-13.9
			S305.8,147,305.8,154.7z"/>
	</g>
</g>
</svg>
