<?xml version="1.0" encoding="utf-8"?>
<!-- Generator: Adobe Illustrator 24.1.2, SVG Export Plug-In . SVG Version: 6.00 Build 0)  -->
<svg version="1.1" id="Layer_1" xmlns="http://www.w3.org/2000/svg" xmlns:xlink="http://www.w3.org/1999/xlink" x="0px" y="0px"
	 viewBox="0 0 500 500" style="enable-background:new 0 0 500 500;" xml:space="preserve">
<style type="text/css">
	.st0{fill:#AEAFAF;}
	.st1{fill:#BF0020;}
</style>
<g>
	<path class="st0" d="M186.4,101.6c0-30.9,25.2-56.1,56.1-56.1h187c6.2,0,11.9,3,15.4,8.1c3.5,5.1,4.3,11.5,2.1,17.3L311.3,409.5
		c-2.7,7.3-9.7,12-17.5,12h-51.4c-30.9,0-56.1-25.2-56.1-56.1V101.6z"/>
	<path class="st1" d="M314.4,91l112.2-37.4c2.4-0.7,4.9-1.1,7.5-1.1c12.9,0,23.4,10.5,23.4,23.4v336.6c0,10.3-6.7,19.1-15.9,22.3
		l-112.2,37.4c-2.4,0.7-4.9,1.1-7.5,1.1c-12.9,0-23.4-10.5-23.4-23.4V113.3C298.5,103,305.3,94.2,314.4,91z"/>
	<path d="M207.4,220.8H106.6l46.2-46.2c5.5-5.5,5.5-14.4,0-19.8c-5.5-5.5-14.4-5.5-19.8,0l-70.1,70.1c-3.5,3.5-4.7,8.3-3.8,12.8
		c0,0,0,0,0,0c0.1,0.4,0.2,0.9,0.3,1.3c0,0.1,0.1,0.2,0.1,0.3c0.1,0.3,0.2,0.7,0.4,1c0.1,0.1,0.1,0.3,0.2,0.4
		c0.1,0.3,0.2,0.5,0.4,0.8c0.1,0.2,0.2,0.4,0.3,0.6c0.1,0.2,0.2,0.4,0.4,0.6c0.2,0.3,0.4,0.6,0.7,0.9c0.1,0.1,0.1,0.1,0.1,0.2
		c0.3,0.4,0.7,0.8,1.1,1.2l70,70c2.7,2.8,6.3,4.1,9.9,4.1c3.6,0,7.2-1.4,9.9-4.1c5.5-5.5,5.5-14.4,0-19.8l-46.2-46.2h100.8
		c7.7,0,14-6.3,14-14C221.4,227.1,215.1,220.8,207.4,220.8z"/>
	<path d="M434.1,40.7H223.8c-27.2,0-49.2,22-49.2,49.2v83.8c0,6.4,4.9,11.8,11.2,12.2c6.8,0.3,12.4-5.1,12.4-11.8V89.9
		c0-14.1,11.4-25.6,25.6-25.6h133.3l-46.4,15.5c-14.3,5-24,18.5-24,33.5v36.8c0,6.5,5.3,11.8,11.8,11.8h0c6.5,0,11.8-5.3,11.8-11.8
		v-36.8c0-4.9,3.3-9.4,8-11.1l112-37.3c1.1-0.4,2.4-0.5,3.8-0.5c6.4,0,11.5,5.3,11.5,11.6l0,336.5c0,4.9-3.3,9.4-8,11.1l-112,37.3
		c-1.1,0.4-2.4,0.5-3.8,0.5c-6.3,0-11.4-5.3-11.4-11.6l0-237c0-6.5-5.3-11.8-11.8-11.8h0c-6.5,0-11.8,5.3-11.8,11.8v192.6h-63
		c-14.1,0-25.6-11.4-25.6-25.6v-83.8c0-6.4-4.9-11.8-11.2-12.2c-6.8-0.3-12.4,5.1-12.4,11.8v84.1c0,27.2,22,49.2,49.2,49.2h63v20.5
		c0,19.5,15.6,35.5,35.1,35.6c3.8,0,7.5-0.5,11-1.6l112.5-37.5c14.3-5,24-18.5,24-33.5V75.9C469.3,56.4,453.6,40.7,434.1,40.7z"/>
	<circle cx="298.6" cy="181.4" r="11.9"/>
</g>
</svg>
