<?xml version="1.0" encoding="utf-8"?>
<!-- Generator: Adobe Illustrator 24.1.2, SVG Export Plug-In . SVG Version: 6.00 Build 0)  -->
<svg version="1.1" id="Layer_1" xmlns="http://www.w3.org/2000/svg" xmlns:xlink="http://www.w3.org/1999/xlink" x="0px" y="0px"
	 viewBox="0 0 500 500" style="enable-background:new 0 0 500 500;" xml:space="preserve">
<style type="text/css">
	.st0{fill:#B6B9BA;}
	.st1{fill:#00AD4E;}
	.st2{fill:#DADCDE;}
</style>
<g>
	<path class="st0" d="M393.8,157.6H437c8,0,14.4,6.5,14.4,14.4c0,7.9-6.5,14.4-14.4,14.4h-43.2l0,0V157.6L393.8,157.6z"/>
	<path class="st1" d="M331.3,198.3c-2.2-18.9-18.9-33.6-39.2-33.6c-2.4,0-4.7,0.2-7.1,0.6c-2.8-18.2-19.2-32.1-38.9-32.1
		c-1.7,0-3.4,0.1-5.1,0.3c-11.7-19-36.4-24.9-55.4-13.3c-5.4,3.3-10,7.9-13.3,13.3c-1.7-0.2-3.4-0.3-5.1-0.3
		c-19.8,0-36.1,13.9-38.9,32.1c-2.4-0.4-4.7-0.6-7.1-0.6c-20.3,0-37,14.7-39.2,33.6c-15.4,5.1-26.5,19.2-26.5,35.7
		c0,20.9,17.7,37.8,39.4,37.8c4.2,0,8.4-0.7,12.4-1.9c18.6,27.4,56.1,46,99.3,46s80.7-18.7,99.3-46c4,1.3,8.2,2,12.4,1.9
		c21.7,0,39.4-16.9,39.4-37.8C357.8,217.5,346.7,203.5,331.3,198.3L331.3,198.3z"/>
	<path class="st2" d="M365,344.7l-237.5,43.2L48.2,272.8h331.1L365,344.7z"/>
	
		<ellipse transform="matrix(7.088901e-02 -0.9975 0.9975 7.088901e-02 -268.5961 487.6004)" class="st0" cx="127.4" cy="388" rx="43.2" ry="43.2"/>
	<circle class="st0" cx="127.4" cy="388" r="14.4"/>
	<path class="st0" d="M48.2,244h345.6c8,0,14.4,6.5,14.4,14.4l0,0c0,8-6.5,14.4-14.4,14.4H48.2c-8,0-14.4-6.5-14.4-14.4l0,0
		C33.8,250.5,40.3,244,48.2,244z"/>
	<path d="M127.4,409.5c11.9,0,21.6-9.7,21.6-21.6c0-11.9-9.7-21.6-21.6-21.6s-21.6,9.7-21.6,21.6
		C105.9,399.8,115.6,409.5,127.4,409.5z M127.4,380.7c4,0,7.2,3.2,7.2,7.2c0,4-3.2,7.2-7.2,7.2c-4,0-7.2-3.2-7.2-7.2
		C120.3,383.9,123.5,380.7,127.4,380.7z"/>
	<path d="M26.7,431.2c0,4,3.2,7.2,7.2,7.2h388.7c4,0,7.2-3.2,7.2-7.2c0-4-3.2-7.2-7.2-7.2h-65.3c1.7-3,2.8-6.2,3.4-9.6L385.3,280
		h8.5c11.9-0.1,21.5-9.9,21.4-21.8c-0.1-11.6-9.2-21-20.8-21.4l3.6-43.2h38.9c11.9,0,21.6-9.7,21.6-21.6s-9.7-21.6-21.6-21.6h-43.1
		l0,0c-3.8,0-6.9,2.8-7.1,6.6l0,0l-6.7,79.8H365c0.1-0.9,0.1-1.8,0.1-2.7c0-17.8-10.8-33.7-27.4-40.9c-4.5-20.5-23.4-35.6-45.6-35.6
		c-0.5,0-1,0-1.5,0c-6-18.3-24.1-31.5-44.5-31.5c-0.5,0-0.9,0-1.4,0c-15.8-21-45.7-25.1-66.7-9.3c-3.5,2.6-6.7,5.7-9.3,9.3
		c-0.5,0-0.9,0-1.4,0c-20.4,0-38.5,13.2-44.5,31.5c-0.5,0-1,0-1.5,0c-22.2,0-41,15-45.6,35.6c-16.5,7.2-27.3,23.2-27.3,40.9
		c0,0.9,0,1.8,0.1,2.7h-0.1c-11.9,0-21.5,9.7-21.5,21.6c0,10.3,7.3,19.3,17.5,21.2l49.1,71.4c-20.4,18.8-21.7,50.6-2.9,71
		c0.6,0.7,1.2,1.3,1.9,2H34C29.9,423.9,26.7,427.2,26.7,431.2L26.7,431.2z M400.4,164.8H437c4,0,7.2,3.2,7.2,7.2
		c0,4-3.2,7.2-7.2,7.2h-37.7L400.4,164.8z M162.7,423.9c9.7-9.5,15.1-22.5,15.1-36c0-0.7,0-1.2,0-1.9l89-16.2l-1.1,0.8l41.4,53.1
		L162.7,423.9L162.7,423.9z M346.5,412c-1.3,7.8-8.7,13.1-16.6,11.8c-3.6-0.6-6.8-2.5-8.9-5.4l-39.8-51.1l75-13.6L346.5,412z
		 M84.3,205.2c2.6-0.8,4.6-3.2,4.9-6c1.8-15.5,15.6-27.2,32.1-27.2c2,0,3.9,0.2,5.8,0.5c4,0.7,7.6-2,8.3-5.8v-0.1
		c2.4-14.9,16.1-26.1,31.9-26.1c1.4,0,2.8,0.1,4.2,0.3c2.8,0.4,5.6-1,7.1-3.5c9.6-15.5,30-20.3,45.5-10.7c4.3,2.7,8,6.4,10.7,10.7
		c1.4,2.4,4.2,3.9,7.1,3.5c1.4-0.2,2.8-0.3,4.2-0.3c15.8,0,29.5,11.2,31.9,26.1c0.7,4,4.3,6.6,8.2,6h0.1c1.9-0.4,3.9-0.5,5.8-0.5
		c16.5,0,30.2,11.7,32.1,27.2c0.3,2.8,2.3,5.1,4.9,6c12.9,4.3,21.6,15.9,21.6,28.9c0,0.9-0.1,1.8-0.1,2.7H62.8
		c-0.1-0.9-0.1-1.8-0.1-2.7C62.7,221.1,71.4,209.5,84.3,205.2L84.3,205.2z M41.1,258.4c0-4,3.2-7.1,7.2-7.2h345.5
		c4,0,7.2,3.2,7.2,7.2c0,4-3.2,7.2-7.2,7.2H48.2C44.3,265.6,41.1,262.3,41.1,258.4z M62,280h308.6l-11.8,58.6L175.1,372
		c-8.8-26.3-37.3-40.6-63.7-31.8c-2.2,0.8-4.3,1.6-6.4,2.6L62,280z M91.5,388c0-19.8,16.1-36,36-36c19.8,0,36,16.1,36,36
		c0,19.8-16.1,36-36,36l0,0C107.6,423.9,91.5,407.8,91.5,388z"/>
</g>
<path class="st1" d="M317.6,85.6c2.1-2.1,5.5-2.1,7.6,0c2.1,2.1,2.1,5.5,0,7.6l-19.4,19.4c-2.1,2.1-5.5,2.1-7.6,0l-12.4-12.4
	c-2.1-2.1-2.1-5.5,0-7.6c2.1-2.1,5.5-2.1,7.6,0l8.6,8.6L317.6,85.6z"/>
<path d="M361.8,75.6c-4,0-7.2-3.2-7.2-7.2c0-4,3.2-7.2,7.2-7.2h89.6c4,0,7.2,3.2,7.2,7.2s-3.2,7.2-7.2,7.2H361.8z"/>
<path d="M361.8,137c-4,0-7.2-3.2-7.2-7.2c0-4,3.2-7.2,7.2-7.2h60.4c4,0,7.2,3.2,7.2,7.2c0,4-3.2,7.2-7.2,7.2H361.8z"/>
<path d="M361.8,106.3c-4,0-7.2-3.2-7.2-7.2s3.2-7.2,7.2-7.2h89.6c4,0,7.2,3.2,7.2,7.2s-3.2,7.2-7.2,7.2H361.8z"/>
<path d="M335.1,61.3h-59.3c-4.5,0-8.2,3.7-8.2,8.2v35.1c0,1.2,0.5,2.3,1.3,3.1c0,0,0.1,0.1,0.1,0.1c2.8,2.8,7.5,0.8,7.5-3.1V72.3
	c0-1.2,0.9-2.1,2.1-2.1h53.8c1.2,0,2.1,0.9,2.1,2.1v53.8c0,1.2-0.9,2.1-2.1,2.1h-32.7c-3.9,0-5.8,4.7-3.1,7.5c0,0,0.1,0.1,0.1,0.1
	c0.8,0.8,1.9,1.3,3.1,1.3h35.4c4.5,0,8.2-3.7,8.2-8.2V69.5C343.4,65,339.7,61.3,335.1,61.3z"/>
</svg>
