<?xml version="1.0" encoding="utf-8"?>
<!-- Generator: Adobe Illustrator 24.1.2, SVG Export Plug-In . SVG Version: 6.00 Build 0)  -->
<svg version="1.1" id="Layer_1" xmlns="http://www.w3.org/2000/svg" xmlns:xlink="http://www.w3.org/1999/xlink" x="0px" y="0px"
	 viewBox="0 0 500 500" style="enable-background:new 0 0 500 500;" xml:space="preserve">
<style type="text/css">
	.st0{fill:#B6B9BA;}
	.st1{fill:#00AD4E;}
	.st2{fill:#DADCDE;}
	.st3{fill:#BD0005;}
</style>
<g>
	<g>
		<path class="st0" d="M90.8,156.8v28.8l0,0H47.6c-7.9,0-14.4-6.5-14.4-14.4s6.4-14.4,14.4-14.4H90.8L90.8,156.8z"/>
		<path class="st1" d="M153.3,197.5c-15.4,5.2-26.5,19.2-26.4,35.7c0,20.9,17.7,37.8,39.4,37.8c4.2,0.1,8.4-0.6,12.4-1.9
			c18.6,27.3,56.1,46,99.3,46s80.7-18.6,99.3-46c4,1.2,8.2,1.9,12.4,1.9c21.7,0,39.4-16.9,39.4-37.8c0-16.5-11.1-30.6-26.5-35.7
			c-2.2-18.9-18.9-33.6-39.2-33.6c-2.4,0-4.7,0.2-7.1,0.6c-2.8-18.2-19.1-32.1-38.9-32.1c-1.7,0-3.4,0.1-5.1,0.3
			c-3.3-5.4-7.9-10-13.3-13.3c-19-11.6-43.7-5.7-55.4,13.3c-1.7-0.2-3.4-0.3-5.1-0.3c-19.7,0-36.1,13.9-38.9,32.1
			c-2.4-0.4-4.7-0.6-7.1-0.6C172.2,163.9,155.5,178.6,153.3,197.5L153.3,197.5z"/>
		<path class="st2" d="M105.3,272h331.1l-79.3,115.1l-237.5-43.2L105.3,272z"/>
		<ellipse class="st0" cx="357.2" cy="387.2" rx="43.2" ry="43.2"/>
		<circle class="st0" cx="357.2" cy="387.2" r="14.4"/>
		<path class="st0" d="M450.8,257.6L450.8,257.6c0,7.9-6.4,14.4-14.4,14.4H90.8c-7.9,0-14.4-6.4-14.4-14.4l0,0
			c0-7.9,6.4-14.4,14.4-14.4h345.6C444.3,243.2,450.8,249.7,450.8,257.6z"/>
		<path d="M378.8,387.1c0-11.9-9.7-21.6-21.6-21.6c-11.9,0-21.6,9.7-21.6,21.6s9.7,21.6,21.6,21.6C369,408.7,378.7,399,378.8,387.1z
			 M364.4,387.1c0,4-3.2,7.2-7.2,7.2s-7.2-3.2-7.2-7.2s3.2-7.2,7.2-7.2C361.1,379.9,364.3,383.1,364.4,387.1z"/>
		<path d="M457.9,430.4c0-4-3.2-7.3-7.3-7.2h-58.5c0.7-0.7,1.3-1.3,1.9-2c18.8-20.4,17.5-52.2-2.9-71l49.1-71.4
			c10.2-1.9,17.5-10.9,17.5-21.2c0-11.9-9.6-21.6-21.5-21.6h-0.1c0.1-0.9,0.1-1.8,0.1-2.7c0-17.7-10.8-33.7-27.3-40.9
			c-4.6-20.6-23.4-35.6-45.6-35.6c-0.5,0-1,0-1.5,0c-6-18.3-24.1-31.5-44.5-31.5c-0.5,0-0.9,0-1.4,0c-2.6-3.6-5.8-6.7-9.3-9.3
			c-21-15.8-50.9-11.7-66.7,9.3c-0.5,0-0.9,0-1.4,0c-20.4,0-38.5,13.2-44.5,31.5c-0.5,0-1,0-1.5,0c-22.2,0-41.1,15.1-45.6,35.6
			c-16.6,7.2-27.4,23.1-27.4,40.9c0,0.9,0,1.8,0.1,2.7h-15l-6.7-79.8l0,0c-0.2-3.8-3.3-6.6-7.1-6.6l0,0H47.7
			c-11.9,0-21.6,9.7-21.6,21.6s9.7,21.6,21.6,21.6h38.9l3.6,43.2c-11.6,0.4-20.7,9.8-20.8,21.4c-0.1,11.9,9.5,21.7,21.4,21.8h8.5
			l24.6,134.4c0.6,3.4,1.7,6.6,3.4,9.6H62c-4,0-7.2,3.2-7.2,7.2s3.2,7.2,7.2,7.2h388.7C454.7,437.6,457.9,434.4,457.9,430.4
			L457.9,430.4z M85.3,178.4H47.6c-4,0-7.2-3.2-7.2-7.2s3.2-7.2,7.2-7.2h36.6L85.3,178.4z M321.9,423.1l-144.4-0.2l41.4-53.1
			l-1.1-0.8l89,16.2c0,0.7,0,1.2,0,1.9C306.8,400.6,312.2,413.6,321.9,423.1L321.9,423.1z M128.4,352.9l75,13.6l-39.8,51.1
			c-2.1,2.9-5.3,4.8-8.9,5.4c-7.9,1.3-15.3-4-16.6-11.8L128.4,352.9z M400.3,204.4c12.9,4.3,21.6,15.9,21.6,29c0,0.9,0,1.8-0.1,2.7
			H134c0-0.9-0.1-1.8-0.1-2.7c0-13,8.7-24.6,21.6-28.9c2.6-0.9,4.6-3.2,4.9-6c1.9-15.5,15.6-27.2,32.1-27.2c1.9,0,3.9,0.1,5.8,0.5
			h0.1c3.9,0.6,7.5-2,8.2-6c2.4-14.9,16.1-26.1,31.9-26.1c1.4,0,2.8,0.1,4.2,0.3c2.9,0.4,5.7-1.1,7.1-3.5c2.7-4.3,6.4-8,10.7-10.7
			c15.5-9.6,35.9-4.8,45.5,10.7c1.5,2.5,4.3,3.9,7.1,3.5c1.4-0.2,2.8-0.3,4.2-0.3c15.8,0,29.5,11.2,31.9,26.1v0.1
			c0.7,3.8,4.3,6.5,8.3,5.8c1.9-0.3,3.8-0.5,5.8-0.5c16.5,0,30.3,11.7,32.1,27.2C395.7,201.2,397.7,203.6,400.3,204.4L400.3,204.4z
			 M436.4,264.8H90.8c-4,0-7.2-3.2-7.2-7.2s3.2-7.2,7.2-7.2h345.5c4,0.1,7.2,3.2,7.2,7.2C443.5,261.5,440.3,264.8,436.4,264.8z
			 M379.6,342c-2.1-1-4.2-1.8-6.4-2.6c-26.4-8.8-54.9,5.5-63.7,31.8l-183.7-33.4L114,279.2h308.6L379.6,342z M357.1,423.2
			L357.1,423.2c-19.9,0-36-16.2-36-36c0-19.9,16.2-36,36-36c19.9,0,36,16.2,36,36S377,423.1,357.1,423.2z"/>
	</g>
	<path d="M33.2,74.8c-4,0-7.2-3.2-7.2-7.2s3.2-7.2,7.2-7.2h89.6c4,0,7.2,3.2,7.2,7.2s-3.2,7.2-7.2,7.2H33.2z"/>
	<path d="M62.4,136.2c-4,0-7.2-3.2-7.2-7.2c0-4,3.2-7.2,7.2-7.2h60.4c4,0,7.2,3.2,7.2,7.2c0,4-3.2,7.2-7.2,7.2H62.4z"/>
	<path d="M33.2,105.5c-4,0-7.2-3.2-7.2-7.2s3.2-7.2,7.2-7.2h89.6c4,0,7.2,3.2,7.2,7.2s-3.2,7.2-7.2,7.2H33.2z"/>
	<path d="M141.2,68.7v59.4c0,4.5,3.7,8.2,8.2,8.2h35.4c1.2,0,2.3-0.5,3.1-1.3l0.1-0.1c2.7-2.8,0.8-7.5-3.1-7.5h-32.7
		c-1.2,0-2.1-0.9-2.1-2.1V71.5c0-1.2,0.9-2.1,2.1-2.1H206c1.2,0,2.1,0.9,2.1,2.1v32.4c0,3.9,4.7,5.9,7.5,3.1l0.1-0.1
		c0.8-0.8,1.3-1.9,1.3-3.1V68.7c0-4.5-3.7-8.2-8.2-8.2h-59.3C144.9,60.5,141.2,64.2,141.2,68.7z"/>
	<path class="st3" d="M187.3,99l10.2-10.2c2.1-2.1,2.1-5.6,0-7.7c-2.1-2.1-5.6-2.1-7.7,0l-10.2,10.2L169.3,81
		c-2.1-2.1-5.6-2.1-7.7,0s-2.1,5.6,0,7.7L171.8,99l-10.2,10.2c-2.1,2.1-2.1,5.6,0,7.7c2.1,2.1,5.6,2.1,7.7,0l10.2-10.2l10.2,10.2
		c2.1,2.1,5.6,2.1,7.7,0c2.1-2.1,2.1-5.6,0-7.7L187.3,99z"/>
</g>
</svg>
