<?xml version="1.0" encoding="utf-8"?>
<!-- Generator: Adobe Illustrator 24.1.2, SVG Export Plug-In . SVG Version: 6.00 Build 0)  -->
<svg version="1.1" id="Layer_1" xmlns="http://www.w3.org/2000/svg" xmlns:xlink="http://www.w3.org/1999/xlink" x="0px" y="0px"
	 viewBox="0 0 500 500" style="enable-background:new 0 0 500 500;" xml:space="preserve">
<style type="text/css">
	.st0{fill:#B6B9BA;}
	.st1{fill:#DADCDE;}
	.st2{fill:#00AD4E;}
</style>
<path class="st0" d="M412.3,136.2h45.9c8.5,0,15.3,6.9,15.3,15.3s-6.9,15.3-15.3,15.3h-45.9l0,0V136.2L412.3,136.2z"/>
<path class="st1" d="M381.6,335.1L129.1,381L44.9,258.6h352L381.6,335.1z"/>
<ellipse transform="matrix(7.088901e-02 -0.9975 0.9975 7.088901e-02 -260.1534 482.8334)" class="st0" cx="129.1" cy="381.1" rx="45.9" ry="45.9"/>
<circle class="st0" cx="129.1" cy="381.1" r="15.3"/>
<path class="st0" d="M44.9,228h367.4c8.5,0,15.3,6.9,15.3,15.3l0,0c0,8.5-6.9,15.3-15.3,15.3H44.9c-8.5,0-15.3-6.9-15.3-15.3l0,0
	C29.6,234.9,36.5,228,44.9,228z"/>
<path d="M129.1,404c12.7,0,23-10.3,23-23s-10.3-23-23-23s-23,10.3-23,23C106.2,393.7,116.5,404,129.1,404z M129.1,373.4
	c4.2,0,7.7,3.4,7.7,7.7c0,4.2-3.4,7.7-7.7,7.7c-4.2,0-7.7-3.4-7.7-7.7C121.5,376.8,124.9,373.4,129.1,373.4z"/>
<path d="M22,427c0,4.2,3.4,7.7,7.7,7.7h413.2c4.2,0,7.7-3.4,7.7-7.7c0-4.2-3.4-7.7-7.7-7.7h-69.4c1.8-3.2,3-6.6,3.6-10.2l26.1-142.8
	h9c12.7-0.1,22.9-10.5,22.8-23.2c-0.1-12.3-9.8-22.3-22.1-22.7l3.8-45.9h41.4c12.7,0,23-10.3,23-23s-10.3-23-23-23h-45.8l0,0
	c-4,0-7.3,3-7.6,7l0,0l-7.1,84.8h-16c0.1-1,0.1-1.9,0.1-2.9c0-18.9-11.5-35.8-29.1-43.5c-4.8-21.8-24.9-37.8-48.5-37.8
	c-0.5,0-1.1,0-1.6,0c-6.4-19.5-25.6-33.5-47.3-33.5c-0.5,0-1,0-1.5,0c-16.8-22.3-48.6-26.7-70.9-9.9c-3.7,2.8-7.1,6.1-9.9,9.9
	c-0.5,0-1,0-1.5,0c-21.7,0-40.9,14-47.3,33.5c-0.5,0-1.1,0-1.6,0c-23.6,0-43.6,15.9-48.5,37.8c-17.5,7.7-29,24.7-29,43.5
	c0,1,0,1.9,0.1,2.9H45c-12.7,0-22.9,10.3-22.9,23c0,11,7.8,20.5,18.6,22.5l52.2,75.9c-21.7,20-23.1,53.8-3.1,75.5
	c0.6,0.7,1.3,1.4,2,2.1h-62C25.4,419.3,22,422.8,22,427L22,427z M419.3,143.8h38.9c4.2,0,7.7,3.4,7.7,7.7c0,4.2-3.4,7.7-7.7,7.7
	h-40.1L419.3,143.8z M166.6,419.3c10.3-10.1,16.1-23.9,16.1-38.3c0-0.7,0-1.3,0-2l94.6-17.2l-1.2,0.9l44,56.5H166.6V419.3z
	 M362,406.6c-1.4,8.3-9.2,13.9-17.6,12.5c-3.8-0.6-7.2-2.7-9.5-5.7l-42.3-54.3l79.7-14.5L362,406.6z M83.2,186.8
	c2.8-0.9,4.9-3.4,5.2-6.4c1.9-16.5,16.6-28.9,34.1-28.9c2.1,0,4.1,0.2,6.2,0.5c4.2,0.7,8.1-2.1,8.8-6.2v-0.1
	c2.5-15.8,17.1-27.7,33.9-27.7c1.5,0,3,0.1,4.5,0.3c3,0.4,6-1.1,7.5-3.7c10.2-16.5,31.9-21.6,48.4-11.4c4.6,2.9,8.5,6.8,11.4,11.4
	c1.5,2.6,4.5,4.1,7.5,3.7c1.5-0.2,3-0.3,4.5-0.3c16.8,0,31.4,11.9,33.9,27.7c0.7,4.2,4.6,7,8.7,6.4h0.1c2-0.4,4.1-0.5,6.2-0.5
	c17.5,0,32.1,12.4,34.1,28.9c0.3,3,2.4,5.4,5.2,6.4c13.7,4.6,23,16.9,23,30.7c0,1-0.1,1.9-0.1,2.9H60.4c-0.1-1-0.1-1.9-0.1-2.9
	C60.3,203.7,69.5,191.4,83.2,186.8L83.2,186.8z M37.3,243.3c0-4.2,3.4-7.6,7.7-7.7h367.3c4.2,0,7.7,3.4,7.7,7.7
	c0,4.2-3.4,7.7-7.7,7.7H44.9C40.7,251,37.3,247.5,37.3,243.3z M59.5,266.3h328.1l-12.5,62.3l-195.3,35.5
	c-9.4-28-39.7-43.2-67.7-33.8c-2.3,0.8-4.6,1.7-6.8,2.8L59.5,266.3z M90.9,381.1c0-21.1,17.1-38.3,38.3-38.3
	c21.1,0,38.3,17.1,38.3,38.3c0,21.1-17.1,38.3-38.3,38.3l0,0C108,419.3,90.9,402.2,90.9,381.1z"/>
<path class="st2" d="M331.3,56.9c6.3-6.3,16.5-6.3,22.9,0c6.3,6.3,6.3,16.5,0,22.9L229.6,204.4c-6.3,6.3-16.5,6.3-22.9,0l-44.8-44.8
	c-6.3-6.3-6.3-16.5,0-22.9s16.5-6.3,22.9,0l33.3,33.3L331.3,56.9z"/>
</svg>
