<?xml version="1.0" encoding="utf-8"?>
<!-- Generator: Adobe Illustrator 24.1.2, SVG Export Plug-In . SVG Version: 6.00 Build 0)  -->
<svg version="1.1" id="Layer_1" xmlns="http://www.w3.org/2000/svg" xmlns:xlink="http://www.w3.org/1999/xlink" x="0px" y="0px"
	 viewBox="0 0 500 500" style="enable-background:new 0 0 500 500;" xml:space="preserve">
<style type="text/css">
	.st0{fill:#B6B9BA;}
	.st1{fill:#00AD4E;}
	.st2{fill:#DADCDE;}
	.st3{fill:#BD0005;}
</style>
<g>
	<path class="st0" d="M407.3,167.7h45.9c8.5,0,15.3,6.9,15.3,15.3s-6.9,15.3-15.3,15.3h-45.9l0,0V167.7L407.3,167.7z"/>
	<path class="st1" d="M340.8,211c-2.3-20.1-20.1-35.7-41.7-35.7c-2.5,0-5,0.2-7.5,0.6c-3-19.3-20.4-34.1-41.4-34.1
		c-1.8,0-3.6,0.1-5.4,0.3c-12.4-20.2-38.7-26.5-58.9-14.1c-5.7,3.5-10.6,8.4-14.1,14.1c-1.8-0.2-3.6-0.3-5.4-0.3
		c-21,0-38.4,14.8-41.4,34.1c-2.5-0.4-5-0.6-7.5-0.6c-21.6,0-39.3,15.6-41.7,35.7c-16.4,5.4-28.2,20.4-28.2,38
		c0,22.2,18.8,40.2,41.9,40.2c4.5,0,8.9-0.7,13.2-2c19.8,29.1,59.6,48.9,105.6,48.9s85.8-19.9,105.6-48.9c4.3,1.4,8.7,2.1,13.2,2
		c23.1,0,41.9-18,41.9-40.2C369,231.4,357.2,216.5,340.8,211L340.8,211z"/>
	<path class="st2" d="M376.6,366.6l-252.5,45.9L39.9,290.1h352L376.6,366.6z"/>
	
		<ellipse transform="matrix(7.088901e-02 -0.9975 0.9975 7.088901e-02 -296.2384 507.1394)" class="st0" cx="124.1" cy="412.6" rx="45.9" ry="45.9"/>
	<circle class="st0" cx="124.1" cy="412.6" r="15.3"/>
	<path class="st0" d="M39.9,259.5h367.4c8.5,0,15.3,6.9,15.3,15.3l0,0c0,8.5-6.9,15.3-15.3,15.3H39.9c-8.5,0-15.3-6.9-15.3-15.3l0,0
		C24.6,266.4,31.5,259.5,39.9,259.5z"/>
	<path d="M124.1,435.5c12.7,0,23-10.3,23-23s-10.3-23-23-23s-23,10.3-23,23C101.2,425.2,111.5,435.5,124.1,435.5z M124.1,404.9
		c4.2,0,7.7,3.4,7.7,7.7c0,4.2-3.4,7.7-7.7,7.7c-4.2,0-7.7-3.4-7.7-7.7C116.5,408.3,119.9,404.9,124.1,404.9z"/>
	<path d="M17,458.5c0,4.2,3.4,7.7,7.7,7.7h413.2c4.2,0,7.7-3.4,7.7-7.7c0-4.2-3.4-7.7-7.7-7.7h-69.4c1.8-3.2,3-6.6,3.6-10.2
		l26.1-142.8h9c12.7-0.1,22.9-10.5,22.8-23.2c-0.1-12.3-9.8-22.3-22.1-22.7l3.8-45.9h41.4c12.7,0,23-10.3,23-23s-10.3-23-23-23
		h-45.8l0,0c-4,0-7.3,3-7.6,7l0,0l-7.1,84.8h-16c0.1-1,0.1-1.9,0.1-2.9c0-18.9-11.5-35.8-29.1-43.5c-4.8-21.8-24.9-37.8-48.5-37.8
		c-0.5,0-1.1,0-1.6,0c-6.4-19.5-25.6-33.5-47.3-33.5c-0.5,0-1,0-1.5,0c-16.8-22.3-48.6-26.7-70.9-9.9c-3.7,2.8-7.1,6.1-9.9,9.9
		c-0.5,0-1,0-1.5,0c-21.7,0-40.9,14-47.3,33.5c-0.5,0-1.1,0-1.6,0c-23.6,0-43.6,15.9-48.5,37.8c-17.5,7.7-29,24.7-29,43.5
		c0,1,0,1.9,0.1,2.9H40c-12.7,0-22.9,10.3-22.9,23c0,11,7.8,20.5,18.6,22.5l52.2,75.9c-21.7,20-23.1,53.8-3.1,75.5
		c0.6,0.7,1.3,1.4,2,2.1h-62C20.4,450.8,17,454.3,17,458.5L17,458.5z M414.3,175.3h38.9c4.2,0,7.7,3.4,7.7,7.7
		c0,4.2-3.4,7.7-7.7,7.7h-40.1L414.3,175.3z M161.6,450.8c10.3-10.1,16.1-23.9,16.1-38.3c0-0.7,0-1.3,0-2l94.6-17.2l-1.2,0.9
		l44,56.5H161.6V450.8z M357,438.1c-1.4,8.3-9.2,13.9-17.6,12.5c-3.8-0.6-7.2-2.7-9.5-5.7l-42.3-54.3l79.7-14.5L357,438.1z
		 M78.2,218.3c2.8-0.9,4.9-3.4,5.2-6.4c1.9-16.5,16.6-28.9,34.1-28.9c2.1,0,4.1,0.2,6.2,0.5c4.2,0.7,8.1-2.1,8.8-6.2v-0.1
		c2.5-15.8,17.1-27.7,33.9-27.7c1.5,0,3,0.1,4.5,0.3c3,0.4,6-1.1,7.5-3.7c10.2-16.5,31.9-21.6,48.4-11.4c4.6,2.9,8.5,6.8,11.4,11.4
		c1.5,2.6,4.5,4.1,7.5,3.7c1.5-0.2,3-0.3,4.5-0.3c16.8,0,31.4,11.9,33.9,27.7c0.7,4.2,4.6,7,8.7,6.4h0.1c2-0.4,4.1-0.5,6.2-0.5
		c17.5,0,32.1,12.4,34.1,28.9c0.3,3,2.4,5.4,5.2,6.4c13.7,4.6,23,16.9,23,30.7c0,1-0.1,1.9-0.1,2.9H55.4c-0.1-1-0.1-1.9-0.1-2.9
		C55.3,235.2,64.5,222.9,78.2,218.3L78.2,218.3z M32.3,274.8c0-4.2,3.4-7.6,7.7-7.7h367.3c4.2,0,7.7,3.4,7.7,7.7
		c0,4.2-3.4,7.7-7.7,7.7H39.9C35.7,282.5,32.3,279,32.3,274.8z M54.5,297.8h328.1l-12.5,62.3l-195.3,35.5
		c-9.4-28-39.7-43.2-67.7-33.8c-2.3,0.8-4.6,1.7-6.8,2.8L54.5,297.8z M85.9,412.6c0-21.1,17.1-38.3,38.3-38.3
		c21.1,0,38.3,17.1,38.3,38.3c0,21.1-17.1,38.3-38.3,38.3l0,0C103,450.8,85.9,433.7,85.9,412.6z"/>
</g>
<g>
	<g>
		<circle class="st3" cx="390.9" cy="114.2" r="29.4"/>
		<g>
			<path d="M424,101.5V40.2c0-7.1-5.8-12.9-12.9-12.9h-16.9v-4.9c0-2.4-1.9-4.3-4.3-4.3c-2.4,0-4.3,1.9-4.3,4.3v4.9h-28.1v-4.9
				c0-2.4-1.9-4.3-4.3-4.3s-4.3,1.9-4.3,4.3v4.9h-28.1v-4.9c0-2.4-1.9-4.3-4.3-4.3c-2.4,0-4.3,1.9-4.3,4.3v4.9h-19.5
				c-7.1,0-12.9,5.8-12.9,12.9v79.2c0,7.1,5.8,12.9,12.9,12.9h66.8c6.1,10.9,17.9,18.4,31.3,18.4c19.8,0,35.9-16.1,35.9-35.9
				C426.6,110.1,425.6,105.6,424,101.5z M355.9,123.7h-63.4c-2.4,0-4.3-1.9-4.3-4.3V40.2c0-2.4,1.9-4.3,4.3-4.3h19.5v5.2
				c0,2.4,1.9,4.3,4.3,4.3c2.4,0,4.3-1.9,4.3-4.3v-5.2h28.1v5.2c0,2.4,1.9,4.3,4.3,4.3s4.3-1.9,4.3-4.3v-5.2h28.1v5.2
				c0,2.4,1.9,4.3,4.3,4.3c2.4,0,4.3-1.9,4.3-4.3v-5.2h16.9c2.4,0,4.3,1.9,4.3,4.3v48.6c-6.4-6.1-15.1-9.9-24.7-9.9
				c-19.8,0-35.9,16.1-35.9,35.9C354.8,117.9,355.2,120.9,355.9,123.7z M390.7,142.1c-15,0-27.3-12.2-27.3-27.3
				c0-13.6,10-24.8,23-26.9v26.9c0,2.4,1.9,4.3,4.3,4.3h26.9C415.5,132.1,404.3,142.1,390.7,142.1z M395,110.5V87.9
				c11.6,1.8,20.8,11,22.6,22.6H395z"/>
			<path d="M309.5,60h-6.9c-2.4,0-4.3,1.9-4.3,4.3c0,2.4,1.9,4.3,4.3,4.3h6.9c2.4,0,4.3-1.9,4.3-4.3C313.8,62,311.9,60,309.5,60z"/>
			<path d="M334.7,60h-6.9c-2.4,0-4.3,1.9-4.3,4.3c0,2.4,1.9,4.3,4.3,4.3h6.9c2.4,0,4.3-1.9,4.3-4.3C339,62,337.1,60,334.7,60z"/>
			<path d="M360,60h-6.9c-2.4,0-4.3,1.9-4.3,4.3c0,2.4,1.9,4.3,4.3,4.3h6.9c2.4,0,4.3-1.9,4.3-4.3C364.3,62,362.4,60,360,60z"/>
			<path d="M334.7,78.4h-6.9c-2.4,0-4.3,1.9-4.3,4.3s1.9,4.3,4.3,4.3h6.9c2.4,0,4.3-1.9,4.3-4.3S337.1,78.4,334.7,78.4z"/>
			<path d="M360,78.4h-6.9c-2.4,0-4.3,1.9-4.3,4.3s1.9,4.3,4.3,4.3h6.9c2.4,0,4.3-1.9,4.3-4.3S362.4,78.4,360,78.4z"/>
			<path d="M309.5,78.4h-6.9c-2.4,0-4.3,1.9-4.3,4.3s1.9,4.3,4.3,4.3h6.9c2.4,0,4.3-1.9,4.3-4.3S311.9,78.4,309.5,78.4z"/>
			<path d="M309.5,96.8h-6.9c-2.4,0-4.3,1.9-4.3,4.3s1.9,4.3,4.3,4.3h6.9c2.4,0,4.3-1.9,4.3-4.3S311.9,96.8,309.5,96.8z"/>
			<path d="M334.7,96.8h-6.9c-2.4,0-4.3,1.9-4.3,4.3s1.9,4.3,4.3,4.3h6.9c2.4,0,4.3-1.9,4.3-4.3S337.1,96.8,334.7,96.8z"/>
			<path d="M378.3,68.7h6.9c2.4,0,4.3-1.9,4.3-4.3c0-2.4-1.9-4.3-4.3-4.3h-6.9c-2.4,0-4.3,1.9-4.3,4.3C374,66.7,376,68.7,378.3,68.7
				z"/>
		</g>
	</g>
	<path class="st3" d="M433.4,11.1l-141,126.3c-1.6,1.5-1.7,4.1,0,6c1.6,1.8,4.3,2.1,5.9,0.6l141-126.3c1.6-1.5,1.7-4.1,0-6
		C437.7,9.9,435.1,9.7,433.4,11.1z"/>
</g>
</svg>
