<?xml version="1.0" encoding="utf-8"?>
<!-- Generator: Adobe Illustrator 24.1.2, SVG Export Plug-In . SVG Version: 6.00 Build 0)  -->
<svg version="1.1" id="Layer_1" xmlns="http://www.w3.org/2000/svg" xmlns:xlink="http://www.w3.org/1999/xlink" x="0px" y="0px"
	 viewBox="0 0 500 500" style="enable-background:new 0 0 500 500;" xml:space="preserve">
<style type="text/css">
	.st0{fill:#00AD4E;}
	.st1{fill:#B6B9BA;}
</style>
<g>
	<g>
		<g>
			<path class="st0" d="M177.8,437.3l-3.2,7.8L177.8,437.3c-4.3-1.8-9.3,0.3-11,4.7c-1.7,4.3,0.3,9.2,4.7,11l0.3,0.1
				c1,0.4,2,0.6,3,0.6c3.4,0,6.6-2.1,7.9-5.4C184.3,443.9,182.2,439,177.8,437.3z"/>
		</g>
	</g>
	<g>
		<g>
			<path class="st0" d="M332.9,51.9l-0.2-0.1c-4.3-1.7-9.2,0.4-11,4.7c-1.7,4.3,0.4,9.2,4.7,11l0.1,0c1,0.4,2.1,0.6,3.2,0.6
				c3.3,0,6.5-2,7.8-5.3C339.3,58.6,337.2,53.7,332.9,51.9z"/>
		</g>
	</g>
	<path class="st0" d="M223.8,343.9c0,0-32.1-11.2-33.5-14c-1.4-2.8-14.7-22.4-15.4-25.1c-0.7-2.8-11.1-39.2-11.1-39.2l24.5-13.2
		c0,0-10.5-18.1-13.3-24.4c-2.8-6.3-13.9-32.1-11.1-34.2c2.8-2.1,1.3-9.3,11.1-13c9.8-3.7,33,2.9,34.3,4.1s13.2,13.8,14.6,6.8
		c1.4-7-4.9-19.6-4.9-27.9c0-8.4,1.4-22.9,2.1-26.1c0.7-3.2,16.1-23.6,18.9-27s14.7-13.5,14.7-13.5s12.6,15.9,16.8,20.3
		c4.2,4.4,16.1,32.4,16.1,32.4l-6.3,35.1l36.3-10l20.8,10c0,0,1.3,19.5-0.7,21.9c-2,2.4-24.3,49.1-24.3,49.1l25,5.7l0.4,32.1
		L316,334.4c0,0-41.9,17-44.7,16.8c-2.9-0.2-13.2-5.8-16.7-5.8"/>
	<g>
		<g>
			<path d="M342.9,257.7c-0.7-2.5-2.7-4.6-5.2-5.6c-0.5-0.2-4.7-1.7-11.1-2.6c27.6-29.4,18.5-63.7,16.3-70.4
				c-0.7-2.5-2.7-4.6-5.2-5.6c-1.2-0.4-21.9-7.7-45.4,0.5c1.3-5.5,2.1-11.5,2.1-18c0-42.1-31.9-60.6-38.3-63.9
				c-2.3-1.3-5.2-1.4-7.6-0.2c-1.6,0.7-38.8,18.5-38.8,64.1c0,6.6,0.8,12.6,2.1,18.1c-23.6-8.2-44.3-0.9-45.5-0.5
				c-2.5,0.9-4.5,3-5.2,5.6c-2.2,6.7-11.3,41,16.3,70.4c-6.5,0.9-10.6,2.4-11.1,2.6c-2.5,0.9-4.5,3-5.2,5.6
				c-2.2,6.8-11.7,42.5,18.1,72.2c17.2,17.2,36.3,21.3,50.7,21.3c5.3,0,9.9-0.6,13.6-1.2v55.2c0,4.7,3.8,8.4,8.4,8.4
				s8.4-3.8,8.4-8.4V350c3.7,0.7,8.3,1.3,13.7,1.3c14.3,0,33.4-4.1,50.7-21.3C354.5,300.1,345.1,264.5,342.9,257.7z M243.5,323.7
				c-0.2,3.8-0.7,7.1-1.2,9.4c-9,2-31.6,4.4-51.1-15.1c-19.2-19.2-17.2-41.4-15.1-51.1c5.7-1.2,16.7-2.6,29,1.4
				c0.8,0.3,1.6,0.6,2.4,0.9c6.5,2.5,13.2,6.5,19.6,12.9c12.2,12.2,15.8,25.6,16.3,36.1V323.7z M243.5,245.1
				c-0.2,3.8-0.7,7.1-1.2,9.4c-5.6,1.2-16.4,2.6-28.4-1.1c-1.2-0.5-2.4-0.9-3.6-1.3c-6.3-2.5-12.8-6.5-19-12.7
				c-19.2-19.2-17.2-41.4-15-51.1c9-2,31.7-4.3,51,15.1c0.1,0.1,0.2,0.2,0.4,0.4c0.7,0.8,1.5,1.6,2.2,2.4
				c10.1,11.4,13.3,23.6,13.8,33.3L243.5,245.1L243.5,245.1z M252.1,202.8c-2.6-1.7-6.5-4.5-10.3-8.5c-0.4-0.4-0.8-0.9-1.2-1.3
				c-7.1-7.8-13.9-19.9-13.9-36.9c0-27.5,17.6-41.8,25.4-46.8c8.3,5.3,25.5,19.6,25.5,46.8c0,16.1-6.1,27.7-12.6,35.5
				c-1.4,1.4-2.6,2.8-3.9,4.1C257.6,198.9,254.4,201.3,252.1,202.8z M260.4,242.4c0-9.9,2.6-23,13-35.3c1.2-1.2,2.5-2.6,3.7-4
				c19.4-19.1,41.7-16.7,50.6-14.7c2.1,9.7,4.1,31.9-15,51.1c-6.2,6.2-12.7,10.2-19,12.7c-1.2,0.4-2.5,0.8-3.7,1.3
				c-12,3.8-22.8,2.4-28.4,1.1c-0.6-2.8-1.3-6.9-1.3-11.9C260.4,242.5,260.4,242.5,260.4,242.4z M312.8,318
				c-19.5,19.5-42.1,17.1-51.1,15.1c-2-9-4.3-31.7,15.1-51.1c6.2-6.2,12.7-10.2,19-12.7c1.2-0.4,2.4-0.8,3.6-1.3
				c12-3.7,22.8-2.4,28.4-1.1C330,276.6,332,298.8,312.8,318z"/>
		</g>
	</g>
	<circle class="st1" cx="395.1" cy="101.8" r="22.3"/>
	<circle class="st1" cx="110.9" cy="403.7" r="22.7"/>
	<g>
		<g>
			<path d="M297,41c-14.7-3.1-29.9-4.7-45-4.7c-57.7,0-112,22.5-152.8,63.3c-40.8,40.8-63.3,95.1-63.3,152.8
				c0,48.1,16.2,95,45.7,132.9c-3.3,5.1-5.1,11.1-5.1,17.4c0,8.6,3.3,16.6,9.4,22.7c6.1,6.1,14.1,9.4,22.7,9.4s16.6-3.3,22.7-9.4
				c6.1-6.1,9.4-14.1,9.4-22.7c0-8.6-3.3-16.6-9.4-22.7c-6.1-6.1-14.1-9.4-22.7-9.4c-5.1,0-10,1.2-14.4,3.4
				c-26.7-34.7-41.4-77.6-41.4-121.5c0-109.8,89.4-199.2,199.2-199.2c14,0,28,1.5,41.5,4.3c4.6,1,9-1.9,10-6.5
				C304.5,46.4,301.6,41.9,297,41z M97.8,391.8c3-3,6.9-4.4,10.7-4.4c3.9,0,7.8,1.5,10.7,4.4c2.9,2.9,4.5,6.7,4.5,10.7
				s-1.6,7.9-4.5,10.7c-5.9,5.9-15.6,5.9-21.5,0c-2.9-2.9-4.5-6.7-4.5-10.7S94.9,394.7,97.8,391.8z"/>
		</g>
	</g>
	<g>
		<g>
			<path d="M422.4,119.5c3.3-5.1,5.1-11.1,5.1-17.4c0-8.6-3.3-16.6-9.4-22.7c-6.1-6.1-14.1-9.4-22.7-9.4c-8.6,0-16.6,3.3-22.7,9.4
				c-6.1,6.1-9.4,14.1-9.4,22.7s3.3,16.6,9.4,22.7c6.1,6.1,14.1,9.4,22.7,9.4c5.1,0,10-1.2,14.4-3.4c26.7,34.7,41.4,77.6,41.4,121.5
				c0,109.8-89.4,199.2-199.2,199.2c-11.8,0-23.7-1-35.2-3.1c-4.6-0.8-9,2.2-9.8,6.8c-0.8,4.6,2.2,9,6.8,9.8
				c12.5,2.2,25.3,3.4,38.2,3.4c57.7,0,112-22.5,152.8-63.3s63.3-95.1,63.3-152.8C468.1,204.3,451.9,157.3,422.4,119.5z
				 M406.2,112.9c-2.9,2.9-6.7,4.5-10.7,4.5s-7.9-1.6-10.7-4.5c-5.9-5.9-5.9-15.6,0-21.5c2.9-2.9,6.7-4.5,10.7-4.5s7.9,1.6,10.7,4.5
				c2.9,2.9,4.5,6.7,4.5,10.7C410.7,106.2,409.1,110,406.2,112.9z"/>
		</g>
	</g>
</g>
</svg>
