<?xml version="1.0" encoding="utf-8"?>
<!-- Generator: Adobe Illustrator 24.1.2, SVG Export Plug-In . SVG Version: 6.00 Build 0)  -->
<svg version="1.1" id="Layer_1" xmlns="http://www.w3.org/2000/svg" xmlns:xlink="http://www.w3.org/1999/xlink" x="0px" y="0px"
	 viewBox="0 0 500 500" style="enable-background:new 0 0 500 500;" xml:space="preserve">
<style type="text/css">
	.st0{fill:#DADCDE;}
	.st1{fill:#00AD4E;}
</style>
<g>
	<circle class="st0" cx="364.8" cy="362.7" r="40.1"/>
	<g>
		<g>
			<path class="st1" d="M454.1,383.2l-9.5,24.3h-14.8c-4.7,6.9-10.5,13.1-17.2,18.1l1,14.3l-24.3,11l-10-11
				c-8.3,1.7-16.9,2.1-25.3,1l-9.5,11l-24.3-9.5v-14.8c-7-4.6-13.2-10.4-18.1-17.2l-14.8,1L276.6,387l4.3-3.8l6.2-6.2
				c-1.6-8.2-1.8-16.6-0.5-24.8l-11.5-9.5l9.5-24.8h14.8c4.8-6.9,10.7-12.9,17.7-17.7l-1-14.8l24.3-10.5l10,10.5
				c8.4-1.4,16.9-1.5,25.3-0.5l9.5-11l24.3,9.5v14.3c7.1,4.8,13.2,10.7,18.1,17.7l14.8-1.4l10.5,24.3l-10.5,10
				c1.6,8.3,1.8,16.9,0.5,25.3L454.1,383.2z M404.9,362.7c0-22.1-18-40.1-40.1-40.1c-22.1,0-40,17.9-40.1,40.1
				c0,22.1,17.9,40.1,40.1,40.1C387,402.8,404.9,384.8,404.9,362.7L404.9,362.7L404.9,362.7z"/>
			<g>
				<path class="st1" d="M341,274.4h-0.5l-24.3,10.5l1,14.8c-6.8,5-12.6,11.1-17.2,18.1h-14.8l-9.5,24.8l11.5,9.5
					c-1.3,8.2-1.1,16.6,0.5,24.8l-6.2,6.2H45.1v-14.3c0-60.3,41.5-112.7,100.2-126.4c41.1,29.3,96.3,29.3,137.4,0
					C304.6,247.9,324.7,258.9,341,274.4z"/>
				<path class="st1" d="M273.2,70.2c15.9,15.8,24.8,37.3,24.8,59.6c0,22.5-8.9,44.2-24.8,60.1c-33,32.9-86.5,32.9-119.4-0.1
					c-15.9-15.9-24.7-37.5-24.7-60c-0.2-22.3,8.6-43.8,24.3-59.6c16-15.9,37.6-24.8,60.1-24.8C236,45.4,257.4,54.3,273.2,70.2z"/>
			</g>
		</g>
		<g>
			<path d="M213.6,223.8c-51.7-0.2-93.3-42.3-93.1-93.9c0.2-51.7,42.3-93.3,93.9-93.1c51.7,0.2,93.3,42.3,93.1,93.9
				c-0.1,24.8-10,48.5-27.6,65.9C262.3,214.1,238.4,223.9,213.6,223.8z M213.6,54.9c-19.9,0-38.9,7.9-53,21.9
				c-14.1,14-22.1,33.1-21.9,53c0,41.4,33.5,74.9,74.9,74.9l0,0c19.9,0.1,39-7.8,53-21.9c14.1-14,21.9-33.1,21.9-53
				C288.5,88.5,255,54.9,213.6,54.9L213.6,54.9L213.6,54.9z"/>
			<path d="M364.8,412.3c-27.4,0-49.6-22.2-49.6-49.6s22.2-49.6,49.6-49.6c27.4,0,49.6,22.2,49.6,49.6S392.2,412.3,364.8,412.3
				L364.8,412.3z M364.8,332.6c-16.7,0-30.3,13.4-30.5,30.1c0,16.9,13.7,30.5,30.5,30.5s30.5-13.7,30.5-30.5
				C395.1,346,381.5,332.6,364.8,332.6L364.8,332.6z"/>
			<path d="M452.6,369.8c0.6-5.9,0.4-11.8-0.5-17.7l11.9-11.5l-15.7-36.3l-16.7,1c-3.9-4.4-8-8.5-12.4-12.4v-16.2L382,262.5
				l-11,12.4c-5.4-0.6-10.9-0.4-16.2,0.5l-7.6-8.1c-17.6-16.7-39.3-28.4-63-33.9c-2.6-0.5-5.3,0-7.6,1.4
				c-37.9,26.7-88.5,26.7-126.4,0c-2.2-1.5-5-2-7.6-1.4c-62.3,15.3-106.3,70.9-106.9,135v14.3c0,5.4,4.2,9.8,9.5,10h223.8l12.4,28.6
				l16.7-1c3.8,4.3,7.9,8.3,12.4,11.9v16.7l37.2,14.3l11-12.4c5.9,0.3,11.8,0.2,17.7-0.5l11,11.5l36.7-15.7l-1.9-16.2
				c4.6-3.8,8.8-8.1,12.4-12.9h16.2l14.3-37.2L452.6,369.8z M279,308.8L264.6,346l12.4,10.5c-0.6,5.9-0.4,11.8,0.5,17.7H54.7v-5.7
				C55.3,314.8,91,268,142.4,253.2c21.1,13.8,45.8,21.2,71.1,21.2c25.3,0,50.1-7.5,71.1-21.5c14,3.7,27.1,10.2,38.6,19.1l-17.2,7.6
				l1.4,16.2c-4.6,3.8-8.8,8.1-12.4,12.9H279z M437.8,398h-13.4l-2.9,4.8c-4.2,5.9-9.1,11.2-14.8,15.7l-4.3,2.9l1,13.4l-11.9,5.2
				l-9.1-9.5l-5.2,1c-7.2,1.4-14.7,1.5-21.9,0.5H350l-8.6,9.5l-11.9-4.8v-13.8l-4.3-2.9c-6-4.2-11.3-9.4-15.7-15.3l-3.3-4.3l-12.9,1
				l-4.8-11.9l9.5-9.1l-1-4.8c-1.5-7.4-1.8-14.9-1-22.4l1-4.8l-10-8.6l4.8-11.9h13.4l2.9-4.3c3.9-6.1,8.9-11.5,14.8-15.7l4.3-2.9
				l-1-13.4l11.9-5.2l9.1,9.5l5.2-1c7.2-1.4,14.7-1.5,21.9-0.5h5.2l8.1-9.5l12.4,4.3v13.4l4.3,2.9c6,4.3,11.2,9.6,15.3,15.7l3.3,3.8
				l12.9-1l5.2,11.9l-9.1,9.5v4.8c1.5,7.2,1.8,14.6,1,21.9l-1,5.2l10,8.6L437.8,398z"/>
		</g>
	</g>
</g>
</svg>
