<?xml version="1.0" encoding="utf-8"?>
<!-- Generator: Adobe Illustrator 24.1.2, SVG Export Plug-In . SVG Version: 6.00 Build 0)  -->
<svg version="1.1" id="Layer_1" xmlns="http://www.w3.org/2000/svg" xmlns:xlink="http://www.w3.org/1999/xlink" x="0px" y="0px"
	 viewBox="0 0 500 500" style="enable-background:new 0 0 500 500;" xml:space="preserve">
<style type="text/css">
	.st0{fill:#00AD4E;}
</style>
<g>
	<g>
		<path class="st0" d="M459.2,122.7l-25.1,104.5c-4.5,19.5-20.9,33.9-40.8,36l-222,22.5h-4.2l-55.9-167.7h2.1L459.2,122.7z"/>
		<g>
			<circle class="st0" cx="361.5" cy="429.2" r="36.6"/>
			<circle class="st0" cx="183" cy="429.2" r="36.6"/>
		</g>
	</g>
	<g>
		<path d="M183,476.2c-26,0-47-21.1-47-47c0-26,21.1-47,47-47s47,21.1,47,47l0,0C230,455.1,209,476.2,183,476.2z M183,403
			c-14.4,0-26.1,11.7-26.1,26.1s11.7,26.1,26.1,26.1s26.1-11.7,26.1-26.1C209.1,414.7,197.4,403,183,403z"/>
		<path d="M361.5,476.2c-26,0-47-21.1-47-47c0-26,21.1-47,47-47c26,0,47,21.1,47,47l0,0C408.5,455.1,387.5,476.2,361.5,476.2z
			 M361.5,403c-14.4,0-26.1,11.7-26.1,26.1s11.7,26.1,26.1,26.1s26.1-11.7,26.1-26.1C387.6,414.7,375.9,403,361.5,403z"/>
		<path d="M467.6,115.9c-2.2-2.4-5.2-3.9-8.4-4.2L119.1,107l-9.4-28.7C103.1,59,85.1,46.1,64.8,45.9h-35c-5.8,0-10.4,4.7-10.4,10.4
			S24,66.7,29.8,66.7h35C76.1,67,86.1,74.3,89.8,85l66.4,200.1l-5.2,12c-5.8,15-4.1,31.9,4.7,45.5c8.7,13.3,23.3,21.5,39.2,21.9
			h203.2c5.8,0,10.4-4.7,10.4-10.4s-4.7-10.4-10.4-10.4H194.9c-8.9-0.4-17.1-5.1-21.9-12.5c-4.7-7.5-5.7-16.8-2.6-25.1l4.2-9.4
			l220-23c24.2-2.7,44-20.2,49.6-43.9l25.1-105C470.3,121.7,469.7,118.3,467.6,115.9z M423.7,225.1c-3.4,15.2-16.3,26.5-31.9,27.7
			l-217.3,22.5l-48.6-147.3l320.3,4.7L423.7,225.1z"/>
	</g>
</g>
</svg>
