<?xml version="1.0" encoding="utf-8"?>
<!-- Generator: Adobe Illustrator 24.1.2, SVG Export Plug-In . SVG Version: 6.00 Build 0)  -->
<svg version="1.1" id="Layer_1" xmlns="http://www.w3.org/2000/svg" xmlns:xlink="http://www.w3.org/1999/xlink" x="0px" y="0px"
	 viewBox="0 0 500 500" style="enable-background:new 0 0 500 500;" xml:space="preserve">
<style type="text/css">
	.st0{fill:#00AD4E;}
	.st1{fill:#AEAFAF;}
</style>
<g>
	<path class="st0" d="M367.9,213.9H146.8c-16.3,0-29.5,13.2-29.5,29.5v191.6c0,16.3,13.2,29.5,29.5,29.5h221.1
		c16.3,0,29.5-13.2,29.5-29.5V243.3C397.4,227.1,384.2,213.9,367.9,213.9z M272.1,401.6c-14.1,8.1-32.1,3.3-40.3-10.8
		c-8.1-14.1-3.3-32.1,10.8-40.3v-63c0-8.1,6.6-14.7,14.7-14.7c8.1,0,14.7,6.6,14.7,14.7v63c4.5,2.6,8.2,6.3,10.8,10.8
		C291,375.5,286.2,393.5,272.1,401.6z"/>
	<path class="st1" d="M102.6,272.8H191v132.7h-88.4V272.8z"/>
	<g>
		<path d="M279.5,346.5v-59c0-12.2-9.9-22.1-22.1-22.1c-12.2,0-22.1,9.9-22.1,22.1v59c-16.2,12.3-19.4,35.4-7.2,51.6
			c5.1,6.7,12.3,11.5,20.5,13.5c2.9,0.7,5.8,1.1,8.8,1.2c20.4,0,36.8-16.5,36.8-36.8C294.2,364.4,288.8,353.5,279.5,346.5z
			 M276.3,387.2c-1.4,2.3-3.1,4.4-5.3,6.1v-0.1c-9.3,7.9-23.3,6.8-31.2-2.5c-7.9-9.3-6.8-23.3,2.5-31.2c1.2-1,2.5-1.9,3.9-2.6
			c2.3-1.3,3.7-3.8,3.7-6.4v-62.9c0-4.1,3.3-7.4,7.4-7.4c4.1,0,7.4,3.3,7.4,7.4v63c0,2.6,1.4,5.1,3.7,6.4
			C279,363.1,282.5,376.7,276.3,387.2z"/>
		<path d="M382.7,209.2v-53.4c0-69.2-56.1-125.3-125.3-125.3c-69.2,0-125.3,56.1-125.3,125.3v53.4c-13.4,5.9-22.1,19.1-22.1,33.8
			v22.1h-7.4c-4.1,0-7.4,3.3-7.4,7.4v132.7c0,4.1,3.3,7.4,7.4,7.4h7.4v22.1c0,20.4,16.5,36.8,36.8,36.8h221.1
			c20.4,0,36.8-16.5,36.8-36.8v-0.5v-0.4v-7.8v-4V243C404.8,228.4,396.1,215.1,382.7,209.2z M146.8,155.8
			c0-61.1,49.5-110.5,110.5-110.5c61.1,0,110.5,49.5,110.5,110.5v50.3h-29.5v-50.3c0-44.8-36.3-81.1-81.1-81.1s-81.1,36.3-81.1,81.1
			v50.3h-29.5V155.8z M323.7,155.8v50.3H191v-50.3c0-36.6,29.7-66.3,66.3-66.3S323.7,119.2,323.7,155.8z M110,279.8h73.7v29.5H110
			V279.8z M110,324.1h73.7v29.5H110V324.1z M110,397.8v-29.5h73.7v29.5H110z M390,425.8v8.8c0,12.2-9.9,22.1-22.1,22.1H146.8
			c-12.2,0-22.1-9.9-22.1-22.1v-22.1H191c4.1,0,7.4-3.3,7.4-7.4V272.5c0-4.1-3.3-7.4-7.4-7.4h-66.3V243c0-12.2,9.9-22.1,22.1-22.1
			h221.1c12.2,0,22.1,9.9,22.1,22.1v181.4V425.8z"/>
	</g>
</g>
</svg>
