<?xml version="1.0" encoding="utf-8"?>
<!-- Generator: Adobe Illustrator 24.1.2, SVG Export Plug-In . SVG Version: 6.00 Build 0)  -->
<svg version="1.1" id="Layer_1" xmlns="http://www.w3.org/2000/svg" xmlns:xlink="http://www.w3.org/1999/xlink" x="0px" y="0px"
	 viewBox="0 0 500 500" style="enable-background:new 0 0 500 500;" xml:space="preserve">
<style type="text/css">
	.st0{fill:#00AD4E;}
</style>
<g>
	<g>
		<circle class="st0" cx="365.3" cy="368.1" r="77.6"/>
		<g>
			<path d="M415.4,87.4H384V76.1c0-15.8-12.9-28.7-28.7-28.7s-28.7,12.9-28.7,28.7v11.4h-49.4V76.1c0-15.8-12.9-28.7-28.7-28.7
				s-28.7,12.9-28.7,28.7v11.4h-49.4V76.1c0-15.8-12.9-28.7-28.7-28.7s-28.7,12.9-28.7,28.7v11.4H81.8c-19.5,0-35.3,15.8-35.3,35.3
				v266.8c0,19.5,15.8,35.3,35.3,35.3h186.8c4.8,0,8.6-3.9,8.6-8.6s-3.9-8.6-8.6-8.6H81.8c-9.9,0-18-8.1-18-18V184.8h369.6v111.4
				c0,4.8,3.9,8.6,8.6,8.6c4.8,0,8.6-3.9,8.6-8.6V122.7C450.7,103.3,434.8,87.4,415.4,87.4z M63.8,122.8c0-9.9,8.1-18,18-18h31.4
				v11.4c0,15.8,12.9,28.7,28.7,28.7s28.7-12.9,28.7-28.7v-11.4h49.4v11.4c0,15.8,12.9,28.7,28.7,28.7s28.7-12.9,28.7-28.7v-11.4
				h49.4v11.4c0,15.8,12.9,28.7,28.7,28.7s28.7-12.9,28.7-28.7v-11.4h31.4c9.9,0,18,8.1,18,18v44.7H63.8V122.8z M366.7,116.1
				c0,6.3-5.1,11.4-11.4,11.4c-6.3,0-11.4-5.1-11.4-11.4v-40c0-6.3,5.1-11.4,11.4-11.4c6.3,0,11.4,5.1,11.4,11.4V116.1z M260,116.1
				c0,6.3-5.1,11.4-11.4,11.4c-6.3,0-11.4-5.1-11.4-11.4v-40c0-6.3,5.1-11.4,11.4-11.4c6.3,0,11.4,5.1,11.4,11.4V116.1z
				 M153.2,116.1c0,6.3-5.1,11.4-11.4,11.4c-6.3,0-11.4-5.1-11.4-11.4v-40c0-6.3,5.1-11.4,11.4-11.4c6.3,0,11.4,5.1,11.4,11.4V116.1
				z"/>
			<path d="M236.2,229.5c0-7.9-6.4-14.3-14.3-14.3h-26.7c-7.9,0-14.3,6.4-14.3,14.3v20c0,7.9,6.4,14.3,14.3,14.3h26.7
				c7.9,0,14.3-6.4,14.3-14.3V229.5z M220.9,230.5v18h-24.7v-18H220.9z"/>
			<path d="M382,263.8c7.9,0,14.3-6.4,14.3-14.3v-20c0-7.9-6.4-14.3-14.3-14.3h-26.7c-7.9,0-14.3,6.4-14.3,14.3v20
				c0,7.9,6.4,14.3,14.3,14.3H382z M356.3,248.5v-18H381v18H356.3z"/>
			<path d="M236.2,289.5c0-7.9-6.4-14.3-14.3-14.3h-26.7c-7.9,0-14.3,6.4-14.3,14.3v20c0,7.9,6.4,14.3,14.3,14.3h26.7
				c7.9,0,14.3-6.4,14.3-14.3V289.5z M220.9,290.5v18h-24.7v-18H220.9z"/>
			<path d="M221.9,335.2h-26.7c-7.9,0-14.3,6.4-14.3,14.3v20c0,7.9,6.4,14.3,14.3,14.3h26.7c7.9,0,14.3-6.4,14.3-14.3v-20
				C236.2,341.6,229.8,335.2,221.9,335.2z M220.9,350.5v18h-24.7v-18H220.9z"/>
			<path d="M275.3,263.8H302c7.9,0,14.3-6.4,14.3-14.3v-20c0-7.9-6.4-14.3-14.3-14.3h-26.7c-7.9,0-14.3,6.4-14.3,14.3v20
				C261,257.4,267.4,263.8,275.3,263.8z M276.3,248.5v-18H301v18H276.3z"/>
			<path d="M141.9,335.2h-26.7c-7.9,0-14.3,6.4-14.3,14.3v20c0,7.9,6.4,14.3,14.3,14.3h26.7c7.9,0,14.3-6.4,14.3-14.3v-20
				C156.2,341.6,149.8,335.2,141.9,335.2z M140.9,350.5v18h-24.7v-18H140.9z"/>
			<path d="M365,280.1L365,280.1c-48.9,0-88.7,39.8-88.7,88.7s39.8,88.7,88.7,88.7s88.7-39.8,88.7-88.7
				C453.6,320,413.8,280.2,365,280.1z M365,297.4c39.4,0,71.4,32,71.4,71.4c0,39.3-32.1,71.4-71.4,71.4c-39.4,0-71.4-32-71.4-71.4
				S325.6,297.4,365,297.4z"/>
			<path d="M361.7,384.8l40,0c4.1-0.1,7.5-3.4,7.5-7.5c0-2-0.7-4-2.1-5.5c-1.4-1.5-3.3-2.3-5.4-2.3l-32.4,0v-40.7
				c-0.1-4.1-3.4-7.5-7.5-7.5c-4.2-0.1-7.7,3.3-7.8,7.5v48.3C354,381.4,357.5,384.8,361.7,384.8z"/>
			<path d="M307.3,308.5h-31v-18H301v18.6h15.3v-19.6c0-7.9-6.4-14.3-14.3-14.3h-26.7c-7.9,0-14.3,6.4-14.3,14.3v20
				c0,7.9,6.4,14.3,14.3,14.3h32V308.5z"/>
		</g>
	</g>
	<g>
		<path class="st0" d="M117.7,303.9c0,0-12.2-4.2-12.7-5.3c-0.5-1.1-5.6-8.5-5.8-9.5s-4.2-14.9-4.2-14.9l9.3-5c0,0-4-6.9-5-9.2
			s-5.3-12.2-4.2-13c1.1-0.8,0.5-3.5,4.2-4.9c3.7-1.4,12.5,1.1,13,1.6s5,5.2,5.5,2.6c0.5-2.6-1.9-7.4-1.9-10.6
			c0-3.2,0.5-8.7,0.8-9.9s6.1-8.9,7.1-10.2c1.1-1.3,5.6-5.1,5.6-5.1s4.8,6,6.3,7.7c1.6,1.7,6.1,12.3,6.1,12.3l-2.4,13.3l13.7-3.8
			l7.9,3.8c0,0,0.5,7.4-0.3,8.3c-0.7,0.9-9.2,18.6-9.2,18.6l9.5,2.2l0.2,12.2l-8.6,15.4c0,0-15.8,6.4-16.9,6.4s-5-2.2-6.3-2.2"/>
		<g>
			<g>
				<path d="M162.7,271.2c-0.3-1-1-1.8-2-2.1c-0.2-0.1-1.8-0.6-4.2-1c10.4-11.1,7-24.1,6.2-26.6c-0.3-1-1-1.8-2-2.1
					c-0.4-0.2-8.3-2.9-17.2,0.2c0.5-2.1,0.8-4.3,0.8-6.8c0-15.9-12.1-22.9-14.5-24.2c-0.9-0.5-2-0.5-2.9-0.1
					c-0.6,0.3-14.7,7-14.7,24.3c0,2.5,0.3,4.8,0.8,6.8c-8.9-3.1-16.8-0.4-17.2-0.2c-1,0.4-1.7,1.1-2,2.1c-0.8,2.5-4.3,15.5,6.2,26.6
					c-2.4,0.4-4,0.9-4.2,1c-1,0.4-1.7,1.1-2,2.1c-0.8,2.6-4.4,16.1,6.9,27.3c6.5,6.5,13.8,8.1,19.2,8.1c2,0,3.8-0.2,5.1-0.5v38.4
					c0,1.8,1.4,3.2,3.2,3.2c1.8,0,3.2-1.4,3.2-3.2v-38.4c1.4,0.3,3.2,0.5,5.2,0.5c5.4,0,12.7-1.6,19.2-8.1
					C167.2,287.3,163.6,273.8,162.7,271.2z M125.1,296.2c-0.1,1.5-0.3,2.7-0.5,3.5c-3.4,0.8-12,1.7-19.3-5.7
					c-7.3-7.3-6.5-15.7-5.7-19.3c2.1-0.5,6.3-1,11,0.5c0.3,0.1,0.6,0.2,0.9,0.3c2.5,0.9,5,2.5,7.4,4.9c4.6,4.6,6,9.7,6.2,13.7V296.2
					z M125.1,266.5c-0.1,1.5-0.3,2.7-0.5,3.5c-2.1,0.5-6.2,1-10.8-0.4c-0.5-0.2-0.9-0.3-1.4-0.5c-2.4-0.9-4.8-2.4-7.2-4.8
					c-7.3-7.3-6.5-15.7-5.7-19.3c3.4-0.7,12-1.6,19.3,5.7c0,0,0.1,0.1,0.1,0.1c0.3,0.3,0.6,0.6,0.8,0.9c3.8,4.3,5,8.9,5.2,12.6
					L125.1,266.5L125.1,266.5z M128.4,250.5c-1-0.6-2.4-1.7-3.9-3.2c-0.1-0.2-0.3-0.3-0.5-0.5c-2.7-3-5.3-7.5-5.3-14
					c0-10.4,6.7-15.8,9.6-17.7c3.2,2,9.6,7.4,9.6,17.7c0,6.1-2.3,10.5-4.8,13.4c-0.5,0.5-1,1-1.5,1.6
					C130.5,249,129.3,249.9,128.4,250.5z M131.6,265.4c0-3.8,1-8.7,4.9-13.4c0.5-0.5,0.9-1,1.4-1.5c7.3-7.2,15.8-6.3,19.2-5.6
					c0.8,3.7,1.6,12.1-5.7,19.3c-2.3,2.3-4.8,3.8-7.2,4.8c-0.5,0.1-0.9,0.3-1.4,0.5c-4.6,1.4-8.6,0.9-10.7,0.4
					C131.8,269,131.6,267.4,131.6,265.4C131.6,265.5,131.6,265.5,131.6,265.4z M151.4,294.1c-7.4,7.4-15.9,6.5-19.3,5.7
					c-0.7-3.4-1.6-12,5.7-19.3c2.4-2.4,4.8-3.9,7.2-4.8c0.5-0.1,0.9-0.3,1.4-0.5c4.5-1.4,8.6-0.9,10.7-0.4
					C157.9,278.4,158.6,286.8,151.4,294.1z"/>
			</g>
		</g>
	</g>
</g>
</svg>
