<?xml version="1.0" encoding="utf-8"?>
<!-- Generator: Adobe Illustrator 24.1.2, SVG Export Plug-In . SVG Version: 6.00 Build 0)  -->
<svg version="1.1" id="Layer_1" xmlns="http://www.w3.org/2000/svg" xmlns:xlink="http://www.w3.org/1999/xlink" x="0px" y="0px"
	 viewBox="0 0 500 500" style="enable-background:new 0 0 500 500;" xml:space="preserve">
<style type="text/css">
	.st0{fill:#00AD4E;}
</style>
<g>
	<g>
		<g>
			<g>
				<path class="st0" d="M285,219.2c9.3,9.1,14.4,21.6,14.2,34.5c0.2,13.1-4.9,25.8-14.2,35c-19.1,19.3-50.3,19.5-69.6,0.3
					c-9.4-9.3-14.7-22.1-14.6-35.3c-0.2-13,5-25.5,14.2-34.5c18.8-19.3,49.7-19.7,69-1C284.4,218.5,284.7,218.8,285,219.2z"/>
				<path class="st0" d="M290.6,323.9c34.1,8.2,58,38.8,57.8,73.8v8.2H151.6v-8.2c0.1-35.2,24.4-65.8,58.7-73.8
					c11.7,8.5,25.7,13,40.1,13C264.9,336.8,278.9,332.2,290.6,323.9z"/>
			</g>
			<g>
				<path d="M250,311.1c-31.9,0-57.8-25.9-57.8-57.8c0-0.1,0-0.3,0-0.4c0.1-15.3,6.1-30,16.8-41c22.7-22.5,59.3-22.5,82,0
					c22.5,22.9,22.5,59.6,0,82.5C280.1,305.1,265.4,311.2,250,311.1z M250,212.3c-10.9,0-21.3,4.4-28.9,12.1
					c-7.6,7.5-11.9,17.8-11.7,28.5c-0.3,22.4,17.7,40.8,40.1,41c11,0.1,21.6-4.2,29.4-12.1c7.7-7.6,11.9-18.1,11.7-28.9
					c0.2-10.7-4-21-11.7-28.5C271.3,216.6,260.9,212.3,250,212.3z"/>
				<path d="M292.3,310.2c-1.6-0.3-3.3-0.1-4.8,0.5c-0.9,0.3-1.8,0.7-2.6,1.2c-7.8,5.6-16.6,9.1-25.7,10.5
					c-15.2,2.3-31.1-1.2-44.3-10.5c-1.9-1.6-4.5-2.2-6.9-1.7c-38,9.1-64.9,43-65.2,82v8.6c0,4.8,3.9,8.6,8.6,8.6h196.8
					c4.8,0,8.6-3.9,8.6-8.6v-8.6C356.7,353.4,330.1,319.7,292.3,310.2z M160.2,392.3c0.3-29.5,19.7-55.3,47.9-63.8
					c11.7,7.3,25.2,11.5,39,11.9c3.9,0.2,7.9,0,11.8-0.4c0.2,0,0.4,0,0.6-0.1c0.7-0.1,1.4-0.2,2.1-0.3c0.5-0.1,1-0.2,1.5-0.2
					c0.4-0.1,0.7-0.1,1.1-0.2c0.7-0.1,1.4-0.3,2.2-0.4c0.1,0,0.2,0,0.2,0c9-1.9,17.6-5.4,25.5-10.3c28.3,8.4,47.7,34.4,47.8,63.8
					H160.2z"/>
			</g>
		</g>
		<g>
			<path class="st0" d="M232.7,178.2c0,0-19.8-6.9-20.6-8.6c-0.9-1.7-9.1-13.8-9.5-15.5c-0.4-1.7-6.9-24.2-6.9-24.2l15.1-8.1
				c0,0-6.5-11.2-8.2-15c-1.7-3.9-8.6-19.8-6.9-21.1c1.7-1.3,0.8-5.7,6.9-8c6-2.3,20.3,1.8,21.1,2.5c0.8,0.7,8.1,8.5,9,4.2
				c0.9-4.3-3-12-3-17.2s0.9-14.1,1.3-16.1s9.9-14.5,11.6-16.6c1.7-2.1,9-8.3,9-8.3s7.7,9.8,10.3,12.5c2.6,2.7,9.9,19.9,9.9,19.9
				l-3.9,21.6l22.4-6.1l12.8,6.1c0,0,0.8,12-0.4,13.5c-1.2,1.5-15,30.2-15,30.2l15.4,3.5l0.3,19.8l-13.9,25.1
				c0,0-25.8,10.4-27.5,10.3c-1.8-0.1-8.1-3.6-10.3-3.6"/>
			<g>
				<path d="M302.8,121.6c-0.3-0.1-2.9-1-6.9-1.6c17-18.1,11.4-39.2,10.1-43.3c-0.5-1.6-1.6-2.8-3.2-3.4c-0.7-0.3-13.5-4.8-27.9,0.3
					c0.8-3.4,1.3-7,1.3-11.1c0-25.9-19.6-37.3-23.6-39.3c-1.4-0.8-3.2-0.9-4.7-0.2c-1,0.5-23.9,11.4-23.9,39.5
					c0,4.1,0.5,7.8,1.3,11.1c-14.5-5.1-27.3-0.6-28-0.3c-1.6,0.6-2.7,1.9-3.2,3.4c-1.3,4.1-6.9,25.3,10.1,43.3
					c-4,0.6-6.5,1.5-6.9,1.6c-1.6,0.6-2.7,1.9-3.2,3.4c-1.4,4.2-7.2,26.1,11.1,44.5c10.6,10.6,22.4,13.1,31.2,13.1
					c3.3,0,6.1-0.3,8.4-0.8v6.8c3.5-0.3,6.9-0.3,10.4,0v-6.8c2.3,0.4,5.1,0.8,8.4,0.8c8.8,0,20.6-2.5,31.2-13.1
					c18.3-18.3,12.5-40.3,11.1-44.5C305.5,123.5,304.4,122.2,302.8,121.6z M244.8,165.7c-0.1,2.4-0.4,4.3-0.8,5.8
					c-5.6,1.2-19.5,2.7-31.4-9.3c-11.8-11.8-10.6-25.5-9.3-31.4c3.5-0.8,10.3-1.6,17.9,0.8c0.5,0.2,1,0.4,1.5,0.5
					c4,1.5,8.1,4,12.1,7.9c7.5,7.5,9.7,15.7,10.1,22.2V165.7z M244.1,123.1c-3.4,0.8-10.1,1.6-17.5-0.7c-0.8-0.3-1.5-0.6-2.2-0.8
					c-3.9-1.5-7.9-4-11.7-7.8c-11.8-11.8-10.6-25.5-9.3-31.4c5.5-1.2,19.5-2.6,31.4,9.3c0.1,0.1,0.1,0.2,0.2,0.2
					c0.5,0.5,0.9,1,1.4,1.5c6.2,7,8.2,14.5,8.5,20.5v3.5l0,0C244.7,119.7,244.4,121.7,244.1,123.1z M250.1,91.3
					c-1.6-1-4-2.8-6.4-5.3c-0.2-0.3-0.5-0.5-0.7-0.8c-4.3-4.8-8.6-12.2-8.6-22.7c0-16.9,10.8-25.7,15.6-28.8
					c5.1,3.3,15.7,12.1,15.7,28.8c0,9.9-3.7,17.1-7.8,21.9c-0.8,0.8-1.6,1.7-2.4,2.5C253.5,88.9,251.5,90.3,250.1,91.3z
					 M255.3,115.6c0-6.1,1.6-14.2,8-21.8c0.8-0.8,1.5-1.6,2.3-2.5c11.9-11.7,25.7-10.3,31.2-9.1c1.3,6,2.6,19.6-9.3,31.4
					c-3.8,3.8-7.8,6.3-11.7,7.8c-0.8,0.2-1.5,0.5-2.3,0.8c-7.4,2.3-14,1.5-17.5,0.7c-0.4-1.7-0.8-4.3-0.8-7.3
					C255.3,115.7,255.3,115.7,255.3,115.6z M287.5,162.2c-12,12-25.9,10.5-31.4,9.3c-1.2-5.5-2.7-19.5,9.3-31.4
					c3.8-3.8,7.8-6.3,11.7-7.8c0.7-0.2,1.5-0.5,2.2-0.8c7.4-2.3,14-1.5,17.5-0.7C298.1,136.7,299.3,150.4,287.5,162.2z"/>
			</g>
		</g>
	</g>
	<g>
		<g>
			<g>
				<path class="st0" d="M402,235.8c10.4,10.2,16.2,24.3,16,38.8c0.3,14.8-5.5,29-16,39.3c-21.5,21.7-56.6,21.9-78.3,0.4
					c-10.6-10.5-16.5-24.8-16.4-39.7c-0.2-14.6,5.6-28.6,16-38.8c21.1-21.7,55.9-22.2,77.6-1.1C401.3,235.1,401.7,235.4,402,235.8z"
					/>
				<path class="st0" d="M408.4,353.6c38.3,9.2,65.3,43.6,65.1,83v9.2H252v-9.2c0.1-39.6,27.4-74,66-83
					c13.1,9.5,28.9,14.6,45.2,14.6C379.4,368.1,395.2,363,408.4,353.6z"/>
			</g>
			<g>
				<path d="M362.7,339.2c-35.9,0-65.1-29.1-65.1-65.1c0-0.2,0-0.3,0-0.5c0.1-17.3,6.9-33.8,18.9-46.1c25.5-25.3,66.7-25.3,92.3,0
					c25.4,25.7,25.4,67,0,92.7C396.6,332.5,380,339.3,362.7,339.2z M362.7,228c-12.2,0-23.9,4.9-32.5,13.6c-8.6,8.4-13.3,20-13.1,32
					c-0.3,25.2,19.9,45.9,45.1,46.2c12.4,0.1,24.4-4.8,33.1-13.6c8.6-8.6,13.4-20.4,13.1-32.5c0.2-12-4.5-23.6-13.1-32
					C386.6,232.9,374.9,228.1,362.7,228z"/>
				<path d="M410.3,338.2c-1.8-0.3-3.7-0.1-5.4,0.6c-1,0.3-2,0.7-2.9,1.4c-8.8,6.3-18.7,10.2-28.9,11.8c-17.1,2.6-35-1.4-49.8-11.8
					c-2.2-1.8-5-2.5-7.8-1.9c-42.7,10.3-73,48.3-73.3,92.3v9.7c0,5.4,4.3,9.7,9.7,9.7h221.4c5.4,0,9.7-4.3,9.7-9.7v-9.7
					C482.7,386.8,452.7,348.8,410.3,338.2z M261.7,430.5c0.4-33.1,22.2-62.2,53.9-71.7c13.2,8.3,28.3,12.9,43.9,13.4
					c4.4,0.2,8.8,0,13.2-0.5c0.2,0,0.4-0.1,0.6-0.1c0.8-0.1,1.6-0.2,2.3-0.3c0.5-0.1,1.1-0.2,1.6-0.3c0.4-0.1,0.8-0.1,1.2-0.2
					c0.8-0.1,1.6-0.3,2.4-0.5c0.1,0,0.2,0,0.3-0.1c10.1-2.1,19.9-6.1,28.7-11.6c31.8,9.5,53.6,38.6,53.8,71.8H261.7z"/>
			</g>
		</g>
		<g>
			<g>
				<path class="st0" d="M176.7,234.8c10.4,10.2,16.2,24.3,16,38.8c0.3,14.8-5.5,29-16,39.3c-21.5,21.7-56.6,21.9-78.3,0.4
					c-10.6-10.5-16.5-24.8-16.4-39.7c-0.2-14.6,5.6-28.6,16-38.8c21.1-21.7,55.9-22.2,77.6-1.1C176,234.1,176.3,234.5,176.7,234.8z"
					/>
				<path class="st0" d="M183,353.6c38.3,9.2,65.3,43.6,65.1,83v9.2H26.6v-9.2c0.1-39.6,27.4-74,66-83c13.1,9.5,28.9,14.6,45.2,14.6
					C154,368.1,169.8,363,183,353.6z"/>
			</g>
			<g>
				<path d="M137.3,339.2c-35.9,0-65.1-29.1-65.1-65.1c0-0.2,0-0.3,0-0.5c0.1-17.3,6.9-33.8,18.9-46.1c25.5-25.3,66.7-25.3,92.3,0
					c25.4,25.7,25.4,67,0,92.7C171.2,332.5,154.6,339.3,137.3,339.2z M137.3,228c-12.2,0-23.9,4.9-32.5,13.6
					c-8.6,8.4-13.3,20-13.1,32c-0.3,25.2,19.9,45.9,45.1,46.2c12.4,0.1,24.4-4.8,33.1-13.6c8.6-8.6,13.4-20.4,13.1-32.5
					c0.2-12-4.5-23.6-13.1-32C161.3,232.9,149.6,228.1,137.3,228z"/>
				<path d="M184.9,338.2c-1.8-0.3-3.7-0.1-5.4,0.6c-1,0.3-2,0.7-2.9,1.4c-8.8,6.3-18.7,10.2-28.9,11.8c-17.1,2.6-35-1.4-49.8-11.8
					c-2.2-1.8-5-2.5-7.8-1.9c-42.7,10.3-73,48.3-73.3,92.3v9.7c0,5.4,4.3,9.7,9.7,9.7h221.4c5.4,0,9.7-4.3,9.7-9.7v-9.7
					C257.3,386.8,227.4,348.8,184.9,338.2z M36.3,430.5c0.4-33.1,22.2-62.2,53.9-71.7c13.2,8.3,28.3,12.9,43.9,13.4
					c4.4,0.2,8.8,0,13.2-0.5c0.2,0,0.4-0.1,0.6-0.1c0.8-0.1,1.6-0.2,2.3-0.3c0.5-0.1,1.1-0.2,1.6-0.3c0.4-0.1,0.8-0.1,1.2-0.2
					c0.8-0.1,1.6-0.3,2.4-0.5c0.1,0,0.2,0,0.3-0.1c10.1-2.1,19.9-6.1,28.7-11.6c31.8,9.5,53.6,38.6,53.8,71.8H36.3z"/>
			</g>
		</g>
	</g>
</g>
</svg>
