<?xml version="1.0" encoding="utf-8"?>
<!-- Generator: Adobe Illustrator 24.1.2, SVG Export Plug-In . SVG Version: 6.00 Build 0)  -->
<svg version="1.1" id="Layer_1" xmlns="http://www.w3.org/2000/svg" xmlns:xlink="http://www.w3.org/1999/xlink" x="0px" y="0px"
	 viewBox="0 0 500 500" style="enable-background:new 0 0 500 500;" xml:space="preserve">
<style type="text/css">
	.st0{fill:#AEAFAF;}
	.st1{fill:#00AD4E;}
</style>
<g>
	<path class="st0" d="M341,365.4c0,30.9-25.2,56.1-56.1,56.1h-51.4c-7.8,0-14.7-4.8-17.5-12L80.5,70.9c-2.2-5.7-1.4-12.2,2.1-17.3
		c3.5-5.1,9.3-8.1,15.4-8.1h187c30.9,0,56.1,25.2,56.1,56.1V365.4z"/>
	<path class="st1" d="M228.8,113.3v336.6c0,12.9-10.5,23.4-23.4,23.4c-2.6,0-5.1-0.4-7.5-1.1L85.8,434.7c-9.2-3.2-15.9-12-15.9-22.3
		V75.9c0-12.9,10.5-23.4,23.4-23.4c2.6,0,5,0.4,7.5,1.1L212.9,91C222.1,94.2,228.8,103,228.8,113.3z"/>
	<path d="M320,220.8h100.8l-46.2-46.2c-5.5-5.5-5.5-14.4,0-19.8c5.5-5.5,14.4-5.5,19.8,0l70.1,70.1c3.5,3.5,4.7,8.3,3.8,12.8
		c0,0,0,0,0,0c-0.1,0.4-0.2,0.9-0.3,1.3c0,0.1-0.1,0.2-0.1,0.3c-0.1,0.3-0.2,0.7-0.4,1c-0.1,0.1-0.1,0.3-0.2,0.4
		c-0.1,0.3-0.2,0.5-0.4,0.8c-0.1,0.2-0.2,0.4-0.3,0.6c-0.1,0.2-0.2,0.4-0.4,0.6c-0.2,0.3-0.4,0.6-0.7,0.9c-0.1,0.1-0.1,0.1-0.1,0.2
		c-0.3,0.4-0.7,0.8-1.1,1.2l-70,70c-2.7,2.8-6.3,4.1-9.9,4.1c-3.6,0-7.2-1.4-9.9-4.1c-5.5-5.5-5.5-14.4,0-19.8l46.2-46.2H320
		c-7.7,0-14-6.3-14-14C306,227.1,312.3,220.8,320,220.8z"/>
	<path d="M93.3,40.7h210.4c27.2,0,49.2,22,49.2,49.2v83.8c0,6.4-4.9,11.8-11.2,12.2c-6.8,0.3-12.4-5.1-12.4-11.8V89.9
		c0-14.1-11.4-25.6-25.6-25.6H170.3l46.4,15.5c14.3,5,24,18.5,24,33.5v36.8c0,6.5-5.3,11.8-11.8,11.8h0c-6.5,0-11.8-5.3-11.8-11.8
		v-36.8c0-4.9-3.3-9.4-8-11.1L97,64.9c-1.1-0.4-2.4-0.5-3.8-0.5c-6.4,0-11.5,5.3-11.5,11.6l0,336.5c0,4.9,3.3,9.4,8,11.1l112,37.3
		c1.1,0.4,2.4,0.5,3.8,0.5c6.3,0,11.4-5.3,11.4-11.6l0-237c0-6.5,5.3-11.8,11.8-11.8h0c6.5,0,11.8,5.3,11.8,11.8v192.6h63
		c14.1,0,25.6-11.4,25.6-25.6v-83.8c0-6.4,4.9-11.8,11.2-12.2c6.8-0.3,12.4,5.1,12.4,11.8v84.1c0,27.2-22,49.2-49.2,49.2h-63l0,20.5
		c0,19.5-15.6,35.5-35.1,35.6c-3.8,0-7.5-0.5-11-1.6L82,445.9c-14.3-5-24-18.5-24-33.5V75.9C58.1,56.4,73.8,40.7,93.3,40.7z"/>
	<circle cx="228.7" cy="181.4" r="11.9"/>
</g>
</svg>
