<?xml version="1.0" encoding="utf-8"?>
<!-- Generator: Adobe Illustrator 24.1.2, SVG Export Plug-In . SVG Version: 6.00 Build 0)  -->
<svg version="1.1" id="Layer_1" xmlns="http://www.w3.org/2000/svg" xmlns:xlink="http://www.w3.org/1999/xlink" x="0px" y="0px"
	 viewBox="0 0 500 500" style="enable-background:new 0 0 500 500;" xml:space="preserve">
<style type="text/css">
	.st0{fill:#AEAFAF;}
	.st1{fill:#00AD4E;}
</style>
<g>
	<path class="st0" d="M337.2,315c0,0,30.3-31.6,31.3-32.6c1-1-26-25.3-26-25.3s-33.2,29.3-34.9,30c-1.6,0.7-28.5-30-28.5-30h-1.4
		c0,0-51.4,47.1-52.3,48.1c0,0,0,0,0,0c-15.7,8.4-27.7,22.9-33,40.3c2-0.4,4.1-0.7,6.3-0.7c16,0,29.1,12.5,30.2,28.2
		c12.4,6.1,20.9,18.8,20.9,33.4c0,9.4-3.5,18-9.3,24.6c5.5,1.4,11.2,2.2,17.1,2.2c24.1,0,45.3-12.6,57.4-31.5
		c12.1-11.7,53.1-51.5,53.6-54C369.1,344.9,337.2,315,337.2,315z"/>
	<path class="st1" d="M139,56.6c0,0,47,6.5,47,9s24.2,25,24.2,25l6.5,14.3c0,0-6.5,14.9-6.5,16.2c0,1.3-13.9,12.3-13.9,12.3h-17
		c0,0-16.6-7.9-20.1-13.2S147,99.6,144.8,95c-2.3-4.6-9.3-32.7-9.3-32.7L139,56.6z"/>
	<path class="st1" d="M262.8,106.7l2.1-1.1L285.1,95l28-8.6l33.4-1.8c0,0-11,34.7-12.3,35.1c-1.3,0.4-25.5,34.2-25.5,34.2
		l-28.1,13.6h-18l-8.3-11.4c0,0-6.6-11.5-7-14.5c-0.4-3.1,4.6-16.2,4.7-18.4"/>
	<path class="st1" d="M93.2,149.5c0,0,17.8-1.3,22.4-1.3s31.3,6.3,34.9,6.6c3.6,0.3,24,12.9,24,12.9s11.2,16.3,11.2,18
		s0,14.8,0,14.8s-7.1,11.5-9.7,12.8c-2.5,1.3-11.1,2.6-16.7,1.6s-23.4-2.9-25.3-7c-2-4.2-31.3-24.6-31.5-30.5
		c-0.1-5.9-11.7-26.3-11.7-26.3L93.2,149.5z"/>
	<g id="Planting-5">
		<g id="Outline">
			<path d="M308,279.7l-27-27c-2.5-2.5-6.5-2.5-9,0c0,0,0,0,0,0c-61.6,61.8-59.5,59-63.2,63.7c-5.3,6.6,4.8,14.4,10,7.9
				c3.1-3.8,1.4-1.7,57.7-58.2l22.5,22.5L285.7,302c-2.5,2.5-2.5,6.5,0,9c1.2,1.2,2.8,1.8,4.5,1.9c4.8,0,2.4-0.7,49.3-46.7l18,18
				L281,360.7c-5,5-13,5-18,0c-4.3-4.3-5-10.9-1.7-15.9c1.9-2.9,1.1-6.9-1.8-8.8c-2.9-1.9-6.9-1.1-8.8,1.8c0,0,0,0,0,0
				c-10.9,16.7,1,39.3,21.3,39.3c6.8,0,13.2-2.7,18-7.4l45-45l22.5,22.5l-54,54c-7.8,7.8-17.8,12.9-28.7,14.6
				c-3.5,0.6-5.8,3.9-5.2,7.4c0.6,3.4,3.8,5.7,7.3,5.2c13.5-2.1,25.9-8.5,35.6-18.1l58.5-58.5c2.5-2.5,2.5-6.5,0-9c0,0,0,0,0,0
				l-27-27c56.3-56.3,100.5-100.5,140.5-140.5c4.8-4.8,7.5-11.2,7.5-18c0-22.9-27.6-33.8-43.5-18C412.5,175.2,369.8,217.9,308,279.7
				z M457.5,148.2c5-5,13-5,18,0c5,5,5,13,0,18l-109,109l-18-18L457.5,148.2z"/>
			<path d="M66.9,341.5c3.4-1.2,7-2.2,10.7-3.1c15.3,0.4,23.1,13.5,23.1,19.1c0,3.5,2.8,6.4,6.4,6.4c13.7,0,4.2-31.4-21.9-37.3
				c14.4-36.9,56.3-32.5,57.2-32.7c-2.2,8.3-3.4,16.9-3.5,25.5c0,6.1,6.9,6.6,6.4,6.4c3.5,0,6.4-2.8,6.4-6.4
				c0-0.2,0.1-17.7,5.6-28.9c18.9-34.1,54.6-41.1,83.9-30.2c3.3,1.2,7-0.5,8.2-3.7c1.2-3.3-0.5-7-3.7-8.2l0,0
				c-7.7-2.8-15.8-4.6-24-5.1v-54.4l29.9-23.5c17.6,17.1,40.2,10.2,59.6-5C338,139.2,350.5,88.2,351,86c0.8-3.4-1.3-6.9-4.7-7.7
				c-0.5-0.1-1-0.2-1.5-0.2c-2.2,0-54.7,0-81.5,21.1c-18.8,14.8-31.1,34.7-19.4,55.8l-22.2,17.4c0.1-14.7-2.7-29.3-8.1-42.9
				c13.1-14.1,14.1-33.9-8.1-54.6c-21.2-19.8-66.2-22.9-68.1-23c-3.5-0.2-6.5,2.4-6.7,6c0,0.4,0,0.8,0,1.2
				c0.2,1.9,6.3,46.5,27.5,66.3c12.9,12,28.9,19.9,44.7,12.1c8.9,24.7,5,41.6,6,69.1l-18.2-9.9c3.1-10.6,2.1-27.8-26.6-43.4
				c-26.4-14.4-70.7-8.9-72.6-8.6c-3.5,0.4-5.9,3.6-5.5,7.1c0.1,0.7,0.3,1.3,0.6,1.9c0.8,1.7,20.2,41.9,46.6,56.3
				c18.1,9.9,38.6,14,51.6-2l24.1,13.1v21.9c-25.8,1.9-47.1,15.1-60.9,37.9c-6.6,0.7-30.8-3.9-53.9,13.5
				c-10.7,8-18.6,19.3-22.4,32.1c-3.1,0.8-6.1,1.7-9,2.7c-3.3,1.1-5.1,4.8-4,8.1C60,340.9,63.6,342.7,66.9,341.5
				C66.9,341.5,66.9,341.5,66.9,341.5L66.9,341.5z M271.2,109.3c17.5-13.8,49.9-17.2,65.2-18.1c-4.5,14.7-15.5,45.2-33,59
				c-13,10.2-29,17.8-41.6,7l46.6-36.6c2.8-2.2,3.2-6.2,1.1-8.9c-2.2-2.8-6.2-3.2-8.9-1.1l0,0l-46.4,36.5
				C247.4,132.6,258.6,119.2,271.2,109.3z M207.4,116.8c-6.7-12-15.6-22.7-26.2-31.5c-2.7-2.3-6.7-1.9-9,0.8s-1.9,6.7,0.8,9
				c10.3,8.5,18.7,19,24.8,30.9c-10.7,5.6-22.1-1.5-30.9-9.7c-13.1-12.2-19.6-37.7-22.2-50.7c13.2,1.7,39,6.5,52.1,18.7
				C206.7,93.5,214.4,105.2,207.4,116.8L207.4,116.8z M179.2,190.5l-32.4-17.6c-3.1-1.7-7-0.5-8.6,2.5c-1.7,3.1-0.5,7,2.5,8.6
				l32.7,17.8c-6.9,6.6-18.3,5.6-34-2.9c-16.1-8.8-30-30.4-36.8-42.3c13.7-0.8,39.4-0.8,55.5,8C173.2,172.8,180.2,181.5,179.2,190.5
				L179.2,190.5z"/>
			<path d="M400.1,349.6L400.1,349.6c-2.5-2.5-6.5-2.5-9,0c-2.5,2.5-2.5,6.5,0,9c32.6,32.5,9.3,88-35.8,88h-280
				c-33,0-58.6-31.2-48.9-66.8c0.9-3.4-1.1-6.9-4.5-7.8s-6.9,1.1-7.8,4.5l0,0c-12,44,20.1,82.9,61.2,82.9h280
				c35.1,0,63.6-28.5,63.6-63.6C419,375.8,411.7,360,400.1,349.6z"/>
			<path d="M231.3,421.1c-3.5,0-6.4,2.8-6.4,6.4c0,14,35,4.6,35-22.3c0-12.2-7.7-23-19.1-27c1.7-40.4-52.8-55.2-71.8-19.7
				c-15.3-4.2-31.1,4.7-35.3,19.9c-0.7,2.5-1,5.1-1,7.6c0,27,35,36.2,35,22.3c0-3.5-2.8-6.4-6.4-6.4c-8.8,0-15.9-7.1-15.9-15.9
				c0-8.8,7.1-15.9,15.9-15.9c2.8,0,5.5,0.7,7.9,2.1c3,1.8,6.9,0.7,8.7-2.3c0.2-0.4,0.4-0.8,0.5-1.2c4.3-13.4,18.6-20.8,32-16.5
				c12.4,4,19.9,16.7,17.1,29.5c-0.7,3.4,1.5,6.8,4.9,7.5c0.2,0,0.4,0.1,0.6,0.1c8.7,1,15,8.9,14,17.6
				C246.1,415.1,239.3,421.1,231.3,421.1z"/>
			<circle cx="37.2" cy="351.1" r="6.4"/>
			<circle cx="272.6" cy="325.7" r="6.4"/>
		</g>
	</g>
</g>
</svg>
