<?xml version="1.0" encoding="utf-8"?>
<!-- Generator: Adobe Illustrator 24.1.2, SVG Export Plug-In . SVG Version: 6.00 Build 0)  -->
<svg version="1.1" id="Layer_1" xmlns="http://www.w3.org/2000/svg" xmlns:xlink="http://www.w3.org/1999/xlink" x="0px" y="0px"
	 viewBox="0 0 500 500" style="enable-background:new 0 0 500 500;" xml:space="preserve">
<style type="text/css">
	.st0{fill:#00AD4E;}
</style>
<rect x="178.9" y="271" class="st0" width="48" height="171.2"/>
<rect x="91.4" y="360.1" class="st0" width="48" height="82.1"/>
<rect x="268.6" y="340.9" class="st0" width="48" height="101.3"/>
<g>
	<g>
		<g>
			<path d="M422.8,398.5c15.2,0,27.5-12.4,27.5-27.5V90.5c0-21.7-17.7-39.4-39.4-39.4h-325c-21.7,0-39.4,17.7-39.4,39.4V371
				c0,15.2,12.4,27.5,27.5,27.5h8.7v40.6H54.4c-4.4,0-7.9,3.5-7.9,7.9s3.5,7.9,7.9,7.9h388.1c4.4,0,7.9-3.5,7.9-7.9
				s-3.5-7.9-7.9-7.9h-28.4v-40.6H422.8z M62.3,90.5c0-13,10.6-23.7,23.7-23.7h325c13,0,23.7,10.6,23.7,23.7v17.4H63.1
				c-0.3,0-0.5,0-0.8,0V90.5z M133.3,439.2H98.6v-71h34.7V439.2z M221.6,439.2h-34.7V281h34.7V439.2z M310,439.2h-34.7v-91.5H310
				V439.2z M406.2,253.4h-50.5c-4.4,0-7.9,3.5-7.9,7.9v39.8c0,4.4,3.5,7.9,7.9,7.9s7.9-3.5,7.9-7.9v-31.9h34.7v170h-34.7v-85
				c0-4.4-3.5-7.9-7.9-7.9s-7.9,3.5-7.9,7.9v85h-22.1v-99.4c0-4.4-3.5-7.9-7.9-7.9h-50.5c-4.4,0-7.9,3.5-7.9,7.9v99.4h-22.1V273.1
				c0-4.4-3.5-7.9-7.9-7.9H179c-4.4,0-7.9,3.5-7.9,7.9v166.1H149v-78.9c0-4.4-3.5-7.9-7.9-7.9H90.7c-4.4,0-7.9,3.5-7.9,7.9v22.5H74
				c-6.5,0-11.8-5.3-11.8-11.8V123.6c0.3,0,0.5,0,0.8,0h371.5V371c0,6.5-5.3,11.8-11.8,11.8h-8.7V261.3
				C414.1,256.9,410.6,253.4,406.2,253.4z"/>
		</g>
	</g>
	<g>
		<g>
			<path d="M399.9,79.5H221.7c-4.4,0-7.9,3.5-7.9,7.9c0,4.4,3.5,7.9,7.9,7.9h178.2c4.4,0,7.9-3.5,7.9-7.9
				C407.8,83,404.2,79.5,399.9,79.5z"/>
		</g>
	</g>
	<g>
		<g>
			<path d="M134.1,81.8c-1.5-1.5-3.5-2.3-5.6-2.3c-2.1,0-4.1,0.8-5.6,2.3c-1.5,1.5-2.3,3.5-2.3,5.6c0,2.1,0.8,4.1,2.3,5.6
				c1.5,1.5,3.5,2.3,5.6,2.3c2.1,0,4.1-0.8,5.6-2.3c1.5-1.5,2.3-3.5,2.3-5.6C136.4,85.3,135.6,83.2,134.1,81.8z"/>
		</g>
	</g>
	<g>
		<g>
			<path d="M102.6,81.8c-1.5-1.5-3.5-2.3-5.6-2.3c-2.1,0-4.1,0.8-5.6,2.3c-1.5,1.5-2.3,3.5-2.3,5.6c0,2.1,0.8,4.1,2.3,5.6
				c1.5,1.5,3.5,2.3,5.6,2.3c2.1,0,4.1-0.8,5.6-2.3c1.5-1.5,2.3-3.5,2.3-5.6C104.9,85.3,104,83.2,102.6,81.8z"/>
		</g>
	</g>
	<g>
		<g>
			<path d="M165.7,81.8c-1.5-1.5-3.5-2.3-5.6-2.3c-2.1,0-4.1,0.8-5.6,2.3c-1.5,1.5-2.3,3.5-2.3,5.6c0,2.1,0.8,4.1,2.3,5.6
				c1.5,1.5,3.5,2.3,5.6,2.3s4.1-0.8,5.6-2.3c1.5-1.5,2.3-3.5,2.3-5.6C168,85.3,167.1,83.2,165.7,81.8z"/>
		</g>
	</g>
	<g>
		<g>
			<path d="M361.3,323.7c-1.5-1.5-3.5-2.3-5.6-2.3s-4.1,0.8-5.6,2.3c-1.5,1.5-2.3,3.5-2.3,5.6s0.8,4.1,2.3,5.6
				c1.5,1.5,3.5,2.3,5.6,2.3s4.1-0.8,5.6-2.3c1.5-1.5,2.3-3.5,2.3-5.6C363.6,327.2,362.8,325.1,361.3,323.7z"/>
		</g>
	</g>
	<g>
		<g>
			<path d="M381,158.3c-15.7,0-28.4,12.7-28.4,28.4c0,6.2,2,12,5.4,16.7l-52.4,52.4c-4.1-2.3-8.7-3.5-13.7-3.5
				c-4.5,0-8.7,1-12.5,2.9l-54.7-54.7c2.3-4.1,3.5-8.7,3.5-13.7c0-15.7-12.7-28.4-28.4-28.4s-28.4,12.7-28.4,28.4
				c0,5.5,1.6,10.6,4.3,14.9l-46.6,46.6c-4.1-2.3-8.7-3.5-13.7-3.5c-15.7,0-28.4,12.7-28.4,28.4s12.7,28.4,28.4,28.4
				s28.4-12.7,28.4-28.4c0-5-1.3-9.6-3.5-13.7l47.1-47.1c3.8,1.8,8,2.9,12.4,2.9c5,0,9.6-1.3,13.7-3.5l54.2,54.2
				c-2.7,4.3-4.2,9.4-4.2,14.9c0,15.7,12.7,28.4,28.4,28.4s28.4-12.7,28.4-28.4c0-5-1.3-9.6-3.5-13.7l53.8-53.8
				c3.2,1.3,6.7,2,10.4,2c15.7,0,28.4-12.7,28.4-28.4C409.4,171,396.6,158.3,381,158.3z M115.4,285.7c-7,0-12.6-5.7-12.6-12.6
				c0-7,5.7-12.6,12.6-12.6s12.6,5.7,12.6,12.6C128,280,122.4,285.7,115.4,285.7z M199.8,199.3c-7,0-12.6-5.7-12.6-12.6
				c0-7,5.7-12.6,12.6-12.6c7,0,12.6,5.7,12.6,12.6C212.4,193.7,206.8,199.3,199.8,199.3z M291.9,293.2c-7,0-12.6-5.7-12.6-12.6
				c0-7,5.7-12.6,12.6-12.6c7,0,12.6,5.7,12.6,12.6S298.8,293.2,291.9,293.2z M381,199.3c-7,0-12.6-5.7-12.6-12.6
				c0-7,5.7-12.6,12.6-12.6c7,0,12.6,5.7,12.6,12.6C393.6,193.7,387.9,199.3,381,199.3z"/>
		</g>
	</g>
	<g>
		<g>
			<path d="M163.5,152.8c-1.5-1.5-3.5-2.3-5.6-2.3c-2.1,0-4.1,0.8-5.6,2.3c-1.5,1.5-2.3,3.5-2.3,5.6s0.8,4.1,2.3,5.6
				c1.5,1.5,3.5,2.3,5.6,2.3c2.1,0,4.1-0.8,5.6-2.3c1.5-1.5,2.3-3.5,2.3-5.6S165,154.3,163.5,152.8z"/>
		</g>
	</g>
	<g>
		<g>
			<path d="M128.5,150.5H90.7c-4.4,0-7.9,3.5-7.9,7.9c0,4.4,3.5,7.9,7.9,7.9h37.9c4.4,0,7.9-3.5,7.9-7.9S132.9,150.5,128.5,150.5z"
				/>
		</g>
	</g>
	<g>
		<g>
			<path d="M128.5,188.3H90.7c-4.4,0-7.9,3.5-7.9,7.9s3.5,7.9,7.9,7.9h37.9c4.4,0,7.9-3.5,7.9-7.9S132.9,188.3,128.5,188.3z"/>
		</g>
	</g>
</g>
<g>
	<path class="st0" d="M281.3,230.6c0,0-12.2-4.2-12.7-5.3c-0.5-1.1-5.6-8.5-5.8-9.5s-4.2-14.9-4.2-14.9l9.3-5c0,0-4-6.9-5-9.2
		s-5.3-12.2-4.2-13c1.1-0.8,0.5-3.5,4.2-4.9c3.7-1.4,12.5,1.1,13,1.6s5,5.2,5.5,2.6c0.5-2.6-1.9-7.4-1.9-10.6c0-3.2,0.5-8.7,0.8-9.9
		c0.3-1.2,6.1-8.9,7.1-10.2c1.1-1.3,5.6-5.1,5.6-5.1s4.8,6,6.3,7.7c1.6,1.7,6.1,12.3,6.1,12.3l-2.4,13.3l13.7-3.8l7.9,3.8
		c0,0,0.5,7.4-0.3,8.3c-0.7,0.9-9.2,18.6-9.2,18.6l9.5,2.2l0.2,12.2l-8.6,15.4c0,0-15.8,6.4-16.9,6.4c-1.1,0-5-2.2-6.3-2.2"/>
	<path d="M326.3,197.9c-0.3-1-1-1.8-2-2.1c-0.2-0.1-1.8-0.6-4.2-1c10.4-11.1,7-24.1,6.2-26.6c-0.3-1-1-1.8-2-2.1
		c-0.4-0.2-8.3-2.9-17.2,0.2c0.5-2.1,0.8-4.3,0.8-6.8c0-15.9-12.1-22.9-14.5-24.2c-0.9-0.5-2-0.5-2.9-0.1c-0.6,0.3-14.7,7-14.7,24.3
		c0,2.5,0.3,4.8,0.8,6.8c-8.9-3.1-16.8-0.4-17.2-0.2c-1,0.4-1.7,1.1-2,2.1c-0.8,2.5-4.3,15.5,6.2,26.6c-2.4,0.4-4,0.9-4.2,1
		c-1,0.4-1.7,1.1-2,2.1c-0.8,2.6-4.4,16.1,6.9,27.3c6.5,6.5,13.8,8.1,19.2,8.1c2,0,3.8-0.2,5.1-0.5v28.3h6.4v-28.3
		c1.4,0.3,3.2,0.5,5.2,0.5c5.4,0,12.7-1.6,19.2-8.1C330.8,214,327.2,200.5,326.3,197.9z M288.7,222.9c-0.1,1.5-0.3,2.7-0.5,3.5
		c-3.4,0.8-12,1.7-19.3-5.7c-7.3-7.3-6.5-15.7-5.7-19.3c2.1-0.5,6.3-1,11,0.5c0.3,0.1,0.6,0.2,0.9,0.3c2.5,0.9,5,2.5,7.4,4.9
		c4.6,4.6,6,9.7,6.2,13.7V222.9z M288.2,196.7c-2.1,0.5-6.2,1-10.8-0.4c-0.5-0.2-0.9-0.3-1.4-0.5c-2.4-0.9-4.8-2.4-7.2-4.8
		c-7.3-7.3-6.5-15.7-5.7-19.3c3.4-0.7,12-1.6,19.3,5.7l0.1,0.1c0.3,0.3,0.6,0.6,0.8,0.9c3.8,4.3,5,8.9,5.2,12.6l0.2,2.2
		C288.6,194.7,288.4,195.9,288.2,196.7z M292,177.2c-1-0.6-2.4-1.7-3.9-3.2c-0.1-0.2-0.3-0.3-0.5-0.5c-2.7-3-5.3-7.5-5.3-14
		c0-10.4,6.7-15.8,9.6-17.7c3.2,2,9.6,7.4,9.6,17.7c0,6.1-2.3,10.5-4.8,13.4c-0.5,0.5-1,1-1.5,1.6
		C294.1,175.7,292.9,176.6,292,177.2z M300.1,178.7c0.5-0.5,0.9-1,1.4-1.5c7.3-7.2,15.8-6.3,19.2-5.6c0.8,3.7,1.6,12.1-5.7,19.3
		c-2.3,2.3-4.8,3.8-7.2,4.8c-0.5,0.1-0.9,0.3-1.4,0.5c-4.6,1.4-8.6,0.9-10.7,0.4c-0.3-0.9-0.5-2.5-0.5-4.5
		C295.2,188.3,296.2,183.4,300.1,178.7z M315,220.8c-7.4,7.4-15.9,6.5-19.3,5.7c-0.7-3.4-1.6-12,5.7-19.3c2.4-2.4,4.8-3.9,7.2-4.8
		c0.5-0.1,0.9-0.3,1.4-0.5c4.5-1.4,8.6-0.9,10.7-0.4C321.5,205.1,322.2,213.5,315,220.8z"/>
</g>
</svg>
