<?xml version="1.0" encoding="utf-8"?>
<!-- Generator: Adobe Illustrator 24.1.2, SVG Export Plug-In . SVG Version: 6.00 Build 0)  -->
<svg version="1.1" id="Layer_1" xmlns="http://www.w3.org/2000/svg" xmlns:xlink="http://www.w3.org/1999/xlink" x="0px" y="0px"
	 viewBox="0 0 500 500" style="enable-background:new 0 0 500 500;" xml:space="preserve">
<style type="text/css">
	.st0{fill:#B6B9BA;}
	.st1{fill:#00AD4E;}
	.st2{fill:#DADCDE;}
</style>
<g>
	<path class="st0" d="M352.1,154.9h40.9c7.6,0,13.6,6.1,13.6,13.6c0,7.5-6.1,13.6-13.6,13.6h-40.9l0,0V154.9L352.1,154.9z"/>
	<path class="st1" d="M292.9,193.4c-2-17.9-17.9-31.8-37.1-31.8c-2.2,0-4.4,0.2-6.7,0.5c-2.7-17.2-18.2-30.3-36.8-30.3
		c-1.6,0-3.2,0.1-4.8,0.3c-11-18-34.4-23.6-52.4-12.5c-5.1,3.1-9.4,7.5-12.5,12.5c-1.6-0.2-3.2-0.3-4.8-0.3
		c-18.7,0-34.2,13.2-36.8,30.3c-2.2-0.4-4.4-0.5-6.7-0.5c-19.2,0-35,13.9-37.1,31.8c-14.6,4.8-25.1,18.2-25.1,33.8
		c0,19.8,16.7,35.8,37.3,35.8c4,0,7.9-0.6,11.7-1.8c17.6,25.9,53,43.5,94,43.5s76.4-17.7,94-43.5c3.8,1.2,7.7,1.9,11.7,1.8
		c20.6,0,37.3-16,37.3-35.8C318,211.6,307.5,198.3,292.9,193.4L292.9,193.4z"/>
	<path class="st2" d="M324.7,331.9L100,372.8L25.1,263.8h313.3L324.7,331.9z"/>
	
		<ellipse transform="matrix(7.088900e-02 -0.9975 0.9975 7.088900e-02 -279.003 446.1783)" class="st0" cx="100" cy="372.9" rx="40.9" ry="40.9"/>
	<circle class="st0" cx="100" cy="372.9" r="13.6"/>
	<path class="st0" d="M25.1,236.6h327c7.6,0,13.6,6.1,13.6,13.6l0,0c0,7.6-6.1,13.6-13.6,13.6h-327c-7.6,0-13.6-6.1-13.6-13.6l0,0
		C11.5,242.7,17.6,236.6,25.1,236.6z"/>
	<path d="M100,393.2c11.3,0,20.5-9.2,20.5-20.5c0-11.3-9.2-20.5-20.5-20.5s-20.5,9.2-20.5,20.5C79.6,384.1,88.8,393.2,100,393.2z
		 M100,366c3.7,0,6.9,3,6.9,6.9c0,3.7-3,6.9-6.9,6.9c-3.7,0-6.9-3-6.9-6.9C93.2,369,96.3,366,100,366z"/>
	<path d="M4.7,413.7c0,3.7,3,6.9,6.9,6.9h367.7c3.7,0,6.9-3,6.9-6.9c0-3.7-3-6.9-6.9-6.9h-61.8c1.6-2.8,2.7-5.9,3.2-9.1L344,270.7h8
		c11.3-0.1,20.4-9.3,20.3-20.6c-0.1-10.9-8.7-19.8-19.7-20.2L356,189h36.8c11.3,0,20.5-9.2,20.5-20.5s-9.2-20.5-20.5-20.5h-40.8l0,0
		c-3.6,0-6.5,2.7-6.8,6.2l0,0l-6.3,75.5h-14.2c0.1-0.9,0.1-1.7,0.1-2.6c0-16.8-10.2-31.9-25.9-38.7c-4.3-19.4-22.2-33.6-43.2-33.6
		c-0.4,0-1,0-1.4,0c-5.7-17.4-22.8-29.8-42.1-29.8c-0.4,0-0.9,0-1.3,0c-15-19.8-43.3-23.8-63.1-8.8c-3.3,2.5-6.3,5.4-8.8,8.8
		c-0.4,0-0.9,0-1.3,0c-19.3,0-36.4,12.5-42.1,29.8c-0.4,0-1,0-1.4,0c-21,0-38.8,14.2-43.2,33.6c-15.6,6.9-25.8,22-25.8,38.7
		c0,0.9,0,1.7,0.1,2.6h-0.1c-11.3,0-20.4,9.2-20.4,20.5c0,9.8,6.9,18.2,16.6,20l46.5,67.6C48.5,355.6,47.2,385.7,65,405
		c0.5,0.6,1.2,1.2,1.8,1.9H11.6C7.7,406.9,4.7,410,4.7,413.7L4.7,413.7z M358.3,161.7h34.6c3.7,0,6.9,3,6.9,6.9c0,3.7-3,6.9-6.9,6.9
		h-35.7L358.3,161.7z M133.4,406.9c9.2-9,14.3-21.3,14.3-34.1c0-0.6,0-1.2,0-1.8l84.2-15.3l-1.1,0.8l39.2,50.3L133.4,406.9
		L133.4,406.9z M307.3,395.6c-1.2,7.4-8.2,12.4-15.7,11.1c-3.4-0.5-6.4-2.4-8.5-5.1l-37.6-48.3l70.9-12.9L307.3,395.6z M59.2,199.9
		c2.5-0.8,4.4-3,4.6-5.7c1.7-14.7,14.8-25.7,30.3-25.7c1.9,0,3.6,0.2,5.5,0.4c3.7,0.6,7.2-1.9,7.8-5.5v-0.1
		c2.2-14.1,15.2-24.7,30.2-24.7c1.3,0,2.7,0.1,4,0.3c2.7,0.4,5.3-1,6.7-3.3c9.1-14.7,28.4-19.2,43.1-10.1c4.1,2.6,7.6,6.1,10.1,10.1
		c1.3,2.3,4,3.6,6.7,3.3c1.3-0.2,2.7-0.3,4-0.3c15,0,27.9,10.6,30.2,24.7c0.6,3.7,4.1,6.2,7.7,5.7h0.1c1.8-0.4,3.6-0.4,5.5-0.4
		c15.6,0,28.6,11,30.3,25.7c0.3,2.7,2.1,4.8,4.6,5.7c12.2,4.1,20.5,15,20.5,27.3c0,0.9-0.1,1.7-0.1,2.6H38.9
		c-0.1-0.9-0.1-1.7-0.1-2.6C38.8,215,47,204,59.2,199.9L59.2,199.9z M18.3,250.2c0-3.7,3-6.8,6.9-6.9h326.9c3.7,0,6.9,3,6.9,6.9
		c0,3.7-3,6.9-6.9,6.9h-327C21.3,257.1,18.3,254,18.3,250.2z M38.1,270.7h292l-11.1,55.4l-173.8,31.6c-8.4-24.9-35.3-38.4-60.3-30.1
		c-2,0.7-4.1,1.5-6.1,2.5L38.1,270.7z M66,372.9c0-18.8,15.2-34.1,34.1-34.1c18.8,0,34.1,15.2,34.1,34.1c0,18.8-15.2,34.1-34.1,34.1
		l0,0C81.2,406.9,66,391.6,66,372.9z"/>
</g>
<g>
	<g>
		<path d="M490,241.3h-93.4c-4,0-7.3,3.3-7.3,7.3s3.3,7.3,7.3,7.3H490c4,0,7.3-3.3,7.3-7.3S494.1,241.3,490,241.3z"/>
	</g>
</g>
<g>
	<g>
		<path d="M466.4,211.3h-93.4c-4,0-7.3,3.3-7.3,7.3c0,4,3.3,7.3,7.3,7.3h93.4c4,0,7.3-3.3,7.3-7.3
			C473.6,214.5,470.4,211.3,466.4,211.3z"/>
	</g>
</g>
<g>
	<g>
		<path d="M468.2,270.4h-93.4c-4,0-7.3,3.3-7.3,7.3c0,4,3.3,7.3,7.3,7.3h93.4c4,0,7.3-3.3,7.3-7.3
			C475.5,273.6,472.3,270.4,468.2,270.4z"/>
	</g>
</g>
<g>
	<g>
		<path d="M489.9,379.2H341.6c-4,0-7.3,3.3-7.3,7.3c0,4,3.3,7.3,7.3,7.3h148.3c4,0,7.3-3.3,7.3-7.3
			C497.2,382.5,493.9,379.2,489.9,379.2z"/>
	</g>
</g>
<g>
	<g>
		<path d="M442.9,351.7h-96.3c-4,0-7.3,3.3-7.3,7.3c0,4,3.3,7.3,7.3,7.3h96.3c4,0,7.3-3.3,7.3-7.3
			C450.1,355,446.9,351.7,442.9,351.7z"/>
	</g>
</g>
<g>
	<g>
		<path d="M451.3,296.7H355c-4,0-7.3,3.3-7.3,7.3c0,4,3.3,7.3,7.3,7.3h96.3c4,0,7.3-3.3,7.3-7.3
			C458.5,299.9,455.3,296.7,451.3,296.7z"/>
	</g>
</g>
<g>
	<g>
		<path d="M407.8,323.3h-56.5c-4,0-7.3,3.3-7.3,7.3c0,4,3.3,7.3,7.3,7.3h56.5c4,0,7.3-3.3,7.3-7.3
			C415.1,326.5,411.8,323.3,407.8,323.3z"/>
	</g>
</g>
<g>
	<g>
		<path d="M486.3,323.3h-6.7c-4,0-7.3,3.3-7.3,7.3c0,4,3.3,7.3,7.3,7.3h6.7c4,0,7.3-3.3,7.3-7.3
			C493.5,326.5,490.3,323.3,486.3,323.3z"/>
	</g>
</g>
</svg>
