<?xml version="1.0" encoding="utf-8"?>
<!-- Generator: Adobe Illustrator 24.1.2, SVG Export Plug-In . SVG Version: 6.00 Build 0)  -->
<svg version="1.1" id="Layer_1" xmlns="http://www.w3.org/2000/svg" xmlns:xlink="http://www.w3.org/1999/xlink" x="0px" y="0px"
	 viewBox="0 0 500 500" style="enable-background:new 0 0 500 500;" xml:space="preserve">
<style type="text/css">
	.st0{fill:#B6B9BA;}
	.st1{fill:#00AD4E;}
	.st2{fill:#DADCDE;}
</style>
<g>
	<path class="st0" d="M417,139.9h45.9c8.5,0,15.3,6.9,15.3,15.3s-6.9,15.3-15.3,15.3H417l0,0V139.9L417,139.9z"/>
	<path class="st1" d="M350.5,183.2c-2.3-20.1-20.1-35.7-41.7-35.7c-2.5,0-5,0.2-7.5,0.6c-3-19.3-20.4-34.1-41.4-34.1
		c-1.8,0-3.6,0.1-5.4,0.3c-12.4-20.2-38.7-26.5-58.9-14.1c-5.7,3.5-10.6,8.4-14.1,14.1c-1.8-0.2-3.6-0.3-5.4-0.3
		c-21,0-38.4,14.8-41.4,34.1c-2.5-0.4-5-0.6-7.5-0.6c-21.6,0-39.3,15.6-41.7,35.7c-16.4,5.4-28.2,20.4-28.2,38
		c0,22.2,18.8,40.2,41.9,40.2c4.5,0,8.9-0.7,13.2-2c19.8,29.1,59.6,48.9,105.6,48.9s85.8-19.9,105.6-48.9c4.3,1.4,8.7,2.1,13.2,2
		c23.1,0,41.9-18,41.9-40.2C378.7,203.6,366.9,188.7,350.5,183.2L350.5,183.2z"/>
	<path class="st2" d="M386.3,338.8l-252.5,45.9L49.6,262.3h352L386.3,338.8z"/>
	<circle class="st0" cx="133.8" cy="384.8" r="45.9"/>
	<circle class="st0" cx="133.8" cy="384.8" r="15.3"/>
	<path class="st0" d="M49.6,231.7H417c8.5,0,15.3,6.9,15.3,15.3l0,0c0,8.5-6.9,15.3-15.3,15.3H49.6c-8.5,0-15.3-6.9-15.3-15.3l0,0
		C34.3,238.6,41.2,231.7,49.6,231.7z"/>
	<path d="M133.8,407.7c12.7,0,23-10.3,23-23c0-12.7-10.3-23-23-23c-12.7,0-23,10.3-23,23C110.9,397.4,121.2,407.7,133.8,407.7z
		 M133.8,377.1c4.2,0,7.7,3.4,7.7,7.7c0,4.2-3.4,7.7-7.7,7.7c-4.2,0-7.7-3.4-7.7-7.7C126.2,380.5,129.6,377.1,133.8,377.1z"/>
	<path d="M26.7,430.7c0,4.2,3.4,7.7,7.7,7.7h413.2c4.2,0,7.7-3.4,7.7-7.7c0-4.2-3.4-7.7-7.7-7.7h-69.4c1.8-3.2,3-6.6,3.6-10.2
		L407.9,270h9c12.7-0.1,22.9-10.5,22.8-23.2c-0.1-12.3-9.8-22.3-22.1-22.7l3.8-45.9h41.4c12.7,0,23-10.3,23-23c0-12.7-10.3-23-23-23
		H417v0c-4,0-7.3,3-7.6,7h0l-7.1,84.8h-16c0.1-1,0.1-1.9,0.1-2.9c0-18.9-11.5-35.8-29.1-43.5c-4.8-21.8-24.9-37.8-48.5-37.8
		c-0.5,0-1.1,0-1.6,0c-6.4-19.5-25.6-33.5-47.3-33.5c-0.5,0-1,0-1.5,0c-16.8-22.3-48.6-26.7-70.9-9.9c-3.7,2.8-7.1,6.1-9.9,9.9
		c-0.5,0-1,0-1.5,0c-21.7,0-40.9,14-47.3,33.5c-0.5,0-1.1,0-1.6,0c-23.6,0-43.6,15.9-48.5,37.8c-17.5,7.7-29,24.7-29,43.5
		c0,1,0,1.9,0.1,2.9h-0.1c-12.7,0-22.9,10.3-22.9,23c0,11,7.8,20.5,18.6,22.5l52.2,75.9c-21.7,20-23.1,53.8-3.1,75.5
		c0.6,0.7,1.3,1.4,2,2.1h-62C30.1,423,26.7,426.5,26.7,430.7L26.7,430.7z M424,147.5h38.9c4.2,0,7.7,3.4,7.7,7.7
		c0,4.2-3.4,7.7-7.7,7.7h-40.1L424,147.5z M171.3,423c10.3-10.1,16.1-23.9,16.1-38.3c0-0.7,0-1.3,0-2l94.6-17.2l-1.2,0.9l44,56.5
		H171.3z M366.7,410.3c-1.4,8.3-9.2,13.9-17.6,12.5c-3.8-0.6-7.2-2.7-9.5-5.7l-42.3-54.3l79.7-14.5L366.7,410.3z M87.9,190.5
		c2.8-0.9,4.9-3.4,5.2-6.4c1.9-16.5,16.6-28.9,34.1-28.9c2.1,0,4.1,0.2,6.2,0.5c4.2,0.7,8.1-2.1,8.8-6.2c0,0,0-0.1,0-0.1
		c2.5-15.8,17.1-27.7,33.9-27.7c1.5,0,3,0.1,4.5,0.3c3,0.4,6-1.1,7.5-3.7c10.2-16.5,31.9-21.6,48.4-11.4c4.6,2.9,8.5,6.8,11.4,11.4
		c1.5,2.6,4.5,4.1,7.5,3.7c1.5-0.2,3-0.3,4.5-0.3c16.8,0,31.4,11.9,33.9,27.7c0.7,4.2,4.6,7,8.7,6.4c0,0,0.1,0,0.1,0
		c2-0.4,4.1-0.5,6.2-0.5c17.5,0,32.1,12.4,34.1,28.9c0.3,3,2.4,5.4,5.2,6.4c13.7,4.6,23,16.9,23,30.7c0,1-0.1,1.9-0.1,2.9H65.1
		c-0.1-1-0.1-1.9-0.1-2.9C65,207.4,74.2,195.1,87.9,190.5L87.9,190.5z M42,247c0-4.2,3.4-7.6,7.7-7.7H417c4.2,0,7.7,3.4,7.7,7.7
		c0,4.2-3.4,7.7-7.7,7.7H49.6C45.4,254.7,42,251.2,42,247z M64.2,270h328.1l-12.5,62.3l-195.3,35.5c-9.4-28-39.7-43.2-67.7-33.8
		c-2.3,0.8-4.6,1.7-6.8,2.8L64.2,270z M95.6,384.8c0-21.1,17.1-38.3,38.3-38.3c21.1,0,38.3,17.1,38.3,38.3
		c0,21.1-17.1,38.3-38.3,38.3h0C112.7,423,95.6,405.9,95.6,384.8z"/>
</g>
</svg>
