<?xml version="1.0" encoding="utf-8"?>
<!-- Generator: Adobe Illustrator 24.1.2, SVG Export Plug-In . SVG Version: 6.00 Build 0)  -->
<svg version="1.1" id="Layer_1" xmlns="http://www.w3.org/2000/svg" xmlns:xlink="http://www.w3.org/1999/xlink" x="0px" y="0px"
	 viewBox="0 0 500 500" style="enable-background:new 0 0 500 500;" xml:space="preserve">
<style type="text/css">
	.st0{fill:#00AD4E;}
	.st1{fill:#DADCDE;}
</style>
<g>
	<g>
		<g>
			<path class="st0" d="M240.7,129.5c11.1,10.9,17.2,25.8,17,41.3c0.3,15.7-5.9,30.8-17,41.8c-22.9,23.1-60.1,23.3-83.2,0.4
				c-11.3-11.2-17.5-26.4-17.4-42.2c-0.2-15.5,6-30.4,17-41.3c22.5-23.1,59.4-23.6,82.5-1.1C239.9,128.7,240.3,129.1,240.7,129.5z"
				/>
			<path class="st0" d="M247.4,255.7c40.7,9.8,69.4,46.4,69.2,88.3v9.8H81.2V344c0.1-42.1,29.2-78.7,70.2-88.3
				c13.9,10.1,30.8,15.6,48,15.5C216.6,271.2,233.4,265.7,247.4,255.7z"/>
		</g>
		<g>
			<path d="M198.9,240.5c-38.2,0-69.2-31-69.2-69.2c0-0.2,0-0.3,0-0.5c0.1-18.3,7.3-35.9,20.1-49c27.2-26.9,70.9-26.9,98.1,0
				c27,27.3,27,71.3,0,98.6C234.9,233.3,217.2,240.5,198.9,240.5z M198.9,122.3c-13,0-25.4,5.2-34.6,14.5
				c-9.1,9-14.2,21.3-13.9,34.1c-0.3,26.8,21.2,48.8,48,49.1c13.2,0.2,25.9-5.1,35.1-14.5c9.2-9.1,14.2-21.6,13.9-34.6
				c0.2-12.8-4.8-25.1-13.9-34.1C224.3,127.5,211.8,122.3,198.9,122.3z"/>
			<path d="M249.4,239.4c-1.9-0.4-3.9-0.1-5.7,0.6c-1.1,0.3-2.1,0.8-3.1,1.5c-9.3,6.7-19.8,10.9-30.7,12.6
				c-18.2,2.7-37.2-1.4-52.9-12.6c-2.3-1.9-5.3-2.7-8.3-2.1c-45.4,10.9-77.6,51.4-77.9,98.1v10.3c0,5.7,4.6,10.3,10.3,10.3h235.4
				c5.7,0,10.3-4.6,10.3-10.3v-10.3C326.4,291,294.5,250.7,249.4,239.4z M91.5,337.5c0.4-35.2,23.6-66.1,57.3-76.2
				c14,8.8,30.1,13.7,46.7,14.2c4.7,0.2,9.4,0,14.1-0.5c0.2,0,0.5-0.1,0.7-0.1c0.8-0.1,1.7-0.2,2.5-0.3c0.6-0.1,1.2-0.2,1.7-0.3
				c0.4-0.1,0.9-0.1,1.3-0.2c0.9-0.2,1.7-0.3,2.6-0.5c0.1,0,0.2,0,0.3-0.1c10.8-2.3,21.1-6.5,30.5-12.4c33.8,10.1,57,41.1,57.1,76.3
				H91.5z"/>
		</g>
	</g>
	<g>
		<path class="st0" d="M420.4,221.7c9.2,9.2,9.2,24.2,0,33.5l-12,12l-41.4-41.4l12-12c9.2-9.2,24.2-9.2,33.5,0L420.4,221.7z"/>
		<path class="st0" d="M408.5,267.2L300.2,375.5h0l-41.4-41.4l108.3-108.3L408.5,267.2z"/>
		<path class="st1" d="M258.7,336.1c0,0,43.8,41.5,41.5,41.5c-2.3,0-56.4,13.8-56.4,13.8l15-57.3"/>
		<path d="M417.3,209c-11.9-11.9-31.2-11.9-43,0L253.6,329.7c-0.8,0.8-1.4,1.9-1.7,3L236,389.9c-0.7,2.3,0,4.9,1.7,6.6
			c1.7,1.7,4.2,2.4,6.6,1.7l57.3-15.9c1.1-0.3,2.2-0.9,3-1.7l0.4-0.4L425.2,260c11.9-11.9,11.9-31.2,0-43L417.3,209z M261.9,346.8
			l25.4,25.4l-35.2,9.7L261.9,346.8z M300.2,375.5L300.2,375.5l4.4,4.4L300.2,375.5z M300.2,365.9l-31.9-31.9l98.8-98.8l31.8,31.8
			L300.2,365.9z M415.6,250.4l-7.2,7.2l-31.8-31.8l7.2-7.2c6.6-6.6,17.3-6.6,23.9,0l7.9,7.9C422.2,233.1,422.2,243.8,415.6,250.4z"
			/>
	</g>
</g>
</svg>
