<?xml version="1.0" encoding="utf-8"?>
<!-- Generator: Adobe Illustrator 24.1.2, SVG Export Plug-In . SVG Version: 6.00 Build 0)  -->
<svg version="1.1" id="Layer_1" xmlns="http://www.w3.org/2000/svg" xmlns:xlink="http://www.w3.org/1999/xlink" x="0px" y="0px"
	 viewBox="0 0 500 500" style="enable-background:new 0 0 500 500;" xml:space="preserve">
<style type="text/css">
	.st0{fill:#00AD4E;}
</style>
<g>
	<g>
		<g>
			<path class="st0" d="M403.8,162.6c9.8,9.6,15.2,22.7,15,36.4c0.2,13.8-5.2,27.1-15,36.8c-20.1,20.3-52.9,20.5-73.3,0.4
				c-9.9-9.8-15.5-23.2-15.4-37.2c-0.2-13.7,5.2-26.8,15-36.4c19.8-20.3,52.3-20.8,72.6-1C403.2,161.9,403.5,162.2,403.8,162.6z"/>
			<path class="st0" d="M409.7,272.8c35.9,8.6,61.1,40.8,60.9,77.7v8.6H263.4v-8.6c0.1-37.1,25.7-69.3,61.8-77.7
				c12.3,8.9,27.1,13.7,42.3,13.6C382.6,286.4,397.4,281.6,409.7,272.8z"/>
		</g>
		<g>
			<path d="M367,259.4c-33.6,0-60.9-27.3-60.9-60.9c0-0.2,0-0.3,0-0.5c0.1-16.1,6.4-31.6,17.7-43.2c23.9-23.7,62.4-23.7,86.4,0
				c23.7,24.1,23.7,62.7,0,86.8C398.7,253.1,383.2,259.4,367,259.4z M367,155.3c-11.4,0-22.4,4.6-30.5,12.7
				c-8,7.9-12.5,18.7-12.3,30c-0.3,23.6,18.6,42.9,42.2,43.2c11.6,0.1,22.8-4.5,30.9-12.8c8.1-8.1,12.5-19.1,12.3-30.5
				c0.2-11.3-4.2-22.1-12.3-30C389.4,159.9,378.5,155.3,367,155.3z"/>
			<path d="M411.6,258.5c-1.7-0.3-3.5-0.1-5,0.5c-0.9,0.3-1.8,0.7-2.7,1.3c-8.2,5.9-17.5,9.6-27,11.1c-16,2.4-32.8-1.3-46.6-11.1
				c-2-1.7-4.7-2.4-7.3-1.8c-40,9.6-68.3,45.2-68.6,86.4v9.1c0,5,4.1,9.1,9.1,9.1h207.3c5,0,9.1-4.1,9.1-9.1v-9.1
				C479.3,303.9,451.3,268.4,411.6,258.5z M272.5,344.8c0.3-31,20.8-58.2,50.5-67.1c12.3,7.7,26.5,12.1,41.1,12.5
				c4.1,0.2,8.3,0,12.4-0.5c0.2,0,0.4-0.1,0.6-0.1c0.7-0.1,1.5-0.2,2.2-0.3c0.5-0.1,1-0.2,1.5-0.2c0.4-0.1,0.8-0.1,1.1-0.2
				c0.8-0.1,1.5-0.3,2.3-0.4c0.1,0,0.2,0,0.2-0.1c9.5-2,18.6-5.7,26.8-10.9c29.7,8.9,50.2,36.2,50.3,67.2H272.5z"/>
		</g>
	</g>
	<g>
		<g>
			<path class="st0" d="M169.3,161.7c9.8,9.6,15.2,22.7,15,36.4c0.2,13.8-5.2,27.1-15,36.8c-20.1,20.3-52.9,20.5-73.3,0.4
				c-9.9-9.8-15.5-23.2-15.4-37.2c-0.2-13.7,5.2-26.8,15-36.4c19.8-20.3,52.3-20.8,72.6-1C168.6,161,168.9,161.3,169.3,161.7z"/>
			<path class="st0" d="M175.2,272.8c35.9,8.6,61.1,40.8,60.9,77.7v8.6H28.8v-8.6c0.1-37.1,25.7-69.3,61.8-77.7
				c12.3,8.9,27.1,13.7,42.3,13.6C148.1,286.4,162.8,281.6,175.2,272.8z"/>
		</g>
		<g>
			<path d="M132.5,259.4c-33.6,0-60.9-27.3-60.9-60.9c0-0.2,0-0.3,0-0.5c0.1-16.1,6.4-31.6,17.7-43.2c23.9-23.7,62.4-23.7,86.4,0
				c23.7,24.1,23.7,62.7,0,86.8C164.2,253.1,148.6,259.4,132.5,259.4z M132.5,155.3c-11.4,0-22.4,4.6-30.5,12.7
				c-8,7.9-12.5,18.7-12.3,30c-0.3,23.6,18.6,42.9,42.2,43.2c11.6,0.1,22.8-4.5,30.9-12.8c8.1-8.1,12.5-19.1,12.3-30.5
				c0.2-11.3-4.2-22.1-12.3-30C154.8,159.9,143.9,155.3,132.5,155.3z"/>
			<path d="M177,258.5c-1.7-0.3-3.5-0.1-5,0.5c-0.9,0.3-1.8,0.7-2.7,1.3c-8.2,5.9-17.5,9.6-27,11.1c-16,2.4-32.8-1.3-46.6-11.1
				c-2-1.7-4.7-2.4-7.3-1.8c-40,9.6-68.3,45.2-68.6,86.4v9.1c0,5,4.1,9.1,9.1,9.1h207.3c5,0,9.1-4.1,9.1-9.1v-9.1
				C244.7,303.9,216.7,268.4,177,258.5z M37.9,344.8c0.3-31,20.8-58.2,50.5-67.1c12.3,7.7,26.5,12.1,41.1,12.5
				c4.1,0.2,8.3,0,12.4-0.5c0.2,0,0.4-0.1,0.6-0.1c0.7-0.1,1.5-0.2,2.2-0.3c0.5-0.1,1-0.2,1.5-0.2c0.4-0.1,0.8-0.1,1.1-0.2
				c0.8-0.1,1.5-0.3,2.3-0.4c0.1,0,0.2,0,0.2-0.1c9.5-2,18.6-5.7,26.8-10.9c29.7,8.9,50.2,36.2,50.3,67.2H37.9z"/>
		</g>
	</g>
	<g>
		<g>
			<path class="st0" d="M286.9,162.7c9.8,9.6,15.2,22.7,15,36.4c0.2,13.8-5.2,27.1-15,36.8c-20.1,20.3-52.9,20.5-73.3,0.4
				c-9.9-9.8-15.5-23.2-15.4-37.2c-0.2-13.7,5.2-26.8,15-36.4c19.8-20.3,52.3-20.8,72.6-1C286.3,162.1,286.6,162.4,286.9,162.7z"/>
			<path class="st0" d="M292.8,273c35.9,8.6,61.1,40.8,60.9,77.7v8.6H146.5v-8.6c0.1-37.1,25.7-69.3,61.8-77.7
				c12.3,8.9,27.1,13.7,42.3,13.6C265.7,286.6,280.5,281.8,292.8,273z"/>
		</g>
		<g>
			<path d="M250.1,259.6c-33.6,0-60.9-27.3-60.9-60.9c0-0.2,0-0.3,0-0.5c0.1-16.1,6.4-31.6,17.7-43.2c23.9-23.7,62.4-23.7,86.4,0
				c23.7,24.1,23.7,62.7,0,86.8C281.8,253.2,266.3,259.6,250.1,259.6z M250.1,155.5c-11.4,0-22.4,4.6-30.5,12.7
				c-8,7.9-12.5,18.7-12.3,30c-0.3,23.6,18.6,42.9,42.2,43.2c11.6,0.1,22.8-4.5,30.9-12.8c8.1-8.1,12.5-19.1,12.3-30.5
				c0.2-11.3-4.2-22.1-12.3-30C272.5,160.1,261.6,155.5,250.1,155.5z"/>
			<path d="M294.7,258.6c-1.7-0.3-3.5-0.1-5,0.5c-0.9,0.3-1.8,0.7-2.7,1.3c-8.2,5.9-17.5,9.6-27,11.1c-16,2.4-32.8-1.3-46.6-11.1
				c-2-1.7-4.7-2.4-7.3-1.8c-40,9.6-68.3,45.2-68.6,86.4v9.1c0,5,4.1,9.1,9.1,9.1h207.3c5,0,9.1-4.1,9.1-9.1V345
				C362.4,304.1,334.4,268.6,294.7,258.6z M155.6,345c0.3-31,20.8-58.2,50.5-67.1c12.3,7.7,26.5,12.1,41.1,12.5
				c4.1,0.2,8.3,0,12.4-0.5c0.2,0,0.4-0.1,0.6-0.1c0.7-0.1,1.5-0.2,2.2-0.3c0.5-0.1,1-0.2,1.5-0.2c0.4-0.1,0.8-0.1,1.1-0.2
				c0.8-0.1,1.5-0.3,2.3-0.4c0.1,0,0.2,0,0.2-0.1c9.5-2,18.6-5.7,26.8-10.9c29.7,8.9,50.2,36.2,50.3,67.2H155.6z"/>
		</g>
	</g>
</g>
</svg>
