<?xml version="1.0" encoding="utf-8"?>
<!-- Generator: Adobe Illustrator 24.1.2, SVG Export Plug-In . SVG Version: 6.00 Build 0)  -->
<svg version="1.1" id="Layer_1" xmlns="http://www.w3.org/2000/svg" xmlns:xlink="http://www.w3.org/1999/xlink" x="0px" y="0px"
	 viewBox="0 0 900 418.4" style="enable-background:new 0 0 900 418.4;" xml:space="preserve">
<style type="text/css">
	.st0{fill:#FFFFFF;}
</style>
<g>
	<path class="st0" d="M36.7,300.3h4l9.3,21.9l9.6-21.9h0.7l9.7,21.9l9.4-21.9h4l-13.1,30.2h-0.7l-9.7-21.6l-9.6,21.6h-0.7
		L36.7,300.3z"/>
	<path class="st0" d="M91.1,300.3h4l9.3,21.9l9.6-21.9h0.7l9.7,21.9l9.4-21.9h4l-13.1,30.2H124l-9.7-21.6l-9.6,21.6H104L91.1,300.3z
		"/>
	<path class="st0" d="M145.5,300.3h4l9.3,21.9l9.6-21.9h0.7l9.7,21.9l9.4-21.9h4l-13.1,30.2h-0.7l-9.7-21.6l-9.6,21.6h-0.7
		L145.5,300.3z"/>
	<path class="st0" d="M208.3,324.3c0.9,0,1.7,0.3,2.4,1c0.7,0.7,1,1.5,1,2.4c0,0.9-0.3,1.8-1,2.4s-1.5,1-2.4,1c-0.9,0-1.7-0.3-2.4-1
		c-0.7-0.7-1-1.5-1-2.4c0-1,0.3-1.8,1-2.4C206.6,324.7,207.4,324.3,208.3,324.3z"/>
	<path class="st0" d="M225.7,330.4l5.8-40.8h0.7l16.6,33.5l16.4-33.5h0.7l5.9,40.8h-4l-4-29.2l-14.4,29.2h-1L233.7,301l-4,29.4
		H225.7z"/>
	<path class="st0" d="M316.5,300.3v30.2h-3.8v-5.2c-1.6,2-3.5,3.5-5.5,4.5c-2,1-4.2,1.5-6.6,1.5c-4.3,0-7.9-1.5-10.9-4.6
		c-3-3.1-4.5-6.9-4.5-11.3c0-4.3,1.5-8.1,4.6-11.2s6.7-4.6,11-4.6c2.5,0,4.7,0.5,6.7,1.6c2,1.1,3.8,2.6,5.3,4.7v-5.5H316.5z
		 M301,303.2c-2.2,0-4.2,0.5-6,1.6c-1.8,1.1-3.3,2.6-4.4,4.5c-1.1,1.9-1.6,4-1.6,6.1c0,2.1,0.5,4.2,1.6,6.1s2.6,3.5,4.4,4.5
		s3.8,1.6,5.9,1.6c2.1,0,4.1-0.5,6-1.6c1.9-1.1,3.4-2.5,4.4-4.4c1-1.8,1.5-3.9,1.5-6.2c0-3.5-1.1-6.4-3.4-8.8
		C307.1,304.4,304.3,303.2,301,303.2z"/>
	<path class="st0" d="M330,300.3h22.2L335,327h16.5v3.4h-23.2l17.1-26.8H330V300.3z"/>
	<path class="st0" d="M362.3,300.3h4v4.4c1.2-1.7,2.4-3,3.7-3.9c1.3-0.9,2.7-1.3,4.1-1.3c1.1,0,2.2,0.3,3.4,1l-2,3.3
		c-0.8-0.4-1.5-0.5-2.1-0.5c-1.3,0-2.5,0.5-3.7,1.6s-2.1,2.7-2.7,5c-0.5,1.7-0.7,5.2-0.7,10.4v10.2h-4V300.3z"/>
	<path class="st0" d="M418.1,300.3v30.2h-3.8v-5.2c-1.6,2-3.5,3.5-5.5,4.5c-2,1-4.2,1.5-6.6,1.5c-4.3,0-7.9-1.5-10.9-4.6
		c-3-3.1-4.5-6.9-4.5-11.3c0-4.3,1.5-8.1,4.6-11.2s6.7-4.6,11-4.6c2.5,0,4.7,0.5,6.7,1.6c2,1.1,3.8,2.6,5.3,4.7v-5.5H418.1z
		 M402.6,303.2c-2.2,0-4.2,0.5-6,1.6c-1.8,1.1-3.3,2.6-4.4,4.5c-1.1,1.9-1.6,4-1.6,6.1c0,2.1,0.5,4.2,1.6,6.1s2.6,3.5,4.4,4.5
		s3.8,1.6,5.9,1.6c2.1,0,4.1-0.5,6-1.6c1.9-1.1,3.4-2.5,4.4-4.4c1-1.8,1.5-3.9,1.5-6.2c0-3.5-1.1-6.4-3.4-8.8
		C408.8,304.4,406,303.2,402.6,303.2z"/>
	<path class="st0" d="M459.5,320.4l3.3,1.7c-1.1,2.1-2.3,3.8-3.7,5.1c-1.4,1.3-3,2.3-4.7,3c-1.8,0.7-3.8,1-6,1
		c-4.9,0-8.8-1.6-11.6-4.8s-4.2-6.9-4.2-10.9c0-3.8,1.2-7.2,3.5-10.2c3-3.8,7-5.7,12-5.7c5.1,0,9.3,2,12.3,5.9
		c2.2,2.8,3.3,6.2,3.3,10.3h-27.2c0.1,3.5,1.2,6.4,3.4,8.6c2.2,2.2,4.8,3.4,8,3.4c1.5,0,3-0.3,4.5-0.8c1.5-0.5,2.7-1.2,3.7-2.1
		C457.2,323.8,458.3,322.4,459.5,320.4z M459.5,312.3c-0.5-2.1-1.3-3.7-2.3-5c-1-1.2-2.3-2.2-3.9-3c-1.6-0.8-3.3-1.1-5.1-1.1
		c-3,0-5.5,1-7.6,2.9c-1.6,1.4-2.7,3.5-3.5,6.2H459.5z"/>
	<path class="st0" d="M478.2,288.6h3.9v17.1c1.6-2.1,3.3-3.6,5.2-4.6c1.9-1,3.9-1.5,6.1-1.5c2.3,0,4.3,0.6,6,1.7
		c1.7,1.1,3,2.7,3.9,4.6c0.8,1.9,1.2,5,1.2,9.1v15.5h-3.9V316c0-3.5-0.1-5.8-0.4-7c-0.5-2-1.4-3.5-2.6-4.5c-1.3-1-2.9-1.5-5-1.5
		c-2.3,0-4.5,0.8-6.3,2.3c-1.9,1.6-3.1,3.5-3.7,5.8c-0.4,1.5-0.6,4.2-0.6,8.2v11.1h-3.9V288.6z"/>
	<path class="st0" d="M517.6,313.4h15.3v3.4h-15.3V313.4z"/>
	<path class="st0" d="M546.9,289.6h8c3.2,0,5.7,0.4,7.5,1.2c1.7,0.8,3.1,1.9,4.1,3.5c1,1.6,1.5,3.4,1.5,5.3c0,1.8-0.4,3.5-1.3,5
		c-0.9,1.5-2.2,2.7-3.9,3.6c2.1,0.7,3.8,1.6,4.9,2.5c1.1,1,2,2.1,2.7,3.5c0.6,1.4,1,2.9,1,4.5c0,3.3-1.2,6-3.6,8.3
		c-2.4,2.3-5.6,3.4-9.6,3.4h-11.2V289.6z M550.9,293.6v13.1h2.3c2.8,0,4.9-0.3,6.3-0.8c1.3-0.5,2.4-1.4,3.2-2.5
		c0.8-1.1,1.2-2.4,1.2-3.8c0-1.9-0.7-3.3-2-4.4c-1.3-1.1-3.4-1.6-6.2-1.6H550.9z M550.9,310.8v15.6h5.1c3,0,5.2-0.3,6.6-0.9
		c1.4-0.6,2.5-1.5,3.3-2.7c0.8-1.2,1.3-2.6,1.3-4c0-1.8-0.6-3.4-1.8-4.7c-1.2-1.4-2.8-2.3-4.9-2.8c-1.4-0.3-3.8-0.5-7.3-0.5H550.9z"
		/>
	<path class="st0" d="M616.1,300.3v30.2h-3.8v-5.2c-1.6,2-3.5,3.5-5.5,4.5c-2,1-4.2,1.5-6.6,1.5c-4.3,0-7.9-1.5-10.9-4.6
		c-3-3.1-4.5-6.9-4.5-11.3c0-4.3,1.5-8.1,4.6-11.2s6.7-4.6,11-4.6c2.5,0,4.7,0.5,6.7,1.6s3.8,2.6,5.3,4.7v-5.5H616.1z M600.6,303.2
		c-2.2,0-4.2,0.5-6,1.6c-1.8,1.1-3.3,2.6-4.4,4.5s-1.6,4-1.6,6.1c0,2.1,0.5,4.2,1.6,6.1c1.1,1.9,2.6,3.5,4.4,4.5
		c1.8,1.1,3.8,1.6,5.9,1.6c2.1,0,4.1-0.5,6-1.6c1.9-1.1,3.4-2.5,4.4-4.4c1-1.8,1.5-3.9,1.5-6.2c0-3.5-1.1-6.4-3.4-8.8
		C606.8,304.4,603.9,303.2,600.6,303.2z"/>
	<path class="st0" d="M630.6,300.3h4v4.4c1.2-1.7,2.4-3,3.7-3.9c1.3-0.9,2.7-1.3,4.1-1.3c1.1,0,2.2,0.3,3.4,1l-2,3.3
		c-0.8-0.4-1.5-0.5-2.1-0.5c-1.3,0-2.5,0.5-3.7,1.6s-2.1,2.7-2.7,5c-0.5,1.7-0.7,5.2-0.7,10.4v10.2h-4V300.3z"/>
	<path class="st0" d="M686.4,300.3v30.2h-3.8v-5.2c-1.6,2-3.5,3.5-5.5,4.5c-2,1-4.2,1.5-6.6,1.5c-4.3,0-7.9-1.5-10.9-4.6
		c-3-3.1-4.5-6.9-4.5-11.3c0-4.3,1.5-8.1,4.6-11.2s6.7-4.6,11-4.6c2.5,0,4.7,0.5,6.7,1.6s3.8,2.6,5.3,4.7v-5.5H686.4z M670.9,303.2
		c-2.2,0-4.2,0.5-6,1.6c-1.8,1.1-3.3,2.6-4.4,4.5c-1.1,1.9-1.6,4-1.6,6.1c0,2.1,0.5,4.2,1.6,6.1c1.1,1.9,2.6,3.5,4.4,4.5
		c1.8,1.1,3.8,1.6,5.9,1.6c2.1,0,4.1-0.5,6-1.6c1.9-1.1,3.4-2.5,4.4-4.4c1-1.8,1.5-3.9,1.5-6.2c0-3.5-1.1-6.4-3.4-8.8
		C677.1,304.4,674.3,303.2,670.9,303.2z"/>
	<path class="st0" d="M702.3,288.6h3.9v23.8l14-12.2h5.7l-16.6,14.4l17.6,15.8h-5.5l-15.2-13.6v13.6h-3.9V288.6z"/>
	<path class="st0" d="M768.2,300.3v30.2h-3.8v-5.2c-1.6,2-3.5,3.5-5.5,4.5c-2,1-4.2,1.5-6.6,1.5c-4.3,0-7.9-1.5-10.9-4.6
		c-3-3.1-4.5-6.9-4.5-11.3c0-4.3,1.5-8.1,4.6-11.2s6.7-4.6,11-4.6c2.5,0,4.7,0.5,6.7,1.6s3.8,2.6,5.3,4.7v-5.5H768.2z M752.6,303.2
		c-2.2,0-4.2,0.5-6,1.6c-1.8,1.1-3.3,2.6-4.4,4.5s-1.6,4-1.6,6.1c0,2.1,0.5,4.2,1.6,6.1c1.1,1.9,2.6,3.5,4.4,4.5
		c1.8,1.1,3.8,1.6,5.9,1.6c2.1,0,4.1-0.5,6-1.6c1.9-1.1,3.4-2.5,4.4-4.4c1-1.8,1.5-3.9,1.5-6.2c0-3.5-1.1-6.4-3.4-8.8
		C758.8,304.4,756,303.2,752.6,303.2z"/>
	<path class="st0" d="M787.5,289h3.9v11.2h6.2v3.4h-6.2v26.8h-3.9v-26.8h-5.3v-3.4h5.3V289z"/>
	<path class="st0" d="M814.9,324.3c0.9,0,1.7,0.3,2.4,1c0.7,0.7,1,1.5,1,2.4c0,0.9-0.3,1.8-1,2.4s-1.5,1-2.4,1s-1.7-0.3-2.4-1
		c-0.7-0.7-1-1.5-1-2.4c0-1,0.3-1.8,1-2.4C813.1,324.7,813.9,324.3,814.9,324.3z"/>
	<path class="st0" d="M834.9,287.8c0.9,0,1.6,0.3,2.3,0.9c0.6,0.6,0.9,1.4,0.9,2.3c0,0.9-0.3,1.6-0.9,2.2c-0.6,0.6-1.4,0.9-2.3,0.9
		c-0.9,0-1.6-0.3-2.2-0.9s-0.9-1.4-0.9-2.2c0-0.9,0.3-1.6,0.9-2.3S834,287.8,834.9,287.8z M832.9,300.3h3.9v30.2h-3.9V300.3z"/>
	<path class="st0" d="M850.6,300.3h4v4.4c1.2-1.7,2.4-3,3.7-3.9c1.3-0.9,2.7-1.3,4.1-1.3c1.1,0,2.2,0.3,3.4,1l-2,3.3
		c-0.8-0.4-1.5-0.5-2.1-0.5c-1.3,0-2.5,0.5-3.7,1.6s-2.1,2.7-2.7,5c-0.5,1.7-0.7,5.2-0.7,10.4v10.2h-4V300.3z"/>
</g>
<g>
	<g>
		<path class="st0" d="M71.4,366.5c0,2.9-0.7,5.7-2.2,8.2c-1.5,2.5-3.5,4.5-6,6c-2.5,1.5-5.3,2.2-8.2,2.2c-2.9,0-5.7-0.7-8.2-2.2
			c-2.5-1.5-4.5-3.5-6-6c-1.5-2.5-2.2-5.3-2.2-8.2s0.7-5.6,2.2-8.2c1.5-2.5,3.5-4.5,6-6c2.5-1.5,5.3-2.2,8.2-2.2
			c2.9,0,5.7,0.7,8.2,2.2c2.5,1.5,4.5,3.5,6,6S71.4,363.6,71.4,366.5z M69.1,366.5c0-2.5-0.6-4.9-1.9-7.1c-1.3-2.2-3-3.9-5.2-5.2
			s-4.5-1.9-7.1-1.9c-2.5,0-4.9,0.6-7.1,1.9s-3.9,3-5.2,5.2c-1.3,2.2-1.9,4.5-1.9,7.1c0,2.5,0.6,4.9,1.9,7.1c1.3,2.2,3,3.9,5.2,5.2
			c2.2,1.3,4.5,1.9,7.1,1.9c2.5,0,4.9-0.6,7.1-1.9c2.2-1.3,3.9-3,5.2-5.2C68.5,371.4,69.1,369,69.1,366.5z M63,363h-2.8
			c-0.3-1.2-0.8-2.2-1.7-2.8c-0.8-0.6-1.9-0.9-3.2-0.9c-1.8,0-3.2,0.6-4.3,1.9c-1.1,1.2-1.6,3.1-1.6,5.5c0,2.3,0.5,4.1,1.5,5.3
			c1,1.2,2.4,1.8,4,1.8c1.4,0,2.5-0.4,3.5-1.3s1.5-2.1,1.7-3.9H63c-0.3,2.3-1.1,4.1-2.6,5.4c-1.5,1.3-3.2,2-5.3,2
			c-2.6,0-4.7-0.8-6.3-2.5c-1.6-1.7-2.4-4-2.4-7c0-3.1,0.8-5.6,2.5-7.4s3.7-2.6,6.2-2.6c2.3,0,4.2,0.6,5.6,1.7S62.9,361,63,363z"/>
		<path class="st0" d="M88.1,349.8h2.5v33.3h-2.5V349.8z"/>
		<path class="st0" d="M136.1,357.4l-2,1.6c-1.1-1.5-2.5-2.6-4-3.3c-1.6-0.8-3.3-1.1-5.2-1.1c-2,0-3.9,0.5-5.7,1.5s-3.1,2.3-4.1,4
			c-1,1.7-1.4,3.5-1.4,5.6c0,3.1,1.1,5.7,3.2,7.8c2.1,2.1,4.9,3.1,8.1,3.1c3.6,0,6.6-1.4,9-4.2l2,1.5c-1.3,1.6-2.9,2.9-4.8,3.8
			s-4.1,1.3-6.4,1.3c-4.5,0-8-1.5-10.6-4.5c-2.2-2.5-3.3-5.6-3.3-9.1c0-3.8,1.3-6.9,4-9.5c2.6-2.6,5.9-3.8,9.9-3.8
			c2.4,0,4.6,0.5,6.5,1.4C133.3,354.4,134.9,355.7,136.1,357.4z"/>
		<path class="st0" d="M149.9,358.9c2.9,0,5.3,1.1,7.3,3.2c1.7,1.9,2.6,4.2,2.6,6.9c0,2.7-0.9,5-2.8,7c-1.8,2-4.2,3-7.1,3
			c-2.9,0-5.3-1-7.1-3c-1.8-2-2.8-4.3-2.8-7c0-2.6,0.9-4.9,2.6-6.8C144.5,359.9,146.9,358.9,149.9,358.9z M149.9,361.3
			c-2,0-3.8,0.8-5.2,2.3c-1.5,1.5-2.2,3.3-2.2,5.4c0,1.4,0.3,2.7,1,3.8c0.7,1.2,1.6,2.1,2.7,2.7c1.1,0.6,2.4,1,3.7,1s2.6-0.3,3.7-1
			c1.1-0.6,2-1.6,2.7-2.7c0.7-1.2,1-2.5,1-3.8c0-2.1-0.7-3.9-2.2-5.4C153.6,362,151.9,361.3,149.9,361.3z"/>
		<path class="st0" d="M164.3,359.4h2.4v3.5c1-1.3,2.1-2.3,3.3-3c1.3-0.7,2.7-1,4.2-1c2.7,0,5,1,6.9,2.9s2.9,4.3,2.9,7
			c0,2.8-0.9,5.2-2.9,7.1c-1.9,1.9-4.2,2.9-6.9,2.9c-1.5,0-2.9-0.3-4.2-0.9c-1.3-0.6-2.4-1.6-3.4-2.8v10.2h-2.4V359.4z M174.1,361.2
			c-2.1,0-3.9,0.7-5.3,2.2c-1.4,1.5-2.2,3.3-2.2,5.5c0,1.4,0.3,2.7,1,3.9c0.6,1.2,1.6,2.1,2.8,2.7c1.2,0.7,2.5,1,3.8,1
			c1.3,0,2.5-0.3,3.7-1c1.2-0.7,2.1-1.6,2.8-2.9c0.7-1.2,1-2.5,1-3.8c0-1.3-0.3-2.6-1-3.8c-0.7-1.2-1.6-2.1-2.7-2.8
			C176.7,361.6,175.4,361.2,174.1,361.2z"/>
		<path class="st0" d="M186.6,359.4h2.6l6.5,14.6l6.3-14.6h2.6l-11.3,25.9h-2.6l3.7-8.4L186.6,359.4z"/>
		<path class="st0" d="M206.9,359.4h2.5v2.8c0.7-1.1,1.5-1.9,2.4-2.5c0.8-0.5,1.7-0.8,2.6-0.8c0.7,0,1.4,0.2,2.2,0.6l-1.3,2.1
			c-0.5-0.2-0.9-0.3-1.3-0.3c-0.8,0-1.6,0.3-2.4,1c-0.8,0.7-1.3,1.7-1.7,3.1c-0.3,1.1-0.5,3.3-0.5,6.6v6.4h-2.5V359.4z"/>
		<path class="st0" d="M219.4,351.5c0.6,0,1,0.2,1.4,0.6c0.4,0.4,0.6,0.9,0.6,1.4c0,0.5-0.2,1-0.6,1.4c-0.4,0.4-0.9,0.6-1.4,0.6
			c-0.5,0-1-0.2-1.4-0.6c-0.4-0.4-0.6-0.9-0.6-1.4c0-0.6,0.2-1,0.6-1.4C218.4,351.7,218.9,351.5,219.4,351.5z M218.2,359.4h2.4v19
			h-2.4V359.4z"/>
		<path class="st0" d="M242.1,359.4h2.4v15.1c0,2.7-0.2,4.6-0.7,5.8c-0.6,1.7-1.8,3.1-3.3,4c-1.6,0.9-3.5,1.4-5.7,1.4
			c-1.6,0-3.1-0.2-4.4-0.7c-1.3-0.5-2.4-1.1-3.2-1.9c-0.8-0.8-1.6-1.9-2.3-3.4h2.7c0.7,1.3,1.7,2.2,2.8,2.8c1.1,0.6,2.6,0.9,4.2,0.9
			c1.7,0,3.1-0.3,4.2-0.9c1.1-0.6,2-1.4,2.5-2.3c0.5-0.9,0.7-2.5,0.7-4.5v-1c-0.9,1.2-2,2.1-3.4,2.7c-1.3,0.6-2.7,0.9-4.2,0.9
			c-1.7,0-3.4-0.4-4.9-1.3s-2.7-2-3.6-3.5c-0.8-1.5-1.3-3.1-1.3-4.8s0.4-3.4,1.3-4.9c0.9-1.5,2.1-2.7,3.6-3.6
			c1.5-0.9,3.2-1.3,4.9-1.3c1.4,0,2.7,0.3,4,0.9c1.2,0.6,2.4,1.6,3.6,2.9V359.4z M234.9,361.2c-1.4,0-2.7,0.3-3.9,1
			c-1.2,0.7-2.1,1.6-2.8,2.8s-1,2.5-1,3.8c0,2.1,0.7,3.8,2.1,5.2c1.4,1.4,3.2,2,5.4,2c2.2,0,4.1-0.7,5.4-2c1.4-1.3,2.1-3.1,2.1-5.3
			c0-1.4-0.3-2.7-0.9-3.8s-1.5-2-2.7-2.7S236.2,361.2,234.9,361.2z"/>
		<path class="st0" d="M249.8,352h2.4v10.7c1-1.3,2.1-2.3,3.3-2.9c1.2-0.6,2.5-1,3.9-1c1.4,0,2.7,0.4,3.8,1.1
			c1.1,0.7,1.9,1.7,2.4,2.9c0.5,1.2,0.8,3.1,0.8,5.7v9.8h-2.4v-9.1c0-2.2-0.1-3.6-0.3-4.4c-0.3-1.3-0.9-2.2-1.6-2.8
			c-0.8-0.6-1.8-1-3.1-1c-1.5,0-2.8,0.5-4,1.5s-1.9,2.2-2.3,3.6c-0.2,0.9-0.3,2.7-0.3,5.2v7h-2.4V352z"/>
		<path class="st0" d="M273.7,352.3h2.4v7.1h3.9v2.1h-3.9v16.9h-2.4v-16.9h-3.3v-2.1h3.3V352.3z"/>
		<path class="st0" d="M301.6,349.8h2.5v33.3h-2.5V349.8z"/>
		<path class="st0" d="M328.9,360.7h-2.5c0.1-2.5,0.9-4.6,2.5-6.2c1.6-1.6,3.6-2.4,6-2.4c2.4,0,4.3,0.8,5.7,2.3
			c1.5,1.5,2.2,3.3,2.2,5.4c0,1.5-0.3,2.8-1,4.1c-0.7,1.3-2,3-4.1,5.2l-6.4,6.9h11.8v2.5h-17.4l9.8-10.6c2-2.1,3.3-3.7,3.9-4.7
			c0.6-1,0.9-2.1,0.9-3.3c0-1.4-0.5-2.7-1.6-3.7c-1.1-1-2.4-1.6-4-1.6c-1.6,0-3,0.5-4.1,1.6C329.7,357.2,329.1,358.7,328.9,360.7z"
			/>
		<path class="st0" d="M345.7,365.5c0-3.4,0.4-6,1.1-7.9c0.7-1.8,1.8-3.3,3.1-4.2c1.3-1,2.8-1.4,4.5-1.4c1.7,0,3.2,0.5,4.5,1.4
			c1.3,1,2.4,2.4,3.2,4.3c0.8,1.9,1.2,4.5,1.2,7.7c0,3.2-0.4,5.8-1.2,7.7s-1.8,3.3-3.2,4.3c-1.4,1-2.9,1.5-4.5,1.5
			c-1.6,0-3.1-0.5-4.4-1.4c-1.3-0.9-2.3-2.3-3.1-4.2C346.1,371.5,345.7,368.9,345.7,365.5z M348.1,365.6c0,2.9,0.3,5.1,0.8,6.6
			c0.5,1.5,1.3,2.6,2.3,3.4c1,0.8,2.1,1.2,3.2,1.2c1.1,0,2.2-0.4,3.2-1.1c1-0.8,1.7-1.9,2.3-3.4c0.6-1.8,1-4,1-6.6
			c0-2.6-0.3-4.7-0.9-6.3c-0.6-1.6-1.4-2.9-2.4-3.6c-1-0.8-2.1-1.1-3.2-1.1c-1.1,0-2.2,0.4-3.2,1.1c-1,0.8-1.8,1.9-2.3,3.4
			C348.4,360.5,348.1,362.7,348.1,365.6z"/>
		<path class="st0" d="M368.5,360.7h-2.5c0.1-2.5,0.9-4.6,2.5-6.2c1.6-1.6,3.6-2.4,6-2.4c2.4,0,4.3,0.8,5.7,2.3
			c1.5,1.5,2.2,3.3,2.2,5.4c0,1.5-0.3,2.8-1,4.1c-0.7,1.3-2,3-4.1,5.2l-6.4,6.9h11.8v2.5h-17.4l9.8-10.6c2-2.1,3.3-3.7,3.9-4.7
			c0.6-1,0.9-2.1,0.9-3.3c0-1.4-0.5-2.7-1.6-3.7c-1.1-1-2.4-1.6-4-1.6c-1.6,0-3,0.5-4.1,1.6C369.3,357.2,368.7,358.7,368.5,360.7z"
			/>
		<path class="st0" d="M385.3,365.5c0-3.4,0.4-6,1.1-7.9c0.7-1.8,1.8-3.3,3.1-4.2c1.3-1,2.8-1.4,4.5-1.4c1.7,0,3.2,0.5,4.5,1.4
			c1.3,1,2.4,2.4,3.2,4.3c0.8,1.9,1.2,4.5,1.2,7.7c0,3.2-0.4,5.8-1.2,7.7s-1.8,3.3-3.2,4.3c-1.4,1-2.9,1.5-4.5,1.5
			c-1.6,0-3.1-0.5-4.4-1.4c-1.3-0.9-2.3-2.3-3.1-4.2C385.7,371.5,385.3,368.9,385.3,365.5z M387.8,365.6c0,2.9,0.3,5.1,0.8,6.6
			c0.5,1.5,1.3,2.6,2.3,3.4c1,0.8,2.1,1.2,3.2,1.2c1.1,0,2.2-0.4,3.2-1.1c1-0.8,1.7-1.9,2.3-3.4c0.6-1.8,1-4,1-6.6
			c0-2.6-0.3-4.7-0.9-6.3c-0.6-1.6-1.4-2.9-2.4-3.6c-1-0.8-2.1-1.1-3.2-1.1c-1.1,0-2.2,0.4-3.2,1.1c-1,0.8-1.8,1.9-2.3,3.4
			C388,360.5,387.8,362.7,387.8,365.6z"/>
		<path class="st0" d="M415,367.6h9.6v2.1H415V367.6z"/>
		<path class="st0" d="M439.8,360.7h-2.5c0.1-2.5,0.9-4.6,2.5-6.2c1.6-1.6,3.6-2.4,6-2.4c2.4,0,4.3,0.8,5.7,2.3
			c1.5,1.5,2.2,3.3,2.2,5.4c0,1.5-0.3,2.8-1,4.1c-0.7,1.3-2,3-4.1,5.2l-6.4,6.9h11.8v2.5h-17.4l9.8-10.6c2-2.1,3.3-3.7,3.9-4.7
			c0.6-1,0.9-2.1,0.9-3.3c0-1.4-0.5-2.7-1.6-3.7c-1.1-1-2.4-1.6-4-1.6c-1.6,0-3,0.5-4.1,1.6C440.6,357.2,439.9,358.7,439.8,360.7z"
			/>
		<path class="st0" d="M456.6,365.5c0-3.4,0.4-6,1.1-7.9c0.7-1.8,1.8-3.3,3.1-4.2c1.3-1,2.8-1.4,4.5-1.4c1.7,0,3.2,0.5,4.5,1.4
			c1.3,1,2.4,2.4,3.2,4.3c0.8,1.9,1.2,4.5,1.2,7.7c0,3.2-0.4,5.8-1.2,7.7s-1.8,3.3-3.2,4.3c-1.4,1-2.9,1.5-4.5,1.5
			c-1.6,0-3.1-0.5-4.4-1.4c-1.3-0.9-2.3-2.3-3.1-4.2C457,371.5,456.6,368.9,456.6,365.5z M459,365.6c0,2.9,0.3,5.1,0.8,6.6
			c0.5,1.5,1.3,2.6,2.3,3.4c1,0.8,2.1,1.2,3.2,1.2c1.1,0,2.2-0.4,3.2-1.1c1-0.8,1.7-1.9,2.3-3.4c0.6-1.8,1-4,1-6.6
			c0-2.6-0.3-4.7-0.9-6.3c-0.6-1.6-1.4-2.9-2.4-3.6c-1-0.8-2.1-1.1-3.2-1.1c-1.1,0-2.2,0.4-3.2,1.1c-1,0.8-1.8,1.9-2.3,3.4
			C459.3,360.5,459,362.7,459,365.6z"/>
		<path class="st0" d="M481.9,352.7h5v25.7h-2.5v-23.2h-4L481.9,352.7z"/>
		<path class="st0" d="M501.9,379l-2.1-1.4l6.9-10.5c-0.9,0.3-1.8,0.5-2.6,0.5c-2,0-3.8-0.7-5.2-2.2c-1.4-1.5-2.1-3.3-2.1-5.4
			c0-1.5,0.3-2.8,1-4c0.7-1.2,1.7-2.1,2.9-2.8s2.6-1.1,4.1-1.1c1.4,0,2.7,0.3,3.9,1c1.2,0.7,2.1,1.6,2.8,2.9s1,2.5,1,3.9
			c0,1.1-0.2,2.2-0.6,3.3c-0.4,1.2-1.2,2.6-2.3,4.2L501.9,379z M504.8,365.3c1.5,0,2.8-0.5,3.8-1.6s1.6-2.3,1.6-3.8
			s-0.5-2.8-1.6-3.8c-1.1-1.1-2.3-1.6-3.8-1.6c-1.5,0-2.8,0.5-3.8,1.6c-1.1,1.1-1.6,2.3-1.6,3.8s0.5,2.8,1.6,3.8
			C502,364.8,503.3,365.3,504.8,365.3z"/>
		<path class="st0" d="M535.5,349.8h2.5v33.3h-2.5V349.8z"/>
		<path class="st0" d="M572.3,352.7l12,25.7h-2.8l-4-8.4h-11.1l-4,8.4h-2.9l12.1-25.7H572.3z M572,358.1l-4.4,9.3h8.8L572,358.1z"/>
		<path class="st0" d="M587.5,352h2.4v26.3h-2.4V352z"/>
		<path class="st0" d="M594.7,352h2.4v26.3h-2.4V352z"/>
		<path class="st0" d="M611.1,359.4h2.5v2.8c0.7-1.1,1.5-1.9,2.4-2.5c0.8-0.5,1.7-0.8,2.6-0.8c0.7,0,1.4,0.2,2.2,0.6l-1.3,2.1
			c-0.5-0.2-0.9-0.3-1.3-0.3c-0.8,0-1.6,0.3-2.4,1c-0.8,0.7-1.3,1.7-1.7,3.1c-0.3,1.1-0.5,3.3-0.5,6.6v6.4h-2.5V359.4z"/>
		<path class="st0" d="M623.7,351.5c0.6,0,1,0.2,1.4,0.6c0.4,0.4,0.6,0.9,0.6,1.4c0,0.5-0.2,1-0.6,1.4c-0.4,0.4-0.9,0.6-1.4,0.6
			c-0.5,0-1-0.2-1.4-0.6c-0.4-0.4-0.6-0.9-0.6-1.4c0-0.6,0.2-1,0.6-1.4C622.7,351.7,623.1,351.5,623.7,351.5z M622.5,359.4h2.4v19
			h-2.4V359.4z"/>
		<path class="st0" d="M646.3,359.4h2.4v15.1c0,2.7-0.2,4.6-0.7,5.8c-0.6,1.7-1.8,3.1-3.3,4c-1.6,0.9-3.5,1.4-5.7,1.4
			c-1.6,0-3.1-0.2-4.4-0.7c-1.3-0.5-2.4-1.1-3.2-1.9c-0.8-0.8-1.6-1.9-2.3-3.4h2.7c0.7,1.3,1.7,2.2,2.8,2.8s2.6,0.9,4.2,0.9
			c1.7,0,3.1-0.3,4.2-0.9c1.1-0.6,2-1.4,2.5-2.3c0.5-0.9,0.7-2.5,0.7-4.5v-1c-0.9,1.2-2,2.1-3.4,2.7c-1.3,0.6-2.7,0.9-4.2,0.9
			c-1.7,0-3.4-0.4-4.9-1.3c-1.5-0.9-2.7-2-3.6-3.5c-0.8-1.5-1.3-3.1-1.3-4.8s0.4-3.4,1.3-4.9c0.9-1.5,2.1-2.7,3.6-3.6
			c1.5-0.9,3.2-1.3,4.9-1.3c1.4,0,2.7,0.3,4,0.9c1.2,0.6,2.4,1.6,3.6,2.9V359.4z M639.1,361.2c-1.4,0-2.7,0.3-3.9,1
			s-2.1,1.6-2.8,2.8s-1,2.5-1,3.8c0,2.1,0.7,3.8,2.1,5.2c1.4,1.4,3.2,2,5.4,2c2.2,0,4.1-0.7,5.4-2c1.4-1.3,2.1-3.1,2.1-5.3
			c0-1.4-0.3-2.7-0.9-3.8s-1.5-2-2.7-2.7S640.5,361.2,639.1,361.2z"/>
		<path class="st0" d="M654,352h2.4v10.7c1-1.3,2.1-2.3,3.3-2.9c1.2-0.6,2.5-1,3.9-1c1.4,0,2.7,0.4,3.8,1.1c1.1,0.7,1.9,1.7,2.4,2.9
			s0.8,3.1,0.8,5.7v9.8h-2.4v-9.1c0-2.2-0.1-3.6-0.3-4.4c-0.3-1.3-0.9-2.2-1.6-2.8s-1.8-1-3.1-1c-1.5,0-2.8,0.5-4,1.5
			s-1.9,2.2-2.3,3.6c-0.2,0.9-0.3,2.7-0.3,5.2v7H654V352z"/>
		<path class="st0" d="M678,352.3h2.4v7.1h3.9v2.1h-3.9v16.9H678v-16.9h-3.3v-2.1h3.3V352.3z"/>
		<path class="st0" d="M697.5,361.4l-1.6,1.6c-1.3-1.3-2.6-1.9-3.8-1.9c-0.8,0-1.5,0.3-2,0.8c-0.6,0.5-0.8,1.1-0.8,1.8
			c0,0.6,0.2,1.2,0.7,1.8c0.5,0.6,1.4,1.2,2.9,2c1.8,0.9,3.1,1.8,3.7,2.7c0.6,0.9,1,1.9,1,3c0,1.6-0.5,2.9-1.6,4
			c-1.1,1.1-2.5,1.6-4.1,1.6c-1.1,0-2.1-0.2-3.1-0.7c-1-0.5-1.8-1.1-2.5-2l1.5-1.7c1.2,1.4,2.6,2.1,4,2.1c1,0,1.8-0.3,2.5-0.9
			c0.7-0.6,1-1.4,1-2.2c0-0.7-0.2-1.3-0.7-1.9c-0.5-0.5-1.5-1.2-3.1-2c-1.7-0.9-2.9-1.8-3.5-2.6s-0.9-1.8-0.9-2.9
			c0-1.4,0.5-2.6,1.5-3.6c1-1,2.2-1.4,3.7-1.4C694,358.9,695.7,359.7,697.5,361.4z"/>
		<path class="st0" d="M710.8,359.4h2.5v2.8c0.7-1.1,1.5-1.9,2.4-2.5c0.8-0.5,1.7-0.8,2.6-0.8c0.7,0,1.4,0.2,2.2,0.6l-1.3,2.1
			c-0.5-0.2-0.9-0.3-1.3-0.3c-0.8,0-1.6,0.3-2.4,1c-0.8,0.7-1.3,1.7-1.7,3.1c-0.3,1.1-0.5,3.3-0.5,6.6v6.4h-2.5V359.4z"/>
		<path class="st0" d="M738.4,372l2.1,1.1c-0.7,1.3-1.5,2.4-2.3,3.2c-0.9,0.8-1.9,1.4-3,1.9c-1.1,0.4-2.4,0.6-3.8,0.6
			c-3.1,0-5.5-1-7.3-3s-2.6-4.3-2.6-6.9c0-2.4,0.7-4.6,2.2-6.4c1.9-2.4,4.4-3.6,7.5-3.6c3.2,0,5.8,1.2,7.8,3.7
			c1.4,1.7,2.1,3.9,2.1,6.5H724c0,2.2,0.8,4,2.1,5.4c1.4,1.4,3,2.1,5,2.1c1,0,1.9-0.2,2.8-0.5c0.9-0.3,1.7-0.8,2.3-1.3
			C737,374.2,737.7,373.3,738.4,372z M738.4,366.9c-0.3-1.3-0.8-2.3-1.4-3.1c-0.6-0.8-1.4-1.4-2.5-1.9c-1-0.5-2.1-0.7-3.2-0.7
			c-1.9,0-3.5,0.6-4.8,1.8c-1,0.9-1.7,2.2-2.2,3.9H738.4z"/>
		<path class="st0" d="M755.2,361.4l-1.6,1.6c-1.3-1.3-2.6-1.9-3.8-1.9c-0.8,0-1.5,0.3-2,0.8c-0.6,0.5-0.8,1.1-0.8,1.8
			c0,0.6,0.2,1.2,0.7,1.8c0.5,0.6,1.4,1.2,2.9,2c1.8,0.9,3.1,1.8,3.7,2.7c0.6,0.9,1,1.9,1,3c0,1.6-0.5,2.9-1.6,4s-2.5,1.6-4.1,1.6
			c-1.1,0-2.1-0.2-3.1-0.7c-1-0.5-1.8-1.1-2.5-2l1.5-1.7c1.2,1.4,2.6,2.1,4,2.1c1,0,1.8-0.3,2.5-0.9c0.7-0.6,1-1.4,1-2.2
			c0-0.7-0.2-1.3-0.7-1.9c-0.5-0.5-1.5-1.2-3.1-2c-1.7-0.9-2.9-1.8-3.5-2.6s-0.9-1.8-0.9-2.9c0-1.4,0.5-2.6,1.5-3.6
			c1-1,2.2-1.4,3.7-1.4C751.7,358.9,753.5,359.7,755.2,361.4z"/>
		<path class="st0" d="M775.5,372l2.1,1.1c-0.7,1.3-1.5,2.4-2.3,3.2c-0.9,0.8-1.9,1.4-3,1.9c-1.1,0.4-2.4,0.6-3.8,0.6
			c-3.1,0-5.5-1-7.3-3c-1.7-2-2.6-4.3-2.6-6.9c0-2.4,0.7-4.6,2.2-6.4c1.9-2.4,4.4-3.6,7.5-3.6c3.2,0,5.8,1.2,7.8,3.7
			c1.4,1.7,2.1,3.9,2.1,6.5h-17.1c0,2.2,0.8,4,2.1,5.4c1.4,1.4,3,2.1,5,2.1c1,0,1.9-0.2,2.8-0.5c0.9-0.3,1.7-0.8,2.3-1.3
			C774.1,374.2,774.8,373.3,775.5,372z M775.5,366.9c-0.3-1.3-0.8-2.3-1.4-3.1c-0.6-0.8-1.4-1.4-2.5-1.9c-1-0.5-2.1-0.7-3.2-0.7
			c-1.9,0-3.5,0.6-4.8,1.8c-1,0.9-1.7,2.2-2.2,3.9H775.5z"/>
		<path class="st0" d="M781.9,359.4h2.5v2.8c0.7-1.1,1.5-1.9,2.4-2.5c0.8-0.5,1.7-0.8,2.6-0.8c0.7,0,1.4,0.2,2.2,0.6l-1.3,2.1
			c-0.5-0.2-0.9-0.3-1.3-0.3c-0.8,0-1.6,0.3-2.4,1c-0.8,0.7-1.3,1.7-1.7,3.1c-0.3,1.1-0.5,3.3-0.5,6.6v6.4h-2.5V359.4z"/>
		<path class="st0" d="M791.7,359.4h2.6l6.4,13.8l6.3-13.8h2.6l-8.7,19h-0.5L791.7,359.4z"/>
		<path class="st0" d="M829.3,372l2.1,1.1c-0.7,1.3-1.5,2.4-2.3,3.2c-0.9,0.8-1.9,1.4-3,1.9c-1.1,0.4-2.4,0.6-3.8,0.6
			c-3.1,0-5.5-1-7.3-3s-2.6-4.3-2.6-6.9c0-2.4,0.7-4.6,2.2-6.4c1.9-2.4,4.4-3.6,7.5-3.6c3.2,0,5.8,1.2,7.8,3.7
			c1.4,1.7,2.1,3.9,2.1,6.5h-17.1c0,2.2,0.8,4,2.1,5.4c1.4,1.4,3,2.1,5,2.1c1,0,1.9-0.2,2.8-0.5c0.9-0.3,1.7-0.8,2.3-1.3
			C827.9,374.2,828.6,373.3,829.3,372z M829.3,366.9c-0.3-1.3-0.8-2.3-1.4-3.1c-0.6-0.8-1.4-1.4-2.5-1.9c-1-0.5-2.1-0.7-3.2-0.7
			c-1.9,0-3.5,0.6-4.8,1.8c-1,0.9-1.7,2.2-2.2,3.9H829.3z"/>
		<path class="st0" d="M855.5,352v26.3h-2.4v-3.3c-1,1.2-2.2,2.2-3.4,2.8c-1.3,0.6-2.7,0.9-4.2,0.9c-2.7,0-5-1-6.9-2.9
			c-1.9-1.9-2.9-4.3-2.9-7.1c0-2.7,1-5.1,2.9-7s4.2-2.9,6.9-2.9c1.6,0,3,0.3,4.2,1c1.3,0.7,2.4,1.7,3.3,3V352H855.5z M845.8,361.2
			c-1.4,0-2.6,0.3-3.8,1c-1.2,0.7-2.1,1.6-2.7,2.8c-0.7,1.2-1,2.5-1,3.8c0,1.3,0.3,2.6,1,3.8c0.7,1.2,1.6,2.2,2.8,2.9
			c1.2,0.7,2.4,1,3.7,1c1.3,0,2.6-0.3,3.8-1c1.2-0.7,2.1-1.6,2.8-2.7c0.6-1.2,1-2.4,1-3.9c0-2.2-0.7-4-2.2-5.5
			C849.7,362,847.9,361.2,845.8,361.2z"/>
		<path class="st0" d="M863.7,374.5c0.6,0,1.1,0.2,1.5,0.6c0.4,0.4,0.6,0.9,0.6,1.5c0,0.6-0.2,1.1-0.6,1.5c-0.4,0.4-0.9,0.6-1.5,0.6
			s-1.1-0.2-1.5-0.6s-0.6-0.9-0.6-1.5c0-0.6,0.2-1.1,0.6-1.5S863.2,374.5,863.7,374.5z"/>
	</g>
</g>
<path class="st0" d="M461,259.3l48.3-31.3c1.6-1.1,3.2-2.3,4.8-3.7l0.4-0.2c27.2-8.8,43.5-23.6,43.5-39.6
	c0-13.3-10.9-25.6-30.6-34.6l-0.6-0.3V91.2c0-2-1.7-3.7-3.7-3.7c-2,0-3.7,1.7-3.7,3.7v28.2l-13.3,8.6V80.5c0-2-1.7-3.7-3.7-3.7
	c-2,0-3.7,1.7-3.7,3.7v52.3l-11.9,7.7l1.4-3.3c4.9-11.8,3.8-25.2-3-36l-0.2-0.3l0-41.9c0-2-1.7-3.7-3.7-3.7c-2,0-3.7,1.7-3.7,3.7V90
	l-15-22.3V40c0-2-1.7-3.7-3.7-3.7c-2,0-3.7,1.7-3.7,3.7v27.7l-15,22.3V59.2c0-2-1.7-3.7-3.7-3.7c-2,0-3.7,1.7-3.7,3.7v41.7l-0.2,0.4
	c-6.8,10.8-7.9,24.2-3,36l1.4,3.3l-11.9-7.7V80.5c0-2-1.7-3.7-3.7-3.7c-2,0-3.7,1.7-3.7,3.7v47.5l-13.3-8.6V91.2
	c0-2-1.7-3.7-3.7-3.7c-2,0-3.7,1.7-3.7,3.7v58.3l-0.6,0.3c-19.7,9-30.6,21.3-30.6,34.6c0,15.6,14.8,29.6,40.5,38.6l3.4,1.3
	c1.6,1.4,3.1,2.6,4.7,3.6l48.4,31.4c0.2,0.1,0.3,0.2,0.3,0.2h0c0,0,0.1,0,0.2,0.1l0.4,0.2c0.9,0.3,1.3,0.2,2.1,0l0.3-0.1
	c0.3-0.1,0.4-0.1,0.5-0.2C460.8,259.4,460.9,259.3,461,259.3z M523.8,210.5c1.9-4.7,2.9-9.7,2.9-14.7V168c0-1.4-0.7-2.6-1.9-3.3
	c0,0-0.1,0-0.2-0.1l-0.9-0.4l0.4-0.9c0.5-1.4,1-2.9,1.5-4.7l0.3-1.3l1.2,0.6c15.1,7.4,23.4,16.8,23.4,26.6c0,10.2-9,19.9-25.3,27.5
	l-2.5,1.2L523.8,210.5z M392.4,211.9c-16.3-7.5-25.3-17.3-25.3-27.5c0-9.7,8.3-19.2,23.4-26.6l1.2-0.6l0.3,1.3
	c0.5,1.9,0.9,3.4,1.5,4.7l0.4,0.9l-1.2,0.5c-1.1,0.6-1.9,1.9-1.9,3.2v27.8c0,5.1,1,10,2.9,14.7l1.1,2.6L392.4,211.9z M519.3,195.8
	c0,10.5-5.3,20.3-14.1,26l-42.7,27.7v-21c0-9.9,4.8-19.3,12.9-25.1l33.8-21.9c0.7-0.5,1.4-1,2.1-1.5l8-5.2V195.8z M504.1,138.2
	c0.2-0.1,0.3-0.2,0.5-0.3l14.7-9.6v20.9c0,9.9-4.8,19.3-12.9,25.1l-33.8,22c-0.7,0.5-1.4,1-2.1,1.5l-8,5.2v-21
	c0-10.5,5.3-20.3,14.1-26L504.1,138.2z M455.1,249.4l-42.7-27.7c-8.8-5.7-14.1-15.4-14.1-26v-21l7.9,5.1c0.7,0.6,1.5,1.1,2.2,1.5
	l33.8,21.9c8.1,5.8,12.9,15.2,12.9,25.1V249.4z M455.1,202.9l-7.9-5.1c-0.7-0.6-1.5-1.1-2.2-1.5l-33.8-21.9
	c-8.1-5.8-12.9-15.2-12.9-25.1v-20.9l14.7,9.5c0.2,0.1,0.3,0.2,0.5,0.3L441,156c8.8,5.7,14.1,15.4,14.1,26V202.9z M458.8,160.4
	l-15.6-15.6c-10.7-10.7-12.4-27.7-3.9-40.3l19.5-29l19.5,29c8.5,12.6,6.8,29.6-3.9,40.3L458.8,160.4z"/>
</svg>
